<?xml version="1.0" encoding="utf-8" standalone="no"?>
<!DOCTYPE svg PUBLIC "-//W3C//DTD SVG 1.1//EN"
  "http://www.w3.org/Graphics/SVG/1.1/DTD/svg11.dtd">
<!-- Created with matplotlib (http://matplotlib.org/) -->
<svg height="432pt" version="1.1" viewBox="0 0 648 432" width="648pt" xmlns="http://www.w3.org/2000/svg" xmlns:xlink="http://www.w3.org/1999/xlink">
 <defs>
  <style type="text/css">
*{stroke-linecap:butt;stroke-linejoin:round;}
  </style>
 </defs>
 <g id="figure_1">
  <g id="patch_1">
   <path d="M 0 432 
L 648 432 
L 648 0 
L 0 0 
z
" style="fill:#ffffff;"/>
  </g>
  <g id="axes_1">
   <g id="patch_2">
    <path d="M 59.44 199.015765 
L 236.186667 199.015765 
L 236.186667 77.76 
L 59.44 77.76 
z
" style="fill:#eaeaf2;"/>
   </g>
   <g id="matplotlib.axis_1">
    <g id="xtick_1">
     <g id="line2d_1"/>
     <g id="text_1">
      <!-- 0 -->
      <defs>
       <path d="M 4.15625 35.296875 
Q 4.15625 48 6.765625 55.734375 
Q 9.375 63.484375 14.515625 67.671875 
Q 19.671875 71.875 27.484375 71.875 
Q 33.25 71.875 37.59375 69.546875 
Q 41.9375 67.234375 44.765625 62.859375 
Q 47.609375 58.5 49.21875 52.21875 
Q 50.828125 45.953125 50.828125 35.296875 
Q 50.828125 22.703125 48.234375 14.96875 
Q 45.65625 7.234375 40.5 3 
Q 35.359375 -1.21875 27.484375 -1.21875 
Q 17.140625 -1.21875 11.234375 6.203125 
Q 4.15625 15.140625 4.15625 35.296875 
z
M 13.1875 35.296875 
Q 13.1875 17.671875 17.3125 11.828125 
Q 21.4375 6 27.484375 6 
Q 33.546875 6 37.671875 11.859375 
Q 41.796875 17.71875 41.796875 35.296875 
Q 41.796875 52.984375 37.671875 58.78125 
Q 33.546875 64.59375 27.390625 64.59375 
Q 21.34375 64.59375 17.71875 59.46875 
Q 13.1875 52.9375 13.1875 35.296875 
z
" id="ArialMT-30"/>
      </defs>
      <g style="fill:#262626;" transform="translate(84.727075 67.77875)scale(0.15 -0.15)">
       <use xlink:href="#ArialMT-30"/>
      </g>
     </g>
    </g>
    <g id="xtick_2">
     <g id="line2d_2"/>
     <g id="text_2">
      <!-- 1 -->
      <defs>
       <path d="M 37.25 0 
L 28.46875 0 
L 28.46875 56 
Q 25.296875 52.984375 20.140625 49.953125 
Q 14.984375 46.921875 10.890625 45.40625 
L 10.890625 53.90625 
Q 18.265625 57.375 23.78125 62.296875 
Q 29.296875 67.234375 31.59375 71.875 
L 37.25 71.875 
z
" id="ArialMT-31"/>
      </defs>
      <g style="fill:#262626;" transform="translate(143.64263 67.77875)scale(0.15 -0.15)">
       <use xlink:href="#ArialMT-31"/>
      </g>
     </g>
    </g>
    <g id="xtick_3">
     <g id="line2d_3"/>
     <g id="text_3">
      <!-- 2 -->
      <defs>
       <path d="M 50.34375 8.453125 
L 50.34375 0 
L 3.03125 0 
Q 2.9375 3.171875 4.046875 6.109375 
Q 5.859375 10.9375 9.828125 15.625 
Q 13.8125 20.3125 21.34375 26.46875 
Q 33.015625 36.03125 37.109375 41.625 
Q 41.21875 47.21875 41.21875 52.203125 
Q 41.21875 57.421875 37.46875 61 
Q 33.734375 64.59375 27.734375 64.59375 
Q 21.390625 64.59375 17.578125 60.78125 
Q 13.765625 56.984375 13.71875 50.25 
L 4.6875 51.171875 
Q 5.609375 61.28125 11.65625 66.578125 
Q 17.71875 71.875 27.9375 71.875 
Q 38.234375 71.875 44.234375 66.15625 
Q 50.25 60.453125 50.25 52 
Q 50.25 47.703125 48.484375 43.546875 
Q 46.734375 39.40625 42.65625 34.8125 
Q 38.578125 30.21875 29.109375 22.21875 
Q 21.1875 15.578125 18.9375 13.203125 
Q 16.703125 10.84375 15.234375 8.453125 
z
" id="ArialMT-32"/>
      </defs>
      <g style="fill:#262626;" transform="translate(202.558186 67.77875)scale(0.15 -0.15)">
       <use xlink:href="#ArialMT-32"/>
      </g>
     </g>
    </g>
    <g id="text_4">
     <!-- Draw 1 damage card -->
     <defs>
      <path d="M 7.71875 0 
L 7.71875 71.578125 
L 32.375 71.578125 
Q 40.71875 71.578125 45.125 70.5625 
Q 51.265625 69.140625 55.609375 65.4375 
Q 61.28125 60.640625 64.078125 53.1875 
Q 66.890625 45.75 66.890625 36.1875 
Q 66.890625 28.03125 64.984375 21.734375 
Q 63.09375 15.4375 60.109375 11.296875 
Q 57.125 7.171875 53.578125 4.796875 
Q 50.046875 2.4375 45.046875 1.21875 
Q 40.046875 0 33.546875 0 
z
M 17.1875 8.453125 
L 32.46875 8.453125 
Q 39.546875 8.453125 43.578125 9.765625 
Q 47.609375 11.078125 50 13.484375 
Q 53.375 16.84375 55.25 22.53125 
Q 57.125 28.21875 57.125 36.328125 
Q 57.125 47.5625 53.4375 53.59375 
Q 49.75 59.625 44.484375 61.671875 
Q 40.671875 63.140625 32.234375 63.140625 
L 17.1875 63.140625 
z
" id="ArialMT-44"/>
      <path d="M 6.5 0 
L 6.5 51.859375 
L 14.40625 51.859375 
L 14.40625 44 
Q 17.4375 49.515625 20 51.265625 
Q 22.5625 53.03125 25.640625 53.03125 
Q 30.078125 53.03125 34.671875 50.203125 
L 31.640625 42.046875 
Q 28.421875 43.953125 25.203125 43.953125 
Q 22.3125 43.953125 20.015625 42.21875 
Q 17.71875 40.484375 16.75 37.40625 
Q 15.28125 32.71875 15.28125 27.15625 
L 15.28125 0 
z
" id="ArialMT-72"/>
      <path d="M 40.4375 6.390625 
Q 35.546875 2.25 31.03125 0.53125 
Q 26.515625 -1.171875 21.34375 -1.171875 
Q 12.796875 -1.171875 8.203125 3 
Q 3.609375 7.171875 3.609375 13.671875 
Q 3.609375 17.484375 5.34375 20.625 
Q 7.078125 23.78125 9.890625 25.6875 
Q 12.703125 27.59375 16.21875 28.5625 
Q 18.796875 29.25 24.03125 29.890625 
Q 34.671875 31.15625 39.703125 32.90625 
Q 39.75 34.71875 39.75 35.203125 
Q 39.75 40.578125 37.25 42.78125 
Q 33.890625 45.75 27.25 45.75 
Q 21.046875 45.75 18.09375 43.578125 
Q 15.140625 41.40625 13.71875 35.890625 
L 5.125 37.0625 
Q 6.296875 42.578125 8.984375 45.96875 
Q 11.671875 49.359375 16.75 51.1875 
Q 21.828125 53.03125 28.515625 53.03125 
Q 35.15625 53.03125 39.296875 51.46875 
Q 43.453125 49.90625 45.40625 47.53125 
Q 47.359375 45.171875 48.140625 41.546875 
Q 48.578125 39.3125 48.578125 33.453125 
L 48.578125 21.734375 
Q 48.578125 9.46875 49.140625 6.21875 
Q 49.703125 2.984375 51.375 0 
L 42.1875 0 
Q 40.828125 2.734375 40.4375 6.390625 
z
M 39.703125 26.03125 
Q 34.90625 24.078125 25.34375 22.703125 
Q 19.921875 21.921875 17.671875 20.9375 
Q 15.4375 19.96875 14.203125 18.09375 
Q 12.984375 16.21875 12.984375 13.921875 
Q 12.984375 10.40625 15.640625 8.0625 
Q 18.3125 5.71875 23.4375 5.71875 
Q 28.515625 5.71875 32.46875 7.9375 
Q 36.421875 10.15625 38.28125 14.015625 
Q 39.703125 17 39.703125 22.796875 
z
" id="ArialMT-61"/>
      <path d="M 16.15625 0 
L 0.296875 51.859375 
L 9.375 51.859375 
L 17.625 21.921875 
L 20.703125 10.796875 
Q 20.90625 11.625 23.390625 21.484375 
L 31.640625 51.859375 
L 40.671875 51.859375 
L 48.4375 21.78125 
L 51.03125 11.859375 
L 54 21.875 
L 62.890625 51.859375 
L 71.4375 51.859375 
L 55.21875 0 
L 46.09375 0 
L 37.84375 31.0625 
L 35.84375 39.890625 
L 25.34375 0 
z
" id="ArialMT-77"/>
      <path id="ArialMT-20"/>
      <path d="M 40.234375 0 
L 40.234375 6.546875 
Q 35.296875 -1.171875 25.734375 -1.171875 
Q 19.53125 -1.171875 14.328125 2.25 
Q 9.125 5.671875 6.265625 11.796875 
Q 3.421875 17.921875 3.421875 25.875 
Q 3.421875 33.640625 6 39.96875 
Q 8.59375 46.296875 13.765625 49.65625 
Q 18.953125 53.03125 25.34375 53.03125 
Q 30.03125 53.03125 33.6875 51.046875 
Q 37.359375 49.078125 39.65625 45.90625 
L 39.65625 71.578125 
L 48.390625 71.578125 
L 48.390625 0 
z
M 12.453125 25.875 
Q 12.453125 15.921875 16.640625 10.984375 
Q 20.84375 6.0625 26.5625 6.0625 
Q 32.328125 6.0625 36.34375 10.765625 
Q 40.375 15.484375 40.375 25.140625 
Q 40.375 35.796875 36.265625 40.765625 
Q 32.171875 45.75 26.171875 45.75 
Q 20.3125 45.75 16.375 40.96875 
Q 12.453125 36.1875 12.453125 25.875 
z
" id="ArialMT-64"/>
      <path d="M 6.59375 0 
L 6.59375 51.859375 
L 14.453125 51.859375 
L 14.453125 44.578125 
Q 16.890625 48.390625 20.9375 50.703125 
Q 25 53.03125 30.171875 53.03125 
Q 35.9375 53.03125 39.625 50.640625 
Q 43.3125 48.25 44.828125 43.953125 
Q 50.984375 53.03125 60.84375 53.03125 
Q 68.5625 53.03125 72.703125 48.75 
Q 76.859375 44.484375 76.859375 35.59375 
L 76.859375 0 
L 68.109375 0 
L 68.109375 32.671875 
Q 68.109375 37.9375 67.25 40.25 
Q 66.40625 42.578125 64.15625 43.984375 
Q 61.921875 45.40625 58.890625 45.40625 
Q 53.421875 45.40625 49.796875 41.765625 
Q 46.1875 38.140625 46.1875 30.125 
L 46.1875 0 
L 37.40625 0 
L 37.40625 33.6875 
Q 37.40625 39.546875 35.25 42.46875 
Q 33.109375 45.40625 28.21875 45.40625 
Q 24.515625 45.40625 21.359375 43.453125 
Q 18.21875 41.5 16.796875 37.734375 
Q 15.375 33.984375 15.375 26.90625 
L 15.375 0 
z
" id="ArialMT-6d"/>
      <path d="M 4.984375 -4.296875 
L 13.53125 -5.5625 
Q 14.0625 -9.515625 16.5 -11.328125 
Q 19.78125 -13.765625 25.4375 -13.765625 
Q 31.546875 -13.765625 34.859375 -11.328125 
Q 38.1875 -8.890625 39.359375 -4.5 
Q 40.046875 -1.8125 39.984375 6.78125 
Q 34.234375 0 25.640625 0 
Q 14.9375 0 9.078125 7.71875 
Q 3.21875 15.4375 3.21875 26.21875 
Q 3.21875 33.640625 5.90625 39.90625 
Q 8.59375 46.1875 13.6875 49.609375 
Q 18.796875 53.03125 25.6875 53.03125 
Q 34.859375 53.03125 40.828125 45.609375 
L 40.828125 51.859375 
L 48.921875 51.859375 
L 48.921875 7.03125 
Q 48.921875 -5.078125 46.453125 -10.125 
Q 44 -15.1875 38.640625 -18.109375 
Q 33.296875 -21.046875 25.484375 -21.046875 
Q 16.21875 -21.046875 10.5 -16.875 
Q 4.78125 -12.703125 4.984375 -4.296875 
z
M 12.25 26.859375 
Q 12.25 16.65625 16.296875 11.96875 
Q 20.359375 7.28125 26.46875 7.28125 
Q 32.515625 7.28125 36.609375 11.9375 
Q 40.71875 16.609375 40.71875 26.5625 
Q 40.71875 36.078125 36.5 40.90625 
Q 32.28125 45.75 26.3125 45.75 
Q 20.453125 45.75 16.34375 40.984375 
Q 12.25 36.234375 12.25 26.859375 
z
" id="ArialMT-67"/>
      <path d="M 42.09375 16.703125 
L 51.171875 15.578125 
Q 49.03125 7.625 43.21875 3.21875 
Q 37.40625 -1.171875 28.375 -1.171875 
Q 17 -1.171875 10.328125 5.828125 
Q 3.65625 12.84375 3.65625 25.484375 
Q 3.65625 38.578125 10.390625 45.796875 
Q 17.140625 53.03125 27.875 53.03125 
Q 38.28125 53.03125 44.875 45.953125 
Q 51.46875 38.875 51.46875 26.03125 
Q 51.46875 25.25 51.421875 23.6875 
L 12.75 23.6875 
Q 13.234375 15.140625 17.578125 10.59375 
Q 21.921875 6.0625 28.421875 6.0625 
Q 33.25 6.0625 36.671875 8.59375 
Q 40.09375 11.140625 42.09375 16.703125 
z
M 13.234375 30.90625 
L 42.1875 30.90625 
Q 41.609375 37.453125 38.875 40.71875 
Q 34.671875 45.796875 27.984375 45.796875 
Q 21.921875 45.796875 17.796875 41.75 
Q 13.671875 37.703125 13.234375 30.90625 
z
" id="ArialMT-65"/>
      <path d="M 40.4375 19 
L 49.078125 17.875 
Q 47.65625 8.9375 41.8125 3.875 
Q 35.984375 -1.171875 27.484375 -1.171875 
Q 16.84375 -1.171875 10.375 5.78125 
Q 3.90625 12.75 3.90625 25.734375 
Q 3.90625 34.125 6.6875 40.421875 
Q 9.46875 46.734375 15.15625 49.875 
Q 20.84375 53.03125 27.546875 53.03125 
Q 35.984375 53.03125 41.359375 48.75 
Q 46.734375 44.484375 48.25 36.625 
L 39.703125 35.296875 
Q 38.484375 40.53125 35.375 43.15625 
Q 32.28125 45.796875 27.875 45.796875 
Q 21.234375 45.796875 17.078125 41.03125 
Q 12.9375 36.28125 12.9375 25.984375 
Q 12.9375 15.53125 16.9375 10.796875 
Q 20.953125 6.0625 27.390625 6.0625 
Q 32.5625 6.0625 36.03125 9.234375 
Q 39.5 12.40625 40.4375 19 
z
" id="ArialMT-63"/>
     </defs>
     <g style="fill:#262626;" transform="translate(71.240443 214.87514)scale(0.165 -0.165)">
      <use xlink:href="#ArialMT-44"/>
      <use x="72.216797" xlink:href="#ArialMT-72"/>
      <use x="105.517578" xlink:href="#ArialMT-61"/>
      <use x="161.132812" xlink:href="#ArialMT-77"/>
      <use x="233.349609" xlink:href="#ArialMT-20"/>
      <use x="261.132812" xlink:href="#ArialMT-31"/>
      <use x="316.748047" xlink:href="#ArialMT-20"/>
      <use x="344.53125" xlink:href="#ArialMT-64"/>
      <use x="400.146484" xlink:href="#ArialMT-61"/>
      <use x="455.761719" xlink:href="#ArialMT-6d"/>
      <use x="539.0625" xlink:href="#ArialMT-61"/>
      <use x="594.677734" xlink:href="#ArialMT-67"/>
      <use x="650.292969" xlink:href="#ArialMT-65"/>
      <use x="705.908203" xlink:href="#ArialMT-20"/>
      <use x="733.691406" xlink:href="#ArialMT-63"/>
      <use x="783.691406" xlink:href="#ArialMT-61"/>
      <use x="839.306641" xlink:href="#ArialMT-72"/>
      <use x="872.607422" xlink:href="#ArialMT-64"/>
     </g>
    </g>
   </g>
   <g id="matplotlib.axis_2">
    <g id="ytick_1">
     <g id="line2d_4"/>
     <g id="text_5">
      <!-- 2 -->
      <g style="fill:#262626;" transform="translate(49.45875 181.779518)rotate(-90)scale(0.15 -0.15)">
       <use xlink:href="#ArialMT-32"/>
      </g>
     </g>
    </g>
    <g id="ytick_2">
     <g id="line2d_5"/>
     <g id="text_6">
      <!-- 1 -->
      <g style="fill:#262626;" transform="translate(49.45875 141.360929)rotate(-90)scale(0.15 -0.15)">
       <use xlink:href="#ArialMT-31"/>
      </g>
     </g>
    </g>
    <g id="ytick_3">
     <g id="line2d_6"/>
     <g id="text_7">
      <!-- 0 -->
      <g style="fill:#262626;" transform="translate(49.45875 100.942341)rotate(-90)scale(0.15 -0.15)">
       <use xlink:href="#ArialMT-30"/>
      </g>
     </g>
    </g>
   </g>
   <g id="QuadMesh_1">
    <path clip-path="url(#peca64ec8ae)" d="M 59.44 199.015765 
L 118.355556 199.015765 
L 118.355556 158.597177 
L 59.44 158.597177 
L 59.44 199.015765 
" style="fill:#a0e982;stroke:#ffffff;stroke-width:2;"/>
    <path clip-path="url(#peca64ec8ae)" d="M 118.355556 199.015765 
L 177.271111 199.015765 
L 177.271111 158.597177 
L 118.355556 158.597177 
L 118.355556 199.015765 
" style="fill:#a2e579;stroke:#ffffff;stroke-width:2;"/>
    <path clip-path="url(#peca64ec8ae)" d="M 177.271111 199.015765 
L 236.186667 199.015765 
L 236.186667 158.597177 
L 177.271111 158.597177 
L 177.271111 199.015765 
" style="fill:#760f27;stroke:#ffffff;stroke-width:2;"/>
    <path clip-path="url(#peca64ec8ae)" d="M 59.44 158.597177 
L 118.355556 158.597177 
L 118.355556 118.178588 
L 59.44 118.178588 
L 59.44 158.597177 
" style="fill:#fafbff;stroke:#ffffff;stroke-width:2;"/>
    <path clip-path="url(#peca64ec8ae)" d="M 118.355556 158.597177 
L 177.271111 158.597177 
L 177.271111 118.178588 
L 118.355556 118.178588 
L 118.355556 158.597177 
" style="fill:#fafbff;stroke:#ffffff;stroke-width:2;"/>
    <path clip-path="url(#peca64ec8ae)" d="M 177.271111 158.597177 
L 236.186667 158.597177 
L 236.186667 118.178588 
L 177.271111 118.178588 
L 177.271111 158.597177 
" style="fill:#a1f7be;stroke:#ffffff;stroke-width:2;"/>
    <path clip-path="url(#peca64ec8ae)" d="M 59.44 118.178588 
L 118.355556 118.178588 
L 118.355556 77.76 
L 59.44 77.76 
L 59.44 118.178588 
" style="fill:#fafbff;stroke:#ffffff;stroke-width:2;"/>
    <path clip-path="url(#peca64ec8ae)" d="M 118.355556 118.178588 
L 177.271111 118.178588 
L 177.271111 77.76 
L 118.355556 77.76 
L 118.355556 118.178588 
" style="fill:#fafbff;stroke:#ffffff;stroke-width:2;"/>
    <path clip-path="url(#peca64ec8ae)" d="M 177.271111 118.178588 
L 236.186667 118.178588 
L 236.186667 77.76 
L 177.271111 77.76 
L 177.271111 118.178588 
" style="fill:#a3f8c5;stroke:#ffffff;stroke-width:2;"/>
   </g>
   <g id="text_8">
    <!-- 53.6% -->
    <defs>
     <path d="M 4.4375 18.40625 
L 18.109375 19.828125 
Q 18.703125 15.1875 21.578125 12.46875 
Q 24.46875 9.765625 28.21875 9.765625 
Q 32.515625 9.765625 35.5 13.25 
Q 38.484375 16.75 38.484375 23.78125 
Q 38.484375 30.375 35.515625 33.671875 
Q 32.5625 36.96875 27.828125 36.96875 
Q 21.921875 36.96875 17.234375 31.734375 
L 6.109375 33.34375 
L 13.140625 70.609375 
L 49.421875 70.609375 
L 49.421875 57.765625 
L 23.53125 57.765625 
L 21.390625 45.609375 
Q 25.984375 47.90625 30.765625 47.90625 
Q 39.890625 47.90625 46.234375 41.265625 
Q 52.59375 34.625 52.59375 24.03125 
Q 52.59375 15.1875 47.46875 8.25 
Q 40.484375 -1.21875 28.078125 -1.21875 
Q 18.171875 -1.21875 11.921875 4.09375 
Q 5.671875 9.421875 4.4375 18.40625 
z
" id="Arial-BoldMT-35"/>
     <path d="M 3.765625 19 
L 17.046875 20.609375 
Q 17.671875 15.53125 20.453125 12.84375 
Q 23.25 10.15625 27.203125 10.15625 
Q 31.453125 10.15625 34.34375 13.375 
Q 37.25 16.609375 37.25 22.078125 
Q 37.25 27.25 34.46875 30.265625 
Q 31.6875 33.296875 27.6875 33.296875 
Q 25.046875 33.296875 21.390625 32.28125 
L 22.90625 43.453125 
Q 28.46875 43.3125 31.390625 45.875 
Q 34.328125 48.4375 34.328125 52.6875 
Q 34.328125 56.296875 32.171875 58.4375 
Q 30.03125 60.59375 26.46875 60.59375 
Q 22.953125 60.59375 20.453125 58.15625 
Q 17.96875 55.71875 17.4375 51.03125 
L 4.78125 53.171875 
Q 6.109375 59.671875 8.765625 63.546875 
Q 11.421875 67.4375 16.1875 69.65625 
Q 20.953125 71.875 26.859375 71.875 
Q 36.96875 71.875 43.0625 65.4375 
Q 48.09375 60.15625 48.09375 53.515625 
Q 48.09375 44.09375 37.796875 38.484375 
Q 43.953125 37.15625 47.625 32.5625 
Q 51.3125 27.984375 51.3125 21.484375 
Q 51.3125 12.0625 44.421875 5.421875 
Q 37.546875 -1.21875 27.296875 -1.21875 
Q 17.578125 -1.21875 11.171875 4.375 
Q 4.78125 9.96875 3.765625 19 
z
" id="Arial-BoldMT-33"/>
     <path d="M 7.171875 0 
L 7.171875 13.71875 
L 20.90625 13.71875 
L 20.90625 0 
z
" id="Arial-BoldMT-2e"/>
     <path d="M 50.734375 54.046875 
L 37.453125 52.59375 
Q 36.96875 56.6875 34.90625 58.640625 
Q 32.859375 60.59375 29.59375 60.59375 
Q 25.25 60.59375 22.234375 56.6875 
Q 19.234375 52.78125 18.453125 40.4375 
Q 23.578125 46.484375 31.203125 46.484375 
Q 39.796875 46.484375 45.921875 39.9375 
Q 52.046875 33.40625 52.046875 23.046875 
Q 52.046875 12.0625 45.59375 5.421875 
Q 39.15625 -1.21875 29.046875 -1.21875 
Q 18.21875 -1.21875 11.234375 7.203125 
Q 4.25 15.625 4.25 34.8125 
Q 4.25 54.5 11.515625 63.1875 
Q 18.796875 71.875 30.421875 71.875 
Q 38.578125 71.875 43.921875 67.3125 
Q 49.265625 62.75 50.734375 54.046875 
z
M 19.625 24.125 
Q 19.625 17.4375 22.703125 13.796875 
Q 25.78125 10.15625 29.734375 10.15625 
Q 33.546875 10.15625 36.078125 13.125 
Q 38.625 16.109375 38.625 22.90625 
Q 38.625 29.890625 35.890625 33.125 
Q 33.15625 36.375 29.046875 36.375 
Q 25.09375 36.375 22.359375 33.265625 
Q 19.625 30.171875 19.625 24.125 
z
" id="Arial-BoldMT-36"/>
     <path d="M 4.34375 53.90625 
Q 4.34375 63.53125 8.5625 68.15625 
Q 12.796875 72.796875 20.015625 72.796875 
Q 27.484375 72.796875 31.703125 68.1875 
Q 35.9375 63.578125 35.9375 53.90625 
Q 35.9375 44.28125 31.703125 39.640625 
Q 27.484375 35.015625 20.265625 35.015625 
Q 12.796875 35.015625 8.5625 39.625 
Q 4.34375 44.234375 4.34375 53.90625 
z
M 15.046875 54 
Q 15.046875 47.015625 16.65625 44.625 
Q 17.875 42.875 20.015625 42.875 
Q 22.21875 42.875 23.4375 44.625 
Q 25 47.015625 25 54 
Q 25 60.984375 23.4375 63.328125 
Q 22.21875 65.140625 20.015625 65.140625 
Q 17.875 65.140625 16.65625 63.375 
Q 15.046875 60.984375 15.046875 54 
z
M 30.46875 -2.734375 
L 20.3125 -2.734375 
L 58.453125 72.796875 
L 68.3125 72.796875 
z
M 52.640625 16.0625 
Q 52.640625 25.6875 56.859375 30.328125 
Q 61.078125 34.96875 68.40625 34.96875 
Q 75.78125 34.96875 80 30.328125 
Q 84.234375 25.6875 84.234375 16.0625 
Q 84.234375 6.390625 80 1.75 
Q 75.78125 -2.875 68.5625 -2.875 
Q 61.078125 -2.875 56.859375 1.75 
Q 52.640625 6.390625 52.640625 16.0625 
z
M 63.328125 16.109375 
Q 63.328125 9.125 64.9375 6.78125 
Q 66.15625 4.984375 68.3125 4.984375 
Q 70.515625 4.984375 71.6875 6.734375 
Q 73.296875 9.125 73.296875 16.109375 
Q 73.296875 23.09375 71.734375 25.484375 
Q 70.515625 27.25 68.3125 27.25 
Q 66.109375 27.25 64.9375 25.484375 
Q 63.328125 23.09375 63.328125 16.109375 
z
" id="Arial-BoldMT-25"/>
    </defs>
    <g style="fill:#262626;" transform="translate(66.215278 182.953971)scale(0.16 -0.16)">
     <use xlink:href="#Arial-BoldMT-35"/>
     <use x="55.615234" xlink:href="#Arial-BoldMT-33"/>
     <use x="111.230469" xlink:href="#Arial-BoldMT-2e"/>
     <use x="139.013672" xlink:href="#Arial-BoldMT-36"/>
     <use x="194.628906" xlink:href="#Arial-BoldMT-25"/>
    </g>
   </g>
   <g id="text_9">
    <!-- 55.6% -->
    <g style="fill:#262626;" transform="translate(125.130833 182.953971)scale(0.16 -0.16)">
     <use xlink:href="#Arial-BoldMT-35"/>
     <use x="55.615234" xlink:href="#Arial-BoldMT-35"/>
     <use x="111.230469" xlink:href="#Arial-BoldMT-2e"/>
     <use x="139.013672" xlink:href="#Arial-BoldMT-36"/>
     <use x="194.628906" xlink:href="#Arial-BoldMT-25"/>
    </g>
   </g>
   <g id="text_10">
    <!-- 100.0% -->
    <defs>
     <path d="M 39.359375 0 
L 25.640625 0 
L 25.640625 51.703125 
Q 18.109375 44.671875 7.90625 41.3125 
L 7.90625 53.765625 
Q 13.28125 55.515625 19.578125 60.421875 
Q 25.875 65.328125 28.21875 71.875 
L 39.359375 71.875 
z
" id="Arial-BoldMT-31"/>
     <path d="M 27.4375 71.875 
Q 37.84375 71.875 43.703125 64.453125 
Q 50.6875 55.671875 50.6875 35.296875 
Q 50.6875 14.984375 43.65625 6.109375 
Q 37.84375 -1.21875 27.4375 -1.21875 
Q 17 -1.21875 10.59375 6.8125 
Q 4.203125 14.84375 4.203125 35.453125 
Q 4.203125 55.671875 11.234375 64.546875 
Q 17.046875 71.875 27.4375 71.875 
z
M 27.4375 60.5 
Q 24.953125 60.5 23 58.90625 
Q 21.046875 57.328125 19.96875 53.21875 
Q 18.5625 47.90625 18.5625 35.296875 
Q 18.5625 22.703125 19.828125 17.984375 
Q 21.09375 13.28125 23.015625 11.71875 
Q 24.953125 10.15625 27.4375 10.15625 
Q 29.9375 10.15625 31.890625 11.734375 
Q 33.84375 13.328125 34.90625 17.4375 
Q 36.328125 22.703125 36.328125 35.296875 
Q 36.328125 47.90625 35.0625 52.609375 
Q 33.796875 57.328125 31.859375 58.90625 
Q 29.9375 60.5 27.4375 60.5 
z
" id="Arial-BoldMT-30"/>
    </defs>
    <g style="fill:#ffffff;" transform="translate(179.597639 182.953971)scale(0.16 -0.16)">
     <use xlink:href="#Arial-BoldMT-31"/>
     <use x="55.615234" xlink:href="#Arial-BoldMT-30"/>
     <use x="111.230469" xlink:href="#Arial-BoldMT-30"/>
     <use x="166.845703" xlink:href="#Arial-BoldMT-2e"/>
     <use x="194.628906" xlink:href="#Arial-BoldMT-30"/>
     <use x="250.244141" xlink:href="#Arial-BoldMT-25"/>
    </g>
   </g>
   <g id="text_11">
    <!-- 0.0% -->
    <g style="fill:#262626;" transform="translate(70.664028 142.535383)scale(0.16 -0.16)">
     <use xlink:href="#Arial-BoldMT-30"/>
     <use x="55.615234" xlink:href="#Arial-BoldMT-2e"/>
     <use x="83.398438" xlink:href="#Arial-BoldMT-30"/>
     <use x="139.013672" xlink:href="#Arial-BoldMT-25"/>
    </g>
   </g>
   <g id="text_12">
    <!-- 0.0% -->
    <g style="fill:#262626;" transform="translate(129.579583 142.535383)scale(0.16 -0.16)">
     <use xlink:href="#Arial-BoldMT-30"/>
     <use x="55.615234" xlink:href="#Arial-BoldMT-2e"/>
     <use x="83.398438" xlink:href="#Arial-BoldMT-30"/>
     <use x="139.013672" xlink:href="#Arial-BoldMT-25"/>
    </g>
   </g>
   <g id="text_13">
    <!-- 40.7% -->
    <defs>
     <path d="M 31.15625 0 
L 31.15625 14.40625 
L 1.859375 14.40625 
L 1.859375 26.421875 
L 32.90625 71.875 
L 44.4375 71.875 
L 44.4375 26.46875 
L 53.328125 26.46875 
L 53.328125 14.40625 
L 44.4375 14.40625 
L 44.4375 0 
z
M 31.15625 26.46875 
L 31.15625 50.921875 
L 14.703125 26.46875 
z
" id="Arial-BoldMT-34"/>
     <path d="M 4.25 57.859375 
L 4.25 70.609375 
L 51.171875 70.609375 
L 51.171875 60.640625 
Q 45.359375 54.9375 39.34375 44.234375 
Q 33.34375 33.546875 30.1875 21.5 
Q 27.046875 9.46875 27.09375 0 
L 13.875 0 
Q 14.203125 14.84375 19.984375 30.265625 
Q 25.78125 45.703125 35.453125 57.859375 
z
" id="Arial-BoldMT-37"/>
    </defs>
    <g style="fill:#262626;" transform="translate(184.046389 142.535383)scale(0.16 -0.16)">
     <use xlink:href="#Arial-BoldMT-34"/>
     <use x="55.615234" xlink:href="#Arial-BoldMT-30"/>
     <use x="111.230469" xlink:href="#Arial-BoldMT-2e"/>
     <use x="139.013672" xlink:href="#Arial-BoldMT-37"/>
     <use x="194.628906" xlink:href="#Arial-BoldMT-25"/>
    </g>
   </g>
   <g id="text_14">
    <!-- 0.0% -->
    <g style="fill:#262626;" transform="translate(70.664028 102.116794)scale(0.16 -0.16)">
     <use xlink:href="#Arial-BoldMT-30"/>
     <use x="55.615234" xlink:href="#Arial-BoldMT-2e"/>
     <use x="83.398438" xlink:href="#Arial-BoldMT-30"/>
     <use x="139.013672" xlink:href="#Arial-BoldMT-25"/>
    </g>
   </g>
   <g id="text_15">
    <!-- 0.0% -->
    <g style="fill:#262626;" transform="translate(129.579583 102.116794)scale(0.16 -0.16)">
     <use xlink:href="#Arial-BoldMT-30"/>
     <use x="55.615234" xlink:href="#Arial-BoldMT-2e"/>
     <use x="83.398438" xlink:href="#Arial-BoldMT-30"/>
     <use x="139.013672" xlink:href="#Arial-BoldMT-25"/>
    </g>
   </g>
   <g id="text_16">
    <!-- 39.3% -->
    <defs>
     <path d="M 4.546875 16.546875 
L 17.828125 18.015625 
Q 18.3125 13.96875 20.359375 12.015625 
Q 22.40625 10.0625 25.78125 10.0625 
Q 30.03125 10.0625 33 13.96875 
Q 35.984375 17.875 36.8125 30.171875 
Q 31.640625 24.171875 23.875 24.171875 
Q 15.4375 24.171875 9.296875 30.6875 
Q 3.171875 37.203125 3.171875 47.65625 
Q 3.171875 58.546875 9.640625 65.203125 
Q 16.109375 71.875 26.125 71.875 
Q 37.015625 71.875 44 63.453125 
Q 50.984375 55.03125 50.984375 35.75 
Q 50.984375 16.109375 43.703125 7.421875 
Q 36.421875 -1.265625 24.75 -1.265625 
Q 16.359375 -1.265625 11.171875 3.203125 
Q 6 7.671875 4.546875 16.546875 
z
M 35.59375 46.53125 
Q 35.59375 53.171875 32.546875 56.828125 
Q 29.5 60.5 25.484375 60.5 
Q 21.6875 60.5 19.171875 57.5 
Q 16.65625 54.5 16.65625 47.65625 
Q 16.65625 40.71875 19.390625 37.46875 
Q 22.125 34.234375 26.21875 34.234375 
Q 30.171875 34.234375 32.875 37.359375 
Q 35.59375 40.484375 35.59375 46.53125 
z
" id="Arial-BoldMT-39"/>
    </defs>
    <g style="fill:#262626;" transform="translate(184.046389 102.116794)scale(0.16 -0.16)">
     <use xlink:href="#Arial-BoldMT-33"/>
     <use x="55.615234" xlink:href="#Arial-BoldMT-39"/>
     <use x="111.230469" xlink:href="#Arial-BoldMT-2e"/>
     <use x="139.013672" xlink:href="#Arial-BoldMT-33"/>
     <use x="194.628906" xlink:href="#Arial-BoldMT-25"/>
    </g>
   </g>
  </g>
  <g id="axes_2">
   <g id="patch_3">
    <path d="M 255.626667 199.015765 
L 432.373333 199.015765 
L 432.373333 77.76 
L 255.626667 77.76 
z
" style="fill:#eaeaf2;"/>
   </g>
   <g id="matplotlib.axis_3">
    <g id="xtick_4">
     <g id="line2d_7"/>
     <g id="text_17">
      <!-- 0 -->
      <g style="fill:#262626;" transform="translate(280.913741 67.77875)scale(0.15 -0.15)">
       <use xlink:href="#ArialMT-30"/>
      </g>
     </g>
    </g>
    <g id="xtick_5">
     <g id="line2d_8"/>
     <g id="text_18">
      <!-- 1 -->
      <g style="fill:#262626;" transform="translate(339.829297 67.77875)scale(0.15 -0.15)">
       <use xlink:href="#ArialMT-31"/>
      </g>
     </g>
    </g>
    <g id="xtick_6">
     <g id="line2d_9"/>
     <g id="text_19">
      <!-- 2 -->
      <g style="fill:#262626;" transform="translate(398.744852 67.77875)scale(0.15 -0.15)">
       <use xlink:href="#ArialMT-32"/>
      </g>
     </g>
    </g>
    <g id="text_20">
     <!-- Draw 2 damage cards -->
     <defs>
      <path d="M 3.078125 15.484375 
L 11.765625 16.84375 
Q 12.5 11.625 15.84375 8.84375 
Q 19.1875 6.0625 25.203125 6.0625 
Q 31.25 6.0625 34.171875 8.515625 
Q 37.109375 10.984375 37.109375 14.3125 
Q 37.109375 17.28125 34.515625 19 
Q 32.71875 20.171875 25.53125 21.96875 
Q 15.875 24.421875 12.140625 26.203125 
Q 8.40625 27.984375 6.46875 31.125 
Q 4.546875 34.28125 4.546875 38.09375 
Q 4.546875 41.546875 6.125 44.5 
Q 7.71875 47.46875 10.453125 49.421875 
Q 12.5 50.921875 16.03125 51.96875 
Q 19.578125 53.03125 23.640625 53.03125 
Q 29.734375 53.03125 34.34375 51.265625 
Q 38.96875 49.515625 41.15625 46.5 
Q 43.359375 43.5 44.1875 38.484375 
L 35.59375 37.3125 
Q 35.015625 41.3125 32.203125 43.546875 
Q 29.390625 45.796875 24.265625 45.796875 
Q 18.21875 45.796875 15.625 43.796875 
Q 13.03125 41.796875 13.03125 39.109375 
Q 13.03125 37.40625 14.109375 36.03125 
Q 15.1875 34.625 17.484375 33.6875 
Q 18.796875 33.203125 25.25 31.453125 
Q 34.578125 28.953125 38.25 27.359375 
Q 41.9375 25.78125 44.03125 22.75 
Q 46.140625 19.734375 46.140625 15.234375 
Q 46.140625 10.84375 43.578125 6.953125 
Q 41.015625 3.078125 36.171875 0.953125 
Q 31.34375 -1.171875 25.25 -1.171875 
Q 15.140625 -1.171875 9.84375 3.03125 
Q 4.546875 7.234375 3.078125 15.484375 
z
" id="ArialMT-73"/>
     </defs>
     <g style="fill:#262626;" transform="translate(263.302109 214.87514)scale(0.165 -0.165)">
      <use xlink:href="#ArialMT-44"/>
      <use x="72.216797" xlink:href="#ArialMT-72"/>
      <use x="105.517578" xlink:href="#ArialMT-61"/>
      <use x="161.132812" xlink:href="#ArialMT-77"/>
      <use x="233.349609" xlink:href="#ArialMT-20"/>
      <use x="261.132812" xlink:href="#ArialMT-32"/>
      <use x="316.748047" xlink:href="#ArialMT-20"/>
      <use x="344.53125" xlink:href="#ArialMT-64"/>
      <use x="400.146484" xlink:href="#ArialMT-61"/>
      <use x="455.761719" xlink:href="#ArialMT-6d"/>
      <use x="539.0625" xlink:href="#ArialMT-61"/>
      <use x="594.677734" xlink:href="#ArialMT-67"/>
      <use x="650.292969" xlink:href="#ArialMT-65"/>
      <use x="705.908203" xlink:href="#ArialMT-20"/>
      <use x="733.691406" xlink:href="#ArialMT-63"/>
      <use x="783.691406" xlink:href="#ArialMT-61"/>
      <use x="839.306641" xlink:href="#ArialMT-72"/>
      <use x="872.607422" xlink:href="#ArialMT-64"/>
      <use x="928.222656" xlink:href="#ArialMT-73"/>
     </g>
    </g>
   </g>
   <g id="matplotlib.axis_4">
    <g id="ytick_4">
     <g id="line2d_10"/>
    </g>
    <g id="ytick_5">
     <g id="line2d_11"/>
    </g>
    <g id="ytick_6">
     <g id="line2d_12"/>
    </g>
   </g>
   <g id="QuadMesh_2">
    <path clip-path="url(#p495104a5c0)" d="M 255.626667 199.015765 
L 314.542222 199.015765 
L 314.542222 158.597177 
L 255.626667 158.597177 
L 255.626667 199.015765 
" style="fill:#dc8f36;stroke:#ffffff;stroke-width:2;"/>
    <path clip-path="url(#p495104a5c0)" d="M 314.542222 199.015765 
L 373.457778 199.015765 
L 373.457778 158.597177 
L 314.542222 158.597177 
L 314.542222 199.015765 
" style="fill:#760f27;stroke:#ffffff;stroke-width:2;"/>
    <path clip-path="url(#p495104a5c0)" d="M 373.457778 199.015765 
L 432.373333 199.015765 
L 432.373333 158.597177 
L 373.457778 158.597177 
L 373.457778 199.015765 
" style="fill:#760f27;stroke:#ffffff;stroke-width:2;"/>
    <path clip-path="url(#p495104a5c0)" d="M 255.626667 158.597177 
L 314.542222 158.597177 
L 314.542222 118.178588 
L 255.626667 118.178588 
L 255.626667 158.597177 
" style="fill:#b6f8ea;stroke:#ffffff;stroke-width:2;"/>
    <path clip-path="url(#p495104a5c0)" d="M 314.542222 158.597177 
L 373.457778 158.597177 
L 373.457778 118.178588 
L 314.542222 118.178588 
L 314.542222 158.597177 
" style="fill:#9df098;stroke:#ffffff;stroke-width:2;"/>
    <path clip-path="url(#p495104a5c0)" d="M 373.457778 158.597177 
L 432.373333 158.597177 
L 432.373333 118.178588 
L 373.457778 118.178588 
L 373.457778 158.597177 
" style="fill:#760f27;stroke:#ffffff;stroke-width:2;"/>
    <path clip-path="url(#p495104a5c0)" d="M 255.626667 118.178588 
L 314.542222 118.178588 
L 314.542222 77.76 
L 255.626667 77.76 
L 255.626667 118.178588 
" style="fill:#fafbff;stroke:#ffffff;stroke-width:2;"/>
    <path clip-path="url(#p495104a5c0)" d="M 314.542222 118.178588 
L 373.457778 118.178588 
L 373.457778 77.76 
L 314.542222 77.76 
L 314.542222 118.178588 
" style="fill:#d8f6ff;stroke:#ffffff;stroke-width:2;"/>
    <path clip-path="url(#p495104a5c0)" d="M 373.457778 118.178588 
L 432.373333 118.178588 
L 432.373333 77.76 
L 373.457778 77.76 
L 373.457778 118.178588 
" style="fill:#b2cf57;stroke:#ffffff;stroke-width:2;"/>
   </g>
   <g id="text_21">
    <!-- 79.4% -->
    <g style="fill:#ffffff;" transform="translate(262.401944 182.953971)scale(0.16 -0.16)">
     <use xlink:href="#Arial-BoldMT-37"/>
     <use x="55.615234" xlink:href="#Arial-BoldMT-39"/>
     <use x="111.230469" xlink:href="#Arial-BoldMT-2e"/>
     <use x="139.013672" xlink:href="#Arial-BoldMT-34"/>
     <use x="194.628906" xlink:href="#Arial-BoldMT-25"/>
    </g>
   </g>
   <g id="text_22">
    <!-- 100.0% -->
    <g style="fill:#ffffff;" transform="translate(316.86875 182.953971)scale(0.16 -0.16)">
     <use xlink:href="#Arial-BoldMT-31"/>
     <use x="55.615234" xlink:href="#Arial-BoldMT-30"/>
     <use x="111.230469" xlink:href="#Arial-BoldMT-30"/>
     <use x="166.845703" xlink:href="#Arial-BoldMT-2e"/>
     <use x="194.628906" xlink:href="#Arial-BoldMT-30"/>
     <use x="250.244141" xlink:href="#Arial-BoldMT-25"/>
    </g>
   </g>
   <g id="text_23">
    <!-- 100.0% -->
    <g style="fill:#ffffff;" transform="translate(375.784306 182.953971)scale(0.16 -0.16)">
     <use xlink:href="#Arial-BoldMT-31"/>
     <use x="55.615234" xlink:href="#Arial-BoldMT-30"/>
     <use x="111.230469" xlink:href="#Arial-BoldMT-30"/>
     <use x="166.845703" xlink:href="#Arial-BoldMT-2e"/>
     <use x="194.628906" xlink:href="#Arial-BoldMT-30"/>
     <use x="250.244141" xlink:href="#Arial-BoldMT-25"/>
    </g>
   </g>
   <g id="text_24">
    <!-- 29.6% -->
    <defs>
     <path d="M 50.59375 12.75 
L 50.59375 0 
L 2.484375 0 
Q 3.265625 7.234375 7.171875 13.703125 
Q 11.078125 20.171875 22.609375 30.859375 
Q 31.890625 39.5 33.984375 42.578125 
Q 36.8125 46.828125 36.8125 50.984375 
Q 36.8125 55.5625 34.34375 58.03125 
Q 31.890625 60.5 27.546875 60.5 
Q 23.25 60.5 20.703125 57.90625 
Q 18.171875 55.328125 17.78125 49.3125 
L 4.109375 50.6875 
Q 5.328125 62.015625 11.765625 66.9375 
Q 18.21875 71.875 27.875 71.875 
Q 38.484375 71.875 44.53125 66.15625 
Q 50.59375 60.453125 50.59375 51.953125 
Q 50.59375 47.125 48.859375 42.75 
Q 47.125 38.375 43.359375 33.59375 
Q 40.875 30.421875 34.375 24.453125 
Q 27.875 18.5 26.140625 16.546875 
Q 24.421875 14.59375 23.34375 12.75 
z
" id="Arial-BoldMT-32"/>
    </defs>
    <g style="fill:#262626;" transform="translate(262.401944 142.535383)scale(0.16 -0.16)">
     <use xlink:href="#Arial-BoldMT-32"/>
     <use x="55.615234" xlink:href="#Arial-BoldMT-39"/>
     <use x="111.230469" xlink:href="#Arial-BoldMT-2e"/>
     <use x="139.013672" xlink:href="#Arial-BoldMT-36"/>
     <use x="194.628906" xlink:href="#Arial-BoldMT-25"/>
    </g>
   </g>
   <g id="text_25">
    <!-- 49.2% -->
    <g style="fill:#262626;" transform="translate(321.3175 142.535383)scale(0.16 -0.16)">
     <use xlink:href="#Arial-BoldMT-34"/>
     <use x="55.615234" xlink:href="#Arial-BoldMT-39"/>
     <use x="111.230469" xlink:href="#Arial-BoldMT-2e"/>
     <use x="139.013672" xlink:href="#Arial-BoldMT-32"/>
     <use x="194.628906" xlink:href="#Arial-BoldMT-25"/>
    </g>
   </g>
   <g id="text_26">
    <!-- 100.0% -->
    <g style="fill:#ffffff;" transform="translate(375.784306 142.535383)scale(0.16 -0.16)">
     <use xlink:href="#Arial-BoldMT-31"/>
     <use x="55.615234" xlink:href="#Arial-BoldMT-30"/>
     <use x="111.230469" xlink:href="#Arial-BoldMT-30"/>
     <use x="166.845703" xlink:href="#Arial-BoldMT-2e"/>
     <use x="194.628906" xlink:href="#Arial-BoldMT-30"/>
     <use x="250.244141" xlink:href="#Arial-BoldMT-25"/>
    </g>
   </g>
   <g id="text_27">
    <!-- 0.0% -->
    <g style="fill:#262626;" transform="translate(266.850694 102.116794)scale(0.16 -0.16)">
     <use xlink:href="#Arial-BoldMT-30"/>
     <use x="55.615234" xlink:href="#Arial-BoldMT-2e"/>
     <use x="83.398438" xlink:href="#Arial-BoldMT-30"/>
     <use x="139.013672" xlink:href="#Arial-BoldMT-25"/>
    </g>
   </g>
   <g id="text_28">
    <!-- 16.3% -->
    <g style="fill:#262626;" transform="translate(321.3175 102.116794)scale(0.16 -0.16)">
     <use xlink:href="#Arial-BoldMT-31"/>
     <use x="55.615234" xlink:href="#Arial-BoldMT-36"/>
     <use x="111.230469" xlink:href="#Arial-BoldMT-2e"/>
     <use x="139.013672" xlink:href="#Arial-BoldMT-33"/>
     <use x="194.628906" xlink:href="#Arial-BoldMT-25"/>
    </g>
   </g>
   <g id="text_29">
    <!-- 64.0% -->
    <g style="fill:#262626;" transform="translate(380.233056 102.116794)scale(0.16 -0.16)">
     <use xlink:href="#Arial-BoldMT-36"/>
     <use x="55.615234" xlink:href="#Arial-BoldMT-34"/>
     <use x="111.230469" xlink:href="#Arial-BoldMT-2e"/>
     <use x="139.013672" xlink:href="#Arial-BoldMT-30"/>
     <use x="194.628906" xlink:href="#Arial-BoldMT-25"/>
    </g>
   </g>
  </g>
  <g id="axes_3">
   <g id="patch_4">
    <path d="M 451.813333 199.015765 
L 628.56 199.015765 
L 628.56 77.76 
L 451.813333 77.76 
z
" style="fill:#eaeaf2;"/>
   </g>
   <g id="matplotlib.axis_5">
    <g id="xtick_7">
     <g id="line2d_13"/>
     <g id="text_30">
      <!-- 0 -->
      <g style="fill:#262626;" transform="translate(477.100408 67.77875)scale(0.15 -0.15)">
       <use xlink:href="#ArialMT-30"/>
      </g>
     </g>
    </g>
    <g id="xtick_8">
     <g id="line2d_14"/>
     <g id="text_31">
      <!-- 1 -->
      <g style="fill:#262626;" transform="translate(536.015964 67.77875)scale(0.15 -0.15)">
       <use xlink:href="#ArialMT-31"/>
      </g>
     </g>
    </g>
    <g id="xtick_9">
     <g id="line2d_15"/>
     <g id="text_32">
      <!-- 2 -->
      <g style="fill:#262626;" transform="translate(594.931519 67.77875)scale(0.15 -0.15)">
       <use xlink:href="#ArialMT-32"/>
      </g>
     </g>
    </g>
    <g id="text_33">
     <!-- Draw 3 damage cards -->
     <defs>
      <path d="M 4.203125 18.890625 
L 12.984375 20.0625 
Q 14.5 12.59375 18.140625 9.296875 
Q 21.78125 6 27 6 
Q 33.203125 6 37.46875 10.296875 
Q 41.75 14.59375 41.75 20.953125 
Q 41.75 27 37.796875 30.921875 
Q 33.84375 34.859375 27.734375 34.859375 
Q 25.25 34.859375 21.53125 33.890625 
L 22.515625 41.609375 
Q 23.390625 41.5 23.921875 41.5 
Q 29.546875 41.5 34.03125 44.421875 
Q 38.53125 47.359375 38.53125 53.46875 
Q 38.53125 58.296875 35.25 61.46875 
Q 31.984375 64.65625 26.8125 64.65625 
Q 21.6875 64.65625 18.265625 61.421875 
Q 14.84375 58.203125 13.875 51.765625 
L 5.078125 53.328125 
Q 6.6875 62.15625 12.390625 67.015625 
Q 18.109375 71.875 26.609375 71.875 
Q 32.46875 71.875 37.390625 69.359375 
Q 42.328125 66.84375 44.9375 62.5 
Q 47.5625 58.15625 47.5625 53.265625 
Q 47.5625 48.640625 45.0625 44.828125 
Q 42.578125 41.015625 37.703125 38.765625 
Q 44.046875 37.3125 47.5625 32.6875 
Q 51.078125 28.078125 51.078125 21.140625 
Q 51.078125 11.765625 44.234375 5.25 
Q 37.40625 -1.265625 26.953125 -1.265625 
Q 17.53125 -1.265625 11.296875 4.34375 
Q 5.078125 9.96875 4.203125 18.890625 
z
" id="ArialMT-33"/>
     </defs>
     <g style="fill:#262626;" transform="translate(459.488776 214.87514)scale(0.165 -0.165)">
      <use xlink:href="#ArialMT-44"/>
      <use x="72.216797" xlink:href="#ArialMT-72"/>
      <use x="105.517578" xlink:href="#ArialMT-61"/>
      <use x="161.132812" xlink:href="#ArialMT-77"/>
      <use x="233.349609" xlink:href="#ArialMT-20"/>
      <use x="261.132812" xlink:href="#ArialMT-33"/>
      <use x="316.748047" xlink:href="#ArialMT-20"/>
      <use x="344.53125" xlink:href="#ArialMT-64"/>
      <use x="400.146484" xlink:href="#ArialMT-61"/>
      <use x="455.761719" xlink:href="#ArialMT-6d"/>
      <use x="539.0625" xlink:href="#ArialMT-61"/>
      <use x="594.677734" xlink:href="#ArialMT-67"/>
      <use x="650.292969" xlink:href="#ArialMT-65"/>
      <use x="705.908203" xlink:href="#ArialMT-20"/>
      <use x="733.691406" xlink:href="#ArialMT-63"/>
      <use x="783.691406" xlink:href="#ArialMT-61"/>
      <use x="839.306641" xlink:href="#ArialMT-72"/>
      <use x="872.607422" xlink:href="#ArialMT-64"/>
      <use x="928.222656" xlink:href="#ArialMT-73"/>
     </g>
    </g>
   </g>
   <g id="matplotlib.axis_6">
    <g id="ytick_7">
     <g id="line2d_16"/>
    </g>
    <g id="ytick_8">
     <g id="line2d_17"/>
    </g>
    <g id="ytick_9">
     <g id="line2d_18"/>
    </g>
   </g>
   <g id="QuadMesh_3">
    <path clip-path="url(#pa3d48dbc5a)" d="M 451.813333 199.015765 
L 510.728889 199.015765 
L 510.728889 158.597177 
L 451.813333 158.597177 
L 451.813333 199.015765 
" style="fill:#760f27;stroke:#ffffff;stroke-width:2;"/>
    <path clip-path="url(#pa3d48dbc5a)" d="M 510.728889 199.015765 
L 569.644444 199.015765 
L 569.644444 158.597177 
L 510.728889 158.597177 
L 510.728889 199.015765 
" style="fill:#760f27;stroke:#ffffff;stroke-width:2;"/>
    <path clip-path="url(#pa3d48dbc5a)" d="M 569.644444 199.015765 
L 628.56 199.015765 
L 628.56 158.597177 
L 569.644444 158.597177 
L 569.644444 199.015765 
" style="fill:#760f27;stroke:#ffffff;stroke-width:2;"/>
    <path clip-path="url(#pa3d48dbc5a)" d="M 451.813333 158.597177 
L 510.728889 158.597177 
L 510.728889 118.178588 
L 451.813333 118.178588 
L 451.813333 158.597177 
" style="fill:#b8c850;stroke:#ffffff;stroke-width:2;"/>
    <path clip-path="url(#pa3d48dbc5a)" d="M 510.728889 158.597177 
L 569.644444 158.597177 
L 569.644444 118.178588 
L 510.728889 118.178588 
L 510.728889 158.597177 
" style="fill:#760f27;stroke:#ffffff;stroke-width:2;"/>
    <path clip-path="url(#pa3d48dbc5a)" d="M 569.644444 158.597177 
L 628.56 158.597177 
L 628.56 118.178588 
L 569.644444 118.178588 
L 569.644444 158.597177 
" style="fill:#760f27;stroke:#ffffff;stroke-width:2;"/>
    <path clip-path="url(#pa3d48dbc5a)" d="M 451.813333 118.178588 
L 510.728889 118.178588 
L 510.728889 77.76 
L 451.813333 77.76 
L 451.813333 118.178588 
" style="fill:#c4f7f8;stroke:#ffffff;stroke-width:2;"/>
    <path clip-path="url(#pa3d48dbc5a)" d="M 510.728889 118.178588 
L 569.644444 118.178588 
L 569.644444 77.76 
L 510.728889 77.76 
L 510.728889 118.178588 
" style="fill:#a2e67b;stroke:#ffffff;stroke-width:2;"/>
    <path clip-path="url(#pa3d48dbc5a)" d="M 569.644444 118.178588 
L 628.56 118.178588 
L 628.56 77.76 
L 569.644444 77.76 
L 569.644444 118.178588 
" style="fill:#760f27;stroke:#ffffff;stroke-width:2;"/>
   </g>
   <g id="text_34">
    <!-- 100.0% -->
    <g style="fill:#ffffff;" transform="translate(454.139861 182.953971)scale(0.16 -0.16)">
     <use xlink:href="#Arial-BoldMT-31"/>
     <use x="55.615234" xlink:href="#Arial-BoldMT-30"/>
     <use x="111.230469" xlink:href="#Arial-BoldMT-30"/>
     <use x="166.845703" xlink:href="#Arial-BoldMT-2e"/>
     <use x="194.628906" xlink:href="#Arial-BoldMT-30"/>
     <use x="250.244141" xlink:href="#Arial-BoldMT-25"/>
    </g>
   </g>
   <g id="text_35">
    <!-- 100.0% -->
    <g style="fill:#ffffff;" transform="translate(513.055417 182.953971)scale(0.16 -0.16)">
     <use xlink:href="#Arial-BoldMT-31"/>
     <use x="55.615234" xlink:href="#Arial-BoldMT-30"/>
     <use x="111.230469" xlink:href="#Arial-BoldMT-30"/>
     <use x="166.845703" xlink:href="#Arial-BoldMT-2e"/>
     <use x="194.628906" xlink:href="#Arial-BoldMT-30"/>
     <use x="250.244141" xlink:href="#Arial-BoldMT-25"/>
    </g>
   </g>
   <g id="text_36">
    <!-- 100.0% -->
    <g style="fill:#ffffff;" transform="translate(571.970972 182.953971)scale(0.16 -0.16)">
     <use xlink:href="#Arial-BoldMT-31"/>
     <use x="55.615234" xlink:href="#Arial-BoldMT-30"/>
     <use x="111.230469" xlink:href="#Arial-BoldMT-30"/>
     <use x="166.845703" xlink:href="#Arial-BoldMT-2e"/>
     <use x="194.628906" xlink:href="#Arial-BoldMT-30"/>
     <use x="250.244141" xlink:href="#Arial-BoldMT-25"/>
    </g>
   </g>
   <g id="text_37">
    <!-- 65.8% -->
    <defs>
     <path d="M 16.015625 38.625 
Q 10.6875 40.875 8.265625 44.796875 
Q 5.859375 48.734375 5.859375 53.421875 
Q 5.859375 61.421875 11.453125 66.640625 
Q 17.046875 71.875 27.34375 71.875 
Q 37.546875 71.875 43.1875 66.640625 
Q 48.828125 61.421875 48.828125 53.421875 
Q 48.828125 48.4375 46.234375 44.546875 
Q 43.65625 40.671875 38.96875 38.625 
Q 44.921875 36.234375 48.015625 31.640625 
Q 51.125 27.046875 51.125 21.046875 
Q 51.125 11.140625 44.796875 4.9375 
Q 38.484375 -1.265625 27.984375 -1.265625 
Q 18.21875 -1.265625 11.71875 3.859375 
Q 4.046875 9.90625 4.046875 20.453125 
Q 4.046875 26.265625 6.921875 31.125 
Q 9.8125 35.984375 16.015625 38.625 
z
M 18.84375 52.4375 
Q 18.84375 48.34375 21.15625 46.046875 
Q 23.484375 43.75 27.34375 43.75 
Q 31.25 43.75 33.59375 46.0625 
Q 35.9375 48.390625 35.9375 52.484375 
Q 35.9375 56.34375 33.609375 58.65625 
Q 31.296875 60.984375 27.484375 60.984375 
Q 23.53125 60.984375 21.1875 58.640625 
Q 18.84375 56.296875 18.84375 52.4375 
z
M 17.578125 21.78125 
Q 17.578125 16.109375 20.484375 12.9375 
Q 23.390625 9.765625 27.734375 9.765625 
Q 31.984375 9.765625 34.765625 12.8125 
Q 37.546875 15.875 37.546875 21.625 
Q 37.546875 26.65625 34.71875 29.703125 
Q 31.890625 32.765625 27.546875 32.765625 
Q 22.515625 32.765625 20.046875 29.296875 
Q 17.578125 25.828125 17.578125 21.78125 
z
" id="Arial-BoldMT-38"/>
    </defs>
    <g style="fill:#262626;" transform="translate(458.588611 142.535383)scale(0.16 -0.16)">
     <use xlink:href="#Arial-BoldMT-36"/>
     <use x="55.615234" xlink:href="#Arial-BoldMT-35"/>
     <use x="111.230469" xlink:href="#Arial-BoldMT-2e"/>
     <use x="139.013672" xlink:href="#Arial-BoldMT-38"/>
     <use x="194.628906" xlink:href="#Arial-BoldMT-25"/>
    </g>
   </g>
   <g id="text_38">
    <!-- 100.0% -->
    <g style="fill:#ffffff;" transform="translate(513.055417 142.535383)scale(0.16 -0.16)">
     <use xlink:href="#Arial-BoldMT-31"/>
     <use x="55.615234" xlink:href="#Arial-BoldMT-30"/>
     <use x="111.230469" xlink:href="#Arial-BoldMT-30"/>
     <use x="166.845703" xlink:href="#Arial-BoldMT-2e"/>
     <use x="194.628906" xlink:href="#Arial-BoldMT-30"/>
     <use x="250.244141" xlink:href="#Arial-BoldMT-25"/>
    </g>
   </g>
   <g id="text_39">
    <!-- 100.0% -->
    <g style="fill:#ffffff;" transform="translate(571.970972 142.535383)scale(0.16 -0.16)">
     <use xlink:href="#Arial-BoldMT-31"/>
     <use x="55.615234" xlink:href="#Arial-BoldMT-30"/>
     <use x="111.230469" xlink:href="#Arial-BoldMT-30"/>
     <use x="166.845703" xlink:href="#Arial-BoldMT-2e"/>
     <use x="194.628906" xlink:href="#Arial-BoldMT-30"/>
     <use x="250.244141" xlink:href="#Arial-BoldMT-25"/>
    </g>
   </g>
   <g id="text_40">
    <!-- 23.8% -->
    <g style="fill:#262626;" transform="translate(458.588611 102.116794)scale(0.16 -0.16)">
     <use xlink:href="#Arial-BoldMT-32"/>
     <use x="55.615234" xlink:href="#Arial-BoldMT-33"/>
     <use x="111.230469" xlink:href="#Arial-BoldMT-2e"/>
     <use x="139.013672" xlink:href="#Arial-BoldMT-38"/>
     <use x="194.628906" xlink:href="#Arial-BoldMT-25"/>
    </g>
   </g>
   <g id="text_41">
    <!-- 55.3% -->
    <g style="fill:#262626;" transform="translate(517.504167 102.116794)scale(0.16 -0.16)">
     <use xlink:href="#Arial-BoldMT-35"/>
     <use x="55.615234" xlink:href="#Arial-BoldMT-35"/>
     <use x="111.230469" xlink:href="#Arial-BoldMT-2e"/>
     <use x="139.013672" xlink:href="#Arial-BoldMT-33"/>
     <use x="194.628906" xlink:href="#Arial-BoldMT-25"/>
    </g>
   </g>
   <g id="text_42">
    <!-- 100.0% -->
    <g style="fill:#ffffff;" transform="translate(571.970972 102.116794)scale(0.16 -0.16)">
     <use xlink:href="#Arial-BoldMT-31"/>
     <use x="55.615234" xlink:href="#Arial-BoldMT-30"/>
     <use x="111.230469" xlink:href="#Arial-BoldMT-30"/>
     <use x="166.845703" xlink:href="#Arial-BoldMT-2e"/>
     <use x="194.628906" xlink:href="#Arial-BoldMT-30"/>
     <use x="250.244141" xlink:href="#Arial-BoldMT-25"/>
    </g>
   </g>
  </g>
  <g id="axes_4">
   <g id="patch_5">
    <path d="M 59.44 372.56 
L 236.186667 372.56 
L 236.186667 251.304235 
L 59.44 251.304235 
z
" style="fill:#eaeaf2;"/>
   </g>
   <g id="matplotlib.axis_7">
    <g id="xtick_10">
     <g id="line2d_19"/>
     <g id="text_43">
      <!-- 0 -->
      <g style="fill:#262626;" transform="translate(84.727075 241.322985)scale(0.15 -0.15)">
       <use xlink:href="#ArialMT-30"/>
      </g>
     </g>
    </g>
    <g id="xtick_11">
     <g id="line2d_20"/>
     <g id="text_44">
      <!-- 1 -->
      <g style="fill:#262626;" transform="translate(143.64263 241.322985)scale(0.15 -0.15)">
       <use xlink:href="#ArialMT-31"/>
      </g>
     </g>
    </g>
    <g id="xtick_12">
     <g id="line2d_21"/>
     <g id="text_45">
      <!-- 2 -->
      <g style="fill:#262626;" transform="translate(202.558186 241.322985)scale(0.15 -0.15)">
       <use xlink:href="#ArialMT-32"/>
      </g>
     </g>
    </g>
    <g id="text_46">
     <!-- Draw 4 damage cards -->
     <defs>
      <path d="M 32.328125 0 
L 32.328125 17.140625 
L 1.265625 17.140625 
L 1.265625 25.203125 
L 33.9375 71.578125 
L 41.109375 71.578125 
L 41.109375 25.203125 
L 50.78125 25.203125 
L 50.78125 17.140625 
L 41.109375 17.140625 
L 41.109375 0 
z
M 32.328125 25.203125 
L 32.328125 57.46875 
L 9.90625 25.203125 
z
" id="ArialMT-34"/>
     </defs>
     <g style="fill:#262626;" transform="translate(67.115443 388.370391)scale(0.165 -0.165)">
      <use xlink:href="#ArialMT-44"/>
      <use x="72.216797" xlink:href="#ArialMT-72"/>
      <use x="105.517578" xlink:href="#ArialMT-61"/>
      <use x="161.132812" xlink:href="#ArialMT-77"/>
      <use x="233.349609" xlink:href="#ArialMT-20"/>
      <use x="261.132812" xlink:href="#ArialMT-34"/>
      <use x="316.748047" xlink:href="#ArialMT-20"/>
      <use x="344.53125" xlink:href="#ArialMT-64"/>
      <use x="400.146484" xlink:href="#ArialMT-61"/>
      <use x="455.761719" xlink:href="#ArialMT-6d"/>
      <use x="539.0625" xlink:href="#ArialMT-61"/>
      <use x="594.677734" xlink:href="#ArialMT-67"/>
      <use x="650.292969" xlink:href="#ArialMT-65"/>
      <use x="705.908203" xlink:href="#ArialMT-20"/>
      <use x="733.691406" xlink:href="#ArialMT-63"/>
      <use x="783.691406" xlink:href="#ArialMT-61"/>
      <use x="839.306641" xlink:href="#ArialMT-72"/>
      <use x="872.607422" xlink:href="#ArialMT-64"/>
      <use x="928.222656" xlink:href="#ArialMT-73"/>
     </g>
    </g>
   </g>
   <g id="matplotlib.axis_8">
    <g id="ytick_10">
     <g id="line2d_22"/>
     <g id="text_47">
      <!-- 2 -->
      <g style="fill:#262626;" transform="translate(49.45875 355.323753)rotate(-90)scale(0.15 -0.15)">
       <use xlink:href="#ArialMT-32"/>
      </g>
     </g>
    </g>
    <g id="ytick_11">
     <g id="line2d_23"/>
     <g id="text_48">
      <!-- 1 -->
      <g style="fill:#262626;" transform="translate(49.45875 314.905164)rotate(-90)scale(0.15 -0.15)">
       <use xlink:href="#ArialMT-31"/>
      </g>
     </g>
    </g>
    <g id="ytick_12">
     <g id="line2d_24"/>
     <g id="text_49">
      <!-- 0 -->
      <g style="fill:#262626;" transform="translate(49.45875 274.486576)rotate(-90)scale(0.15 -0.15)">
       <use xlink:href="#ArialMT-30"/>
      </g>
     </g>
    </g>
   </g>
   <g id="QuadMesh_4">
    <path clip-path="url(#p520bcdef22)" d="M 59.44 372.56 
L 118.355556 372.56 
L 118.355556 332.141412 
L 59.44 332.141412 
L 59.44 372.56 
" style="fill:#760f27;stroke:#ffffff;stroke-width:2;"/>
    <path clip-path="url(#p520bcdef22)" d="M 118.355556 372.56 
L 177.271111 372.56 
L 177.271111 332.141412 
L 118.355556 332.141412 
L 118.355556 372.56 
" style="fill:#760f27;stroke:#ffffff;stroke-width:2;"/>
    <path clip-path="url(#p520bcdef22)" d="M 177.271111 372.56 
L 236.186667 372.56 
L 236.186667 332.141412 
L 177.271111 332.141412 
L 177.271111 372.56 
" style="fill:#760f27;stroke:#ffffff;stroke-width:2;"/>
    <path clip-path="url(#p520bcdef22)" d="M 59.44 332.141412 
L 118.355556 332.141412 
L 118.355556 291.722823 
L 59.44 291.722823 
L 59.44 332.141412 
" style="fill:#760f27;stroke:#ffffff;stroke-width:2;"/>
    <path clip-path="url(#p520bcdef22)" d="M 118.355556 332.141412 
L 177.271111 332.141412 
L 177.271111 291.722823 
L 118.355556 291.722823 
L 118.355556 332.141412 
" style="fill:#760f27;stroke:#ffffff;stroke-width:2;"/>
    <path clip-path="url(#p520bcdef22)" d="M 177.271111 332.141412 
L 236.186667 332.141412 
L 236.186667 291.722823 
L 177.271111 291.722823 
L 177.271111 332.141412 
" style="fill:#760f27;stroke:#ffffff;stroke-width:2;"/>
    <path clip-path="url(#p520bcdef22)" d="M 59.44 291.722823 
L 118.355556 291.722823 
L 118.355556 251.304235 
L 59.44 251.304235 
L 59.44 291.722823 
" style="fill:#acd862;stroke:#ffffff;stroke-width:2;"/>
    <path clip-path="url(#p520bcdef22)" d="M 118.355556 291.722823 
L 177.271111 291.722823 
L 177.271111 251.304235 
L 118.355556 251.304235 
L 118.355556 291.722823 
" style="fill:#760f27;stroke:#ffffff;stroke-width:2;"/>
    <path clip-path="url(#p520bcdef22)" d="M 177.271111 291.722823 
L 236.186667 291.722823 
L 236.186667 251.304235 
L 177.271111 251.304235 
L 177.271111 291.722823 
" style="fill:#760f27;stroke:#ffffff;stroke-width:2;"/>
   </g>
   <g id="text_50">
    <!-- 100.0% -->
    <g style="fill:#ffffff;" transform="translate(61.766528 356.498206)scale(0.16 -0.16)">
     <use xlink:href="#Arial-BoldMT-31"/>
     <use x="55.615234" xlink:href="#Arial-BoldMT-30"/>
     <use x="111.230469" xlink:href="#Arial-BoldMT-30"/>
     <use x="166.845703" xlink:href="#Arial-BoldMT-2e"/>
     <use x="194.628906" xlink:href="#Arial-BoldMT-30"/>
     <use x="250.244141" xlink:href="#Arial-BoldMT-25"/>
    </g>
   </g>
   <g id="text_51">
    <!-- 100.0% -->
    <g style="fill:#ffffff;" transform="translate(120.682083 356.498206)scale(0.16 -0.16)">
     <use xlink:href="#Arial-BoldMT-31"/>
     <use x="55.615234" xlink:href="#Arial-BoldMT-30"/>
     <use x="111.230469" xlink:href="#Arial-BoldMT-30"/>
     <use x="166.845703" xlink:href="#Arial-BoldMT-2e"/>
     <use x="194.628906" xlink:href="#Arial-BoldMT-30"/>
     <use x="250.244141" xlink:href="#Arial-BoldMT-25"/>
    </g>
   </g>
   <g id="text_52">
    <!-- 100.0% -->
    <g style="fill:#ffffff;" transform="translate(179.597639 356.498206)scale(0.16 -0.16)">
     <use xlink:href="#Arial-BoldMT-31"/>
     <use x="55.615234" xlink:href="#Arial-BoldMT-30"/>
     <use x="111.230469" xlink:href="#Arial-BoldMT-30"/>
     <use x="166.845703" xlink:href="#Arial-BoldMT-2e"/>
     <use x="194.628906" xlink:href="#Arial-BoldMT-30"/>
     <use x="250.244141" xlink:href="#Arial-BoldMT-25"/>
    </g>
   </g>
   <g id="text_53">
    <!-- 100.0% -->
    <g style="fill:#ffffff;" transform="translate(61.766528 316.079617)scale(0.16 -0.16)">
     <use xlink:href="#Arial-BoldMT-31"/>
     <use x="55.615234" xlink:href="#Arial-BoldMT-30"/>
     <use x="111.230469" xlink:href="#Arial-BoldMT-30"/>
     <use x="166.845703" xlink:href="#Arial-BoldMT-2e"/>
     <use x="194.628906" xlink:href="#Arial-BoldMT-30"/>
     <use x="250.244141" xlink:href="#Arial-BoldMT-25"/>
    </g>
   </g>
   <g id="text_54">
    <!-- 100.0% -->
    <g style="fill:#ffffff;" transform="translate(120.682083 316.079617)scale(0.16 -0.16)">
     <use xlink:href="#Arial-BoldMT-31"/>
     <use x="55.615234" xlink:href="#Arial-BoldMT-30"/>
     <use x="111.230469" xlink:href="#Arial-BoldMT-30"/>
     <use x="166.845703" xlink:href="#Arial-BoldMT-2e"/>
     <use x="194.628906" xlink:href="#Arial-BoldMT-30"/>
     <use x="250.244141" xlink:href="#Arial-BoldMT-25"/>
    </g>
   </g>
   <g id="text_55">
    <!-- 100.0% -->
    <g style="fill:#ffffff;" transform="translate(179.597639 316.079617)scale(0.16 -0.16)">
     <use xlink:href="#Arial-BoldMT-31"/>
     <use x="55.615234" xlink:href="#Arial-BoldMT-30"/>
     <use x="111.230469" xlink:href="#Arial-BoldMT-30"/>
     <use x="166.845703" xlink:href="#Arial-BoldMT-2e"/>
     <use x="194.628906" xlink:href="#Arial-BoldMT-30"/>
     <use x="250.244141" xlink:href="#Arial-BoldMT-25"/>
    </g>
   </g>
   <g id="text_56">
    <!-- 61.3% -->
    <g style="fill:#262626;" transform="translate(66.215278 275.661029)scale(0.16 -0.16)">
     <use xlink:href="#Arial-BoldMT-36"/>
     <use x="55.615234" xlink:href="#Arial-BoldMT-31"/>
     <use x="111.230469" xlink:href="#Arial-BoldMT-2e"/>
     <use x="139.013672" xlink:href="#Arial-BoldMT-33"/>
     <use x="194.628906" xlink:href="#Arial-BoldMT-25"/>
    </g>
   </g>
   <g id="text_57">
    <!-- 100.0% -->
    <g style="fill:#ffffff;" transform="translate(120.682083 275.661029)scale(0.16 -0.16)">
     <use xlink:href="#Arial-BoldMT-31"/>
     <use x="55.615234" xlink:href="#Arial-BoldMT-30"/>
     <use x="111.230469" xlink:href="#Arial-BoldMT-30"/>
     <use x="166.845703" xlink:href="#Arial-BoldMT-2e"/>
     <use x="194.628906" xlink:href="#Arial-BoldMT-30"/>
     <use x="250.244141" xlink:href="#Arial-BoldMT-25"/>
    </g>
   </g>
   <g id="text_58">
    <!-- 100.0% -->
    <g style="fill:#ffffff;" transform="translate(179.597639 275.661029)scale(0.16 -0.16)">
     <use xlink:href="#Arial-BoldMT-31"/>
     <use x="55.615234" xlink:href="#Arial-BoldMT-30"/>
     <use x="111.230469" xlink:href="#Arial-BoldMT-30"/>
     <use x="166.845703" xlink:href="#Arial-BoldMT-2e"/>
     <use x="194.628906" xlink:href="#Arial-BoldMT-30"/>
     <use x="250.244141" xlink:href="#Arial-BoldMT-25"/>
    </g>
   </g>
  </g>
  <g id="axes_5">
   <g id="patch_6">
    <path d="M 255.626667 372.56 
L 432.373333 372.56 
L 432.373333 251.304235 
L 255.626667 251.304235 
z
" style="fill:#eaeaf2;"/>
   </g>
   <g id="matplotlib.axis_9">
    <g id="xtick_13">
     <g id="line2d_25"/>
     <g id="text_59">
      <!-- 0 -->
      <g style="fill:#262626;" transform="translate(280.913741 241.322985)scale(0.15 -0.15)">
       <use xlink:href="#ArialMT-30"/>
      </g>
     </g>
    </g>
    <g id="xtick_14">
     <g id="line2d_26"/>
     <g id="text_60">
      <!-- 1 -->
      <g style="fill:#262626;" transform="translate(339.829297 241.322985)scale(0.15 -0.15)">
       <use xlink:href="#ArialMT-31"/>
      </g>
     </g>
    </g>
    <g id="xtick_15">
     <g id="line2d_27"/>
     <g id="text_61">
      <!-- 2 -->
      <g style="fill:#262626;" transform="translate(398.744852 241.322985)scale(0.15 -0.15)">
       <use xlink:href="#ArialMT-32"/>
      </g>
     </g>
    </g>
    <g id="text_62">
     <!-- Draw 5 damage cards -->
     <defs>
      <path d="M 4.15625 18.75 
L 13.375 19.53125 
Q 14.40625 12.796875 18.140625 9.390625 
Q 21.875 6 27.15625 6 
Q 33.5 6 37.890625 10.78125 
Q 42.28125 15.578125 42.28125 23.484375 
Q 42.28125 31 38.0625 35.34375 
Q 33.84375 39.703125 27 39.703125 
Q 22.75 39.703125 19.328125 37.765625 
Q 15.921875 35.84375 13.96875 32.765625 
L 5.71875 33.84375 
L 12.640625 70.609375 
L 48.25 70.609375 
L 48.25 62.203125 
L 19.671875 62.203125 
L 15.828125 42.96875 
Q 22.265625 47.46875 29.34375 47.46875 
Q 38.71875 47.46875 45.15625 40.96875 
Q 51.609375 34.46875 51.609375 24.265625 
Q 51.609375 14.546875 45.953125 7.46875 
Q 39.0625 -1.21875 27.15625 -1.21875 
Q 17.390625 -1.21875 11.203125 4.25 
Q 5.03125 9.71875 4.15625 18.75 
z
" id="ArialMT-35"/>
     </defs>
     <g style="fill:#262626;" transform="translate(263.302109 388.370391)scale(0.165 -0.165)">
      <use xlink:href="#ArialMT-44"/>
      <use x="72.216797" xlink:href="#ArialMT-72"/>
      <use x="105.517578" xlink:href="#ArialMT-61"/>
      <use x="161.132812" xlink:href="#ArialMT-77"/>
      <use x="233.349609" xlink:href="#ArialMT-20"/>
      <use x="261.132812" xlink:href="#ArialMT-35"/>
      <use x="316.748047" xlink:href="#ArialMT-20"/>
      <use x="344.53125" xlink:href="#ArialMT-64"/>
      <use x="400.146484" xlink:href="#ArialMT-61"/>
      <use x="455.761719" xlink:href="#ArialMT-6d"/>
      <use x="539.0625" xlink:href="#ArialMT-61"/>
      <use x="594.677734" xlink:href="#ArialMT-67"/>
      <use x="650.292969" xlink:href="#ArialMT-65"/>
      <use x="705.908203" xlink:href="#ArialMT-20"/>
      <use x="733.691406" xlink:href="#ArialMT-63"/>
      <use x="783.691406" xlink:href="#ArialMT-61"/>
      <use x="839.306641" xlink:href="#ArialMT-72"/>
      <use x="872.607422" xlink:href="#ArialMT-64"/>
      <use x="928.222656" xlink:href="#ArialMT-73"/>
     </g>
    </g>
   </g>
   <g id="matplotlib.axis_10">
    <g id="ytick_13">
     <g id="line2d_28"/>
    </g>
    <g id="ytick_14">
     <g id="line2d_29"/>
    </g>
    <g id="ytick_15">
     <g id="line2d_30"/>
    </g>
   </g>
   <g id="QuadMesh_5">
    <path clip-path="url(#pe1ee10f4d3)" d="M 255.626667 372.56 
L 314.542222 372.56 
L 314.542222 332.141412 
L 255.626667 332.141412 
L 255.626667 372.56 
" style="fill:#760f27;stroke:#ffffff;stroke-width:2;"/>
    <path clip-path="url(#pe1ee10f4d3)" d="M 314.542222 372.56 
L 373.457778 372.56 
L 373.457778 332.141412 
L 314.542222 332.141412 
L 314.542222 372.56 
" style="fill:#760f27;stroke:#ffffff;stroke-width:2;"/>
    <path clip-path="url(#pe1ee10f4d3)" d="M 373.457778 372.56 
L 432.373333 372.56 
L 432.373333 332.141412 
L 373.457778 332.141412 
L 373.457778 372.56 
" style="fill:#760f27;stroke:#ffffff;stroke-width:2;"/>
    <path clip-path="url(#pe1ee10f4d3)" d="M 255.626667 332.141412 
L 314.542222 332.141412 
L 314.542222 291.722823 
L 255.626667 291.722823 
L 255.626667 332.141412 
" style="fill:#760f27;stroke:#ffffff;stroke-width:2;"/>
    <path clip-path="url(#pe1ee10f4d3)" d="M 314.542222 332.141412 
L 373.457778 332.141412 
L 373.457778 291.722823 
L 314.542222 291.722823 
L 314.542222 332.141412 
" style="fill:#760f27;stroke:#ffffff;stroke-width:2;"/>
    <path clip-path="url(#pe1ee10f4d3)" d="M 373.457778 332.141412 
L 432.373333 332.141412 
L 432.373333 291.722823 
L 373.457778 291.722823 
L 373.457778 332.141412 
" style="fill:#760f27;stroke:#ffffff;stroke-width:2;"/>
    <path clip-path="url(#pe1ee10f4d3)" d="M 255.626667 291.722823 
L 314.542222 291.722823 
L 314.542222 251.304235 
L 255.626667 251.304235 
L 255.626667 291.722823 
" style="fill:#760f27;stroke:#ffffff;stroke-width:2;"/>
    <path clip-path="url(#pe1ee10f4d3)" d="M 314.542222 291.722823 
L 373.457778 291.722823 
L 373.457778 251.304235 
L 314.542222 251.304235 
L 314.542222 291.722823 
" style="fill:#760f27;stroke:#ffffff;stroke-width:2;"/>
    <path clip-path="url(#pe1ee10f4d3)" d="M 373.457778 291.722823 
L 432.373333 291.722823 
L 432.373333 251.304235 
L 373.457778 251.304235 
L 373.457778 291.722823 
" style="fill:#760f27;stroke:#ffffff;stroke-width:2;"/>
   </g>
   <g id="text_63">
    <!-- 100.0% -->
    <g style="fill:#ffffff;" transform="translate(257.953194 356.498206)scale(0.16 -0.16)">
     <use xlink:href="#Arial-BoldMT-31"/>
     <use x="55.615234" xlink:href="#Arial-BoldMT-30"/>
     <use x="111.230469" xlink:href="#Arial-BoldMT-30"/>
     <use x="166.845703" xlink:href="#Arial-BoldMT-2e"/>
     <use x="194.628906" xlink:href="#Arial-BoldMT-30"/>
     <use x="250.244141" xlink:href="#Arial-BoldMT-25"/>
    </g>
   </g>
   <g id="text_64">
    <!-- 100.0% -->
    <g style="fill:#ffffff;" transform="translate(316.86875 356.498206)scale(0.16 -0.16)">
     <use xlink:href="#Arial-BoldMT-31"/>
     <use x="55.615234" xlink:href="#Arial-BoldMT-30"/>
     <use x="111.230469" xlink:href="#Arial-BoldMT-30"/>
     <use x="166.845703" xlink:href="#Arial-BoldMT-2e"/>
     <use x="194.628906" xlink:href="#Arial-BoldMT-30"/>
     <use x="250.244141" xlink:href="#Arial-BoldMT-25"/>
    </g>
   </g>
   <g id="text_65">
    <!-- 100.0% -->
    <g style="fill:#ffffff;" transform="translate(375.784306 356.498206)scale(0.16 -0.16)">
     <use xlink:href="#Arial-BoldMT-31"/>
     <use x="55.615234" xlink:href="#Arial-BoldMT-30"/>
     <use x="111.230469" xlink:href="#Arial-BoldMT-30"/>
     <use x="166.845703" xlink:href="#Arial-BoldMT-2e"/>
     <use x="194.628906" xlink:href="#Arial-BoldMT-30"/>
     <use x="250.244141" xlink:href="#Arial-BoldMT-25"/>
    </g>
   </g>
   <g id="text_66">
    <!-- 100.0% -->
    <g style="fill:#ffffff;" transform="translate(257.953194 316.079617)scale(0.16 -0.16)">
     <use xlink:href="#Arial-BoldMT-31"/>
     <use x="55.615234" xlink:href="#Arial-BoldMT-30"/>
     <use x="111.230469" xlink:href="#Arial-BoldMT-30"/>
     <use x="166.845703" xlink:href="#Arial-BoldMT-2e"/>
     <use x="194.628906" xlink:href="#Arial-BoldMT-30"/>
     <use x="250.244141" xlink:href="#Arial-BoldMT-25"/>
    </g>
   </g>
   <g id="text_67">
    <!-- 100.0% -->
    <g style="fill:#ffffff;" transform="translate(316.86875 316.079617)scale(0.16 -0.16)">
     <use xlink:href="#Arial-BoldMT-31"/>
     <use x="55.615234" xlink:href="#Arial-BoldMT-30"/>
     <use x="111.230469" xlink:href="#Arial-BoldMT-30"/>
     <use x="166.845703" xlink:href="#Arial-BoldMT-2e"/>
     <use x="194.628906" xlink:href="#Arial-BoldMT-30"/>
     <use x="250.244141" xlink:href="#Arial-BoldMT-25"/>
    </g>
   </g>
   <g id="text_68">
    <!-- 100.0% -->
    <g style="fill:#ffffff;" transform="translate(375.784306 316.079617)scale(0.16 -0.16)">
     <use xlink:href="#Arial-BoldMT-31"/>
     <use x="55.615234" xlink:href="#Arial-BoldMT-30"/>
     <use x="111.230469" xlink:href="#Arial-BoldMT-30"/>
     <use x="166.845703" xlink:href="#Arial-BoldMT-2e"/>
     <use x="194.628906" xlink:href="#Arial-BoldMT-30"/>
     <use x="250.244141" xlink:href="#Arial-BoldMT-25"/>
    </g>
   </g>
   <g id="text_69">
    <!-- 100.0% -->
    <g style="fill:#ffffff;" transform="translate(257.953194 275.661029)scale(0.16 -0.16)">
     <use xlink:href="#Arial-BoldMT-31"/>
     <use x="55.615234" xlink:href="#Arial-BoldMT-30"/>
     <use x="111.230469" xlink:href="#Arial-BoldMT-30"/>
     <use x="166.845703" xlink:href="#Arial-BoldMT-2e"/>
     <use x="194.628906" xlink:href="#Arial-BoldMT-30"/>
     <use x="250.244141" xlink:href="#Arial-BoldMT-25"/>
    </g>
   </g>
   <g id="text_70">
    <!-- 100.0% -->
    <g style="fill:#ffffff;" transform="translate(316.86875 275.661029)scale(0.16 -0.16)">
     <use xlink:href="#Arial-BoldMT-31"/>
     <use x="55.615234" xlink:href="#Arial-BoldMT-30"/>
     <use x="111.230469" xlink:href="#Arial-BoldMT-30"/>
     <use x="166.845703" xlink:href="#Arial-BoldMT-2e"/>
     <use x="194.628906" xlink:href="#Arial-BoldMT-30"/>
     <use x="250.244141" xlink:href="#Arial-BoldMT-25"/>
    </g>
   </g>
   <g id="text_71">
    <!-- 100.0% -->
    <g style="fill:#ffffff;" transform="translate(375.784306 275.661029)scale(0.16 -0.16)">
     <use xlink:href="#Arial-BoldMT-31"/>
     <use x="55.615234" xlink:href="#Arial-BoldMT-30"/>
     <use x="111.230469" xlink:href="#Arial-BoldMT-30"/>
     <use x="166.845703" xlink:href="#Arial-BoldMT-2e"/>
     <use x="194.628906" xlink:href="#Arial-BoldMT-30"/>
     <use x="250.244141" xlink:href="#Arial-BoldMT-25"/>
    </g>
   </g>
  </g>
  <g id="text_72">
   <!-- Ship Sinking Probabilities (damage = 17, curse = 13) -->
   <defs>
    <path d="M 4.5 23 
L 13.421875 23.78125 
Q 14.0625 18.40625 16.375 14.96875 
Q 18.703125 11.53125 23.578125 9.40625 
Q 28.46875 7.28125 34.578125 7.28125 
Q 39.984375 7.28125 44.140625 8.890625 
Q 48.296875 10.5 50.3125 13.296875 
Q 52.34375 16.109375 52.34375 19.4375 
Q 52.34375 22.796875 50.390625 25.3125 
Q 48.4375 27.828125 43.953125 29.546875 
Q 41.0625 30.671875 31.203125 33.03125 
Q 21.34375 35.40625 17.390625 37.5 
Q 12.25 40.1875 9.734375 44.15625 
Q 7.234375 48.140625 7.234375 53.078125 
Q 7.234375 58.5 10.296875 63.203125 
Q 13.375 67.921875 19.28125 70.359375 
Q 25.203125 72.796875 32.421875 72.796875 
Q 40.375 72.796875 46.453125 70.234375 
Q 52.546875 67.671875 55.8125 62.6875 
Q 59.078125 57.71875 59.328125 51.421875 
L 50.25 50.734375 
Q 49.515625 57.515625 45.28125 60.984375 
Q 41.0625 64.453125 32.8125 64.453125 
Q 24.21875 64.453125 20.28125 61.296875 
Q 16.359375 58.15625 16.359375 53.71875 
Q 16.359375 49.859375 19.140625 47.359375 
Q 21.875 44.875 33.421875 42.265625 
Q 44.96875 39.65625 49.265625 37.703125 
Q 55.515625 34.8125 58.484375 30.390625 
Q 61.46875 25.984375 61.46875 20.21875 
Q 61.46875 14.5 58.203125 9.4375 
Q 54.9375 4.390625 48.796875 1.578125 
Q 42.671875 -1.21875 35.015625 -1.21875 
Q 25.296875 -1.21875 18.71875 1.609375 
Q 12.15625 4.4375 8.421875 10.125 
Q 4.6875 15.828125 4.5 23 
z
" id="ArialMT-53"/>
    <path d="M 6.59375 0 
L 6.59375 71.578125 
L 15.375 71.578125 
L 15.375 45.90625 
Q 21.53125 53.03125 30.90625 53.03125 
Q 36.671875 53.03125 40.921875 50.75 
Q 45.171875 48.484375 47 44.484375 
Q 48.828125 40.484375 48.828125 32.859375 
L 48.828125 0 
L 40.046875 0 
L 40.046875 32.859375 
Q 40.046875 39.453125 37.1875 42.453125 
Q 34.328125 45.453125 29.109375 45.453125 
Q 25.203125 45.453125 21.75 43.421875 
Q 18.3125 41.40625 16.84375 37.9375 
Q 15.375 34.46875 15.375 28.375 
L 15.375 0 
z
" id="ArialMT-68"/>
    <path d="M 6.640625 61.46875 
L 6.640625 71.578125 
L 15.4375 71.578125 
L 15.4375 61.46875 
z
M 6.640625 0 
L 6.640625 51.859375 
L 15.4375 51.859375 
L 15.4375 0 
z
" id="ArialMT-69"/>
    <path d="M 6.59375 -19.875 
L 6.59375 51.859375 
L 14.59375 51.859375 
L 14.59375 45.125 
Q 17.4375 49.078125 21 51.046875 
Q 24.5625 53.03125 29.640625 53.03125 
Q 36.28125 53.03125 41.359375 49.609375 
Q 46.4375 46.1875 49.015625 39.953125 
Q 51.609375 33.734375 51.609375 26.3125 
Q 51.609375 18.359375 48.75 11.984375 
Q 45.90625 5.609375 40.453125 2.21875 
Q 35.015625 -1.171875 29 -1.171875 
Q 24.609375 -1.171875 21.109375 0.6875 
Q 17.625 2.546875 15.375 5.375 
L 15.375 -19.875 
z
M 14.546875 25.640625 
Q 14.546875 15.625 18.59375 10.84375 
Q 22.65625 6.0625 28.421875 6.0625 
Q 34.28125 6.0625 38.453125 11.015625 
Q 42.625 15.96875 42.625 26.375 
Q 42.625 36.28125 38.546875 41.203125 
Q 34.46875 46.140625 28.8125 46.140625 
Q 23.1875 46.140625 18.859375 40.890625 
Q 14.546875 35.640625 14.546875 25.640625 
z
" id="ArialMT-70"/>
    <path d="M 6.59375 0 
L 6.59375 51.859375 
L 14.5 51.859375 
L 14.5 44.484375 
Q 20.21875 53.03125 31 53.03125 
Q 35.6875 53.03125 39.625 51.34375 
Q 43.5625 49.65625 45.515625 46.921875 
Q 47.46875 44.1875 48.25 40.4375 
Q 48.734375 37.984375 48.734375 31.890625 
L 48.734375 0 
L 39.9375 0 
L 39.9375 31.546875 
Q 39.9375 36.921875 38.90625 39.578125 
Q 37.890625 42.234375 35.28125 43.8125 
Q 32.671875 45.40625 29.15625 45.40625 
Q 23.53125 45.40625 19.453125 41.84375 
Q 15.375 38.28125 15.375 28.328125 
L 15.375 0 
z
" id="ArialMT-6e"/>
    <path d="M 6.640625 0 
L 6.640625 71.578125 
L 15.4375 71.578125 
L 15.4375 30.765625 
L 36.234375 51.859375 
L 47.609375 51.859375 
L 27.78125 32.625 
L 49.609375 0 
L 38.765625 0 
L 21.625 26.515625 
L 15.4375 20.5625 
L 15.4375 0 
z
" id="ArialMT-6b"/>
    <path d="M 7.71875 0 
L 7.71875 71.578125 
L 34.71875 71.578125 
Q 41.84375 71.578125 45.609375 70.90625 
Q 50.875 70.015625 54.4375 67.546875 
Q 58.015625 65.09375 60.1875 60.640625 
Q 62.359375 56.203125 62.359375 50.875 
Q 62.359375 41.75 56.546875 35.421875 
Q 50.734375 29.109375 35.546875 29.109375 
L 17.1875 29.109375 
L 17.1875 0 
z
M 17.1875 37.546875 
L 35.6875 37.546875 
Q 44.875 37.546875 48.734375 40.96875 
Q 52.59375 44.390625 52.59375 50.59375 
Q 52.59375 55.078125 50.3125 58.265625 
Q 48.046875 61.46875 44.34375 62.5 
Q 41.9375 63.140625 35.5 63.140625 
L 17.1875 63.140625 
z
" id="ArialMT-50"/>
    <path d="M 3.328125 25.921875 
Q 3.328125 40.328125 11.328125 47.265625 
Q 18.015625 53.03125 27.640625 53.03125 
Q 38.328125 53.03125 45.109375 46.015625 
Q 51.90625 39.015625 51.90625 26.65625 
Q 51.90625 16.65625 48.90625 10.90625 
Q 45.90625 5.171875 40.15625 2 
Q 34.421875 -1.171875 27.640625 -1.171875 
Q 16.75 -1.171875 10.03125 5.8125 
Q 3.328125 12.796875 3.328125 25.921875 
z
M 12.359375 25.921875 
Q 12.359375 15.96875 16.703125 11.015625 
Q 21.046875 6.0625 27.640625 6.0625 
Q 34.1875 6.0625 38.53125 11.03125 
Q 42.875 16.015625 42.875 26.21875 
Q 42.875 35.84375 38.5 40.796875 
Q 34.125 45.75 27.640625 45.75 
Q 21.046875 45.75 16.703125 40.8125 
Q 12.359375 35.890625 12.359375 25.921875 
z
" id="ArialMT-6f"/>
    <path d="M 14.703125 0 
L 6.546875 0 
L 6.546875 71.578125 
L 15.328125 71.578125 
L 15.328125 46.046875 
Q 20.90625 53.03125 29.546875 53.03125 
Q 34.328125 53.03125 38.59375 51.09375 
Q 42.875 49.171875 45.625 45.671875 
Q 48.390625 42.1875 49.953125 37.25 
Q 51.515625 32.328125 51.515625 26.703125 
Q 51.515625 13.375 44.921875 6.09375 
Q 38.328125 -1.171875 29.109375 -1.171875 
Q 19.921875 -1.171875 14.703125 6.5 
z
M 14.59375 26.3125 
Q 14.59375 17 17.140625 12.84375 
Q 21.296875 6.0625 28.375 6.0625 
Q 34.125 6.0625 38.328125 11.0625 
Q 42.53125 16.0625 42.53125 25.984375 
Q 42.53125 36.140625 38.5 40.96875 
Q 34.46875 45.796875 28.765625 45.796875 
Q 23 45.796875 18.796875 40.796875 
Q 14.59375 35.796875 14.59375 26.3125 
z
" id="ArialMT-62"/>
    <path d="M 6.390625 0 
L 6.390625 71.578125 
L 15.1875 71.578125 
L 15.1875 0 
z
" id="ArialMT-6c"/>
    <path d="M 25.78125 7.859375 
L 27.046875 0.09375 
Q 23.34375 -0.6875 20.40625 -0.6875 
Q 15.625 -0.6875 12.984375 0.828125 
Q 10.359375 2.34375 9.28125 4.8125 
Q 8.203125 7.28125 8.203125 15.1875 
L 8.203125 45.015625 
L 1.765625 45.015625 
L 1.765625 51.859375 
L 8.203125 51.859375 
L 8.203125 64.703125 
L 16.9375 69.96875 
L 16.9375 51.859375 
L 25.78125 51.859375 
L 25.78125 45.015625 
L 16.9375 45.015625 
L 16.9375 14.703125 
Q 16.9375 10.9375 17.40625 9.859375 
Q 17.875 8.796875 18.921875 8.15625 
Q 19.96875 7.515625 21.921875 7.515625 
Q 23.390625 7.515625 25.78125 7.859375 
z
" id="ArialMT-74"/>
    <path d="M 23.390625 -21.046875 
Q 16.109375 -11.859375 11.078125 0.4375 
Q 6.0625 12.75 6.0625 25.921875 
Q 6.0625 37.546875 9.8125 48.1875 
Q 14.203125 60.546875 23.390625 72.796875 
L 29.6875 72.796875 
Q 23.78125 62.640625 21.875 58.296875 
Q 18.890625 51.5625 17.1875 44.234375 
Q 15.09375 35.109375 15.09375 25.875 
Q 15.09375 2.390625 29.6875 -21.046875 
z
" id="ArialMT-28"/>
    <path d="M 52.828125 42.09375 
L 5.5625 42.09375 
L 5.5625 50.296875 
L 52.828125 50.296875 
z
M 52.828125 20.359375 
L 5.5625 20.359375 
L 5.5625 28.5625 
L 52.828125 28.5625 
z
" id="ArialMT-3d"/>
    <path d="M 4.734375 62.203125 
L 4.734375 70.65625 
L 51.078125 70.65625 
L 51.078125 63.8125 
Q 44.234375 56.546875 37.515625 44.484375 
Q 30.8125 32.421875 27.15625 19.671875 
Q 24.515625 10.6875 23.78125 0 
L 14.75 0 
Q 14.890625 8.453125 18.0625 20.40625 
Q 21.234375 32.375 27.171875 43.484375 
Q 33.109375 54.59375 39.796875 62.203125 
z
" id="ArialMT-37"/>
    <path d="M 8.890625 0 
L 8.890625 10.015625 
L 18.890625 10.015625 
L 18.890625 0 
Q 18.890625 -5.515625 16.9375 -8.90625 
Q 14.984375 -12.3125 10.75 -14.15625 
L 8.296875 -10.40625 
Q 11.078125 -9.1875 12.390625 -6.8125 
Q 13.71875 -4.4375 13.875 0 
z
" id="ArialMT-2c"/>
    <path d="M 40.578125 0 
L 40.578125 7.625 
Q 34.515625 -1.171875 24.125 -1.171875 
Q 19.53125 -1.171875 15.546875 0.578125 
Q 11.578125 2.34375 9.640625 5 
Q 7.71875 7.671875 6.9375 11.53125 
Q 6.390625 14.109375 6.390625 19.734375 
L 6.390625 51.859375 
L 15.1875 51.859375 
L 15.1875 23.09375 
Q 15.1875 16.21875 15.71875 13.8125 
Q 16.546875 10.359375 19.234375 8.375 
Q 21.921875 6.390625 25.875 6.390625 
Q 29.828125 6.390625 33.296875 8.421875 
Q 36.765625 10.453125 38.203125 13.9375 
Q 39.65625 17.4375 39.65625 24.078125 
L 39.65625 51.859375 
L 48.4375 51.859375 
L 48.4375 0 
z
" id="ArialMT-75"/>
    <path d="M 12.359375 -21.046875 
L 6.0625 -21.046875 
Q 20.65625 2.390625 20.65625 25.875 
Q 20.65625 35.0625 18.5625 44.09375 
Q 16.890625 51.421875 13.921875 58.15625 
Q 12.015625 62.546875 6.0625 72.796875 
L 12.359375 72.796875 
Q 21.53125 60.546875 25.921875 48.1875 
Q 29.6875 37.546875 29.6875 25.921875 
Q 29.6875 12.75 24.625 0.4375 
Q 19.578125 -11.859375 12.359375 -21.046875 
z
" id="ArialMT-29"/>
   </defs>
   <g style="fill:#262626;" transform="translate(43.854375 26.11125)scale(0.24 -0.24)">
    <use xlink:href="#ArialMT-53"/>
    <use x="66.699219" xlink:href="#ArialMT-68"/>
    <use x="122.314453" xlink:href="#ArialMT-69"/>
    <use x="144.53125" xlink:href="#ArialMT-70"/>
    <use x="200.146484" xlink:href="#ArialMT-20"/>
    <use x="227.929688" xlink:href="#ArialMT-53"/>
    <use x="294.628906" xlink:href="#ArialMT-69"/>
    <use x="316.845703" xlink:href="#ArialMT-6e"/>
    <use x="372.460938" xlink:href="#ArialMT-6b"/>
    <use x="422.460938" xlink:href="#ArialMT-69"/>
    <use x="444.677734" xlink:href="#ArialMT-6e"/>
    <use x="500.292969" xlink:href="#ArialMT-67"/>
    <use x="555.908203" xlink:href="#ArialMT-20"/>
    <use x="583.691406" xlink:href="#ArialMT-50"/>
    <use x="650.390625" xlink:href="#ArialMT-72"/>
    <use x="683.691406" xlink:href="#ArialMT-6f"/>
    <use x="739.306641" xlink:href="#ArialMT-62"/>
    <use x="794.921875" xlink:href="#ArialMT-61"/>
    <use x="850.537109" xlink:href="#ArialMT-62"/>
    <use x="906.152344" xlink:href="#ArialMT-69"/>
    <use x="928.369141" xlink:href="#ArialMT-6c"/>
    <use x="950.585938" xlink:href="#ArialMT-69"/>
    <use x="972.802734" xlink:href="#ArialMT-74"/>
    <use x="1000.585938" xlink:href="#ArialMT-69"/>
    <use x="1022.802734" xlink:href="#ArialMT-65"/>
    <use x="1078.417969" xlink:href="#ArialMT-73"/>
    <use x="1128.417969" xlink:href="#ArialMT-20"/>
    <use x="1156.201172" xlink:href="#ArialMT-28"/>
    <use x="1189.501953" xlink:href="#ArialMT-64"/>
    <use x="1245.117188" xlink:href="#ArialMT-61"/>
    <use x="1300.732422" xlink:href="#ArialMT-6d"/>
    <use x="1384.033203" xlink:href="#ArialMT-61"/>
    <use x="1439.648438" xlink:href="#ArialMT-67"/>
    <use x="1495.263672" xlink:href="#ArialMT-65"/>
    <use x="1550.878906" xlink:href="#ArialMT-20"/>
    <use x="1578.662109" xlink:href="#ArialMT-3d"/>
    <use x="1637.060547" xlink:href="#ArialMT-20"/>
    <use x="1664.84375" xlink:href="#ArialMT-31"/>
    <use x="1720.458984" xlink:href="#ArialMT-37"/>
    <use x="1776.074219" xlink:href="#ArialMT-2c"/>
    <use x="1803.857422" xlink:href="#ArialMT-20"/>
    <use x="1831.640625" xlink:href="#ArialMT-63"/>
    <use x="1881.640625" xlink:href="#ArialMT-75"/>
    <use x="1937.255859" xlink:href="#ArialMT-72"/>
    <use x="1970.556641" xlink:href="#ArialMT-73"/>
    <use x="2020.556641" xlink:href="#ArialMT-65"/>
    <use x="2076.171875" xlink:href="#ArialMT-20"/>
    <use x="2103.955078" xlink:href="#ArialMT-3d"/>
    <use x="2162.353516" xlink:href="#ArialMT-20"/>
    <use x="2190.136719" xlink:href="#ArialMT-31"/>
    <use x="2245.751953" xlink:href="#ArialMT-33"/>
    <use x="2301.367188" xlink:href="#ArialMT-29"/>
   </g>
  </g>
  <g id="text_73">
   <!-- Prior Curses -->
   <defs>
    <path d="M 58.796875 25.09375 
L 68.265625 22.703125 
Q 65.28125 11.03125 57.546875 4.90625 
Q 49.8125 -1.21875 38.625 -1.21875 
Q 27.046875 -1.21875 19.796875 3.484375 
Q 12.546875 8.203125 8.765625 17.140625 
Q 4.984375 26.078125 4.984375 36.328125 
Q 4.984375 47.515625 9.25 55.828125 
Q 13.53125 64.15625 21.40625 68.46875 
Q 29.296875 72.796875 38.765625 72.796875 
Q 49.515625 72.796875 56.828125 67.328125 
Q 64.15625 61.859375 67.046875 51.953125 
L 57.71875 49.75 
Q 55.21875 57.5625 50.484375 61.125 
Q 45.75 64.703125 38.578125 64.703125 
Q 30.328125 64.703125 24.78125 60.734375 
Q 19.234375 56.78125 16.984375 50.109375 
Q 14.75 43.453125 14.75 36.375 
Q 14.75 27.25 17.40625 20.4375 
Q 20.0625 13.625 25.671875 10.25 
Q 31.296875 6.890625 37.84375 6.890625 
Q 45.796875 6.890625 51.3125 11.46875 
Q 56.84375 16.0625 58.796875 25.09375 
z
" id="ArialMT-43"/>
   </defs>
   <g style="fill:#262626;" transform="translate(273.992344 47.52)scale(0.18 -0.18)">
    <use xlink:href="#ArialMT-50"/>
    <use x="66.699219" xlink:href="#ArialMT-72"/>
    <use x="100" xlink:href="#ArialMT-69"/>
    <use x="122.216797" xlink:href="#ArialMT-6f"/>
    <use x="177.832031" xlink:href="#ArialMT-72"/>
    <use x="211.132812" xlink:href="#ArialMT-20"/>
    <use x="238.916016" xlink:href="#ArialMT-43"/>
    <use x="311.132812" xlink:href="#ArialMT-75"/>
    <use x="366.748047" xlink:href="#ArialMT-72"/>
    <use x="400.048828" xlink:href="#ArialMT-73"/>
    <use x="450.048828" xlink:href="#ArialMT-65"/>
    <use x="505.664062" xlink:href="#ArialMT-73"/>
   </g>
  </g>
  <g id="text_74">
   <!-- Prior Damage -->
   <g style="fill:#262626;" transform="translate(25.844062 271.517344)rotate(-90)scale(0.18 -0.18)">
    <use xlink:href="#ArialMT-50"/>
    <use x="66.699219" xlink:href="#ArialMT-72"/>
    <use x="100" xlink:href="#ArialMT-69"/>
    <use x="122.216797" xlink:href="#ArialMT-6f"/>
    <use x="177.832031" xlink:href="#ArialMT-72"/>
    <use x="211.132812" xlink:href="#ArialMT-20"/>
    <use x="238.916016" xlink:href="#ArialMT-44"/>
    <use x="311.132812" xlink:href="#ArialMT-61"/>
    <use x="366.748047" xlink:href="#ArialMT-6d"/>
    <use x="450.048828" xlink:href="#ArialMT-61"/>
    <use x="505.664062" xlink:href="#ArialMT-67"/>
    <use x="561.279297" xlink:href="#ArialMT-65"/>
   </g>
  </g>
 </g>
 <defs>
  <clipPath id="peca64ec8ae">
   <rect height="121.255765" width="176.746667" x="59.44" y="77.76"/>
  </clipPath>
  <clipPath id="p495104a5c0">
   <rect height="121.255765" width="176.746667" x="255.626667" y="77.76"/>
  </clipPath>
  <clipPath id="pa3d48dbc5a">
   <rect height="121.255765" width="176.746667" x="451.813333" y="77.76"/>
  </clipPath>
  <clipPath id="p520bcdef22">
   <rect height="121.255765" width="176.746667" x="59.44" y="251.304235"/>
  </clipPath>
  <clipPath id="pe1ee10f4d3">
   <rect height="121.255765" width="176.746667" x="255.626667" y="251.304235"/>
  </clipPath>
 </defs>
</svg>
