<?xml version="1.0" encoding="utf-8" standalone="no"?>
<!DOCTYPE svg PUBLIC "-//W3C//DTD SVG 1.1//EN"
  "http://www.w3.org/Graphics/SVG/1.1/DTD/svg11.dtd">
<!-- Created with matplotlib (http://matplotlib.org/) -->
<svg height="432pt" version="1.1" viewBox="0 0 648 432" width="648pt" xmlns="http://www.w3.org/2000/svg" xmlns:xlink="http://www.w3.org/1999/xlink">
 <defs>
  <style type="text/css">
*{stroke-linecap:butt;stroke-linejoin:round;}
  </style>
 </defs>
 <g id="figure_1">
  <g id="patch_1">
   <path d="M 0 432 
L 648 432 
L 648 0 
L 0 0 
z
" style="fill:#ffffff;"/>
  </g>
  <g id="axes_1">
   <g id="patch_2">
    <path d="M 59.44 199.015765 
L 236.186667 199.015765 
L 236.186667 77.76 
L 59.44 77.76 
z
" style="fill:#eaeaf2;"/>
   </g>
   <g id="matplotlib.axis_1">
    <g id="xtick_1">
     <g id="line2d_1"/>
     <g id="text_1">
      <!-- 0 -->
      <defs>
       <path d="M 4.15625 35.296875 
Q 4.15625 48 6.765625 55.734375 
Q 9.375 63.484375 14.515625 67.671875 
Q 19.671875 71.875 27.484375 71.875 
Q 33.25 71.875 37.59375 69.546875 
Q 41.9375 67.234375 44.765625 62.859375 
Q 47.609375 58.5 49.21875 52.21875 
Q 50.828125 45.953125 50.828125 35.296875 
Q 50.828125 22.703125 48.234375 14.96875 
Q 45.65625 7.234375 40.5 3 
Q 35.359375 -1.21875 27.484375 -1.21875 
Q 17.140625 -1.21875 11.234375 6.203125 
Q 4.15625 15.140625 4.15625 35.296875 
M 13.1875 35.296875 
Q 13.1875 17.671875 17.3125 11.828125 
Q 21.4375 6 27.484375 6 
Q 33.546875 6 37.671875 11.859375 
Q 41.796875 17.71875 41.796875 35.296875 
Q 41.796875 52.984375 37.671875 58.78125 
Q 33.546875 64.59375 27.390625 64.59375 
Q 21.34375 64.59375 17.71875 59.46875 
Q 13.1875 52.9375 13.1875 35.296875 
" id="ArialMT-30"/>
      </defs>
      <g style="fill:#262626;" transform="translate(84.727075 67.77875)scale(0.15 -0.15)">
       <use xlink:href="#ArialMT-30"/>
      </g>
     </g>
    </g>
    <g id="xtick_2">
     <g id="line2d_2"/>
     <g id="text_2">
      <!-- 1 -->
      <defs>
       <path d="M 37.25 0 
L 28.46875 0 
L 28.46875 56 
Q 25.296875 52.984375 20.140625 49.953125 
Q 14.984375 46.921875 10.890625 45.40625 
L 10.890625 53.90625 
Q 18.265625 57.375 23.78125 62.296875 
Q 29.296875 67.234375 31.59375 71.875 
L 37.25 71.875 
z
" id="ArialMT-31"/>
      </defs>
      <g style="fill:#262626;" transform="translate(143.64263 67.77875)scale(0.15 -0.15)">
       <use xlink:href="#ArialMT-31"/>
      </g>
     </g>
    </g>
    <g id="xtick_3">
     <g id="line2d_3"/>
     <g id="text_3">
      <!-- 2 -->
      <defs>
       <path d="M 50.34375 8.453125 
L 50.34375 0 
L 3.03125 0 
Q 2.9375 3.171875 4.046875 6.109375 
Q 5.859375 10.9375 9.828125 15.625 
Q 13.8125 20.3125 21.34375 26.46875 
Q 33.015625 36.03125 37.109375 41.625 
Q 41.21875 47.21875 41.21875 52.203125 
Q 41.21875 57.421875 37.46875 61 
Q 33.734375 64.59375 27.734375 64.59375 
Q 21.390625 64.59375 17.578125 60.78125 
Q 13.765625 56.984375 13.71875 50.25 
L 4.6875 51.171875 
Q 5.609375 61.28125 11.65625 66.578125 
Q 17.71875 71.875 27.9375 71.875 
Q 38.234375 71.875 44.234375 66.15625 
Q 50.25 60.453125 50.25 52 
Q 50.25 47.703125 48.484375 43.546875 
Q 46.734375 39.40625 42.65625 34.8125 
Q 38.578125 30.21875 29.109375 22.21875 
Q 21.1875 15.578125 18.9375 13.203125 
Q 16.703125 10.84375 15.234375 8.453125 
z
" id="ArialMT-32"/>
      </defs>
      <g style="fill:#262626;" transform="translate(202.558186 67.77875)scale(0.15 -0.15)">
       <use xlink:href="#ArialMT-32"/>
      </g>
     </g>
    </g>
    <g id="text_4">
     <!-- Draw 1 damage card -->
     <defs>
      <path d="M 7.71875 0 
L 7.71875 71.578125 
L 32.375 71.578125 
Q 40.71875 71.578125 45.125 70.5625 
Q 51.265625 69.140625 55.609375 65.4375 
Q 61.28125 60.640625 64.078125 53.1875 
Q 66.890625 45.75 66.890625 36.1875 
Q 66.890625 28.03125 64.984375 21.734375 
Q 63.09375 15.4375 60.109375 11.296875 
Q 57.125 7.171875 53.578125 4.796875 
Q 50.046875 2.4375 45.046875 1.21875 
Q 40.046875 0 33.546875 0 
z
M 17.1875 8.453125 
L 32.46875 8.453125 
Q 39.546875 8.453125 43.578125 9.765625 
Q 47.609375 11.078125 50 13.484375 
Q 53.375 16.84375 55.25 22.53125 
Q 57.125 28.21875 57.125 36.328125 
Q 57.125 47.5625 53.4375 53.59375 
Q 49.75 59.625 44.484375 61.671875 
Q 40.671875 63.140625 32.234375 63.140625 
L 17.1875 63.140625 
z
" id="ArialMT-44"/>
      <path d="M 6.5 0 
L 6.5 51.859375 
L 14.40625 51.859375 
L 14.40625 44 
Q 17.4375 49.515625 20 51.265625 
Q 22.5625 53.03125 25.640625 53.03125 
Q 30.078125 53.03125 34.671875 50.203125 
L 31.640625 42.046875 
Q 28.421875 43.953125 25.203125 43.953125 
Q 22.3125 43.953125 20.015625 42.21875 
Q 17.71875 40.484375 16.75 37.40625 
Q 15.28125 32.71875 15.28125 27.15625 
L 15.28125 0 
z
" id="ArialMT-72"/>
      <path d="M 40.4375 6.390625 
Q 35.546875 2.25 31.03125 0.53125 
Q 26.515625 -1.171875 21.34375 -1.171875 
Q 12.796875 -1.171875 8.203125 3 
Q 3.609375 7.171875 3.609375 13.671875 
Q 3.609375 17.484375 5.34375 20.625 
Q 7.078125 23.78125 9.890625 25.6875 
Q 12.703125 27.59375 16.21875 28.5625 
Q 18.796875 29.25 24.03125 29.890625 
Q 34.671875 31.15625 39.703125 32.90625 
Q 39.75 34.71875 39.75 35.203125 
Q 39.75 40.578125 37.25 42.78125 
Q 33.890625 45.75 27.25 45.75 
Q 21.046875 45.75 18.09375 43.578125 
Q 15.140625 41.40625 13.71875 35.890625 
L 5.125 37.0625 
Q 6.296875 42.578125 8.984375 45.96875 
Q 11.671875 49.359375 16.75 51.1875 
Q 21.828125 53.03125 28.515625 53.03125 
Q 35.15625 53.03125 39.296875 51.46875 
Q 43.453125 49.90625 45.40625 47.53125 
Q 47.359375 45.171875 48.140625 41.546875 
Q 48.578125 39.3125 48.578125 33.453125 
L 48.578125 21.734375 
Q 48.578125 9.46875 49.140625 6.21875 
Q 49.703125 2.984375 51.375 0 
L 42.1875 0 
Q 40.828125 2.734375 40.4375 6.390625 
M 39.703125 26.03125 
Q 34.90625 24.078125 25.34375 22.703125 
Q 19.921875 21.921875 17.671875 20.9375 
Q 15.4375 19.96875 14.203125 18.09375 
Q 12.984375 16.21875 12.984375 13.921875 
Q 12.984375 10.40625 15.640625 8.0625 
Q 18.3125 5.71875 23.4375 5.71875 
Q 28.515625 5.71875 32.46875 7.9375 
Q 36.421875 10.15625 38.28125 14.015625 
Q 39.703125 17 39.703125 22.796875 
z
" id="ArialMT-61"/>
      <path d="M 16.15625 0 
L 0.296875 51.859375 
L 9.375 51.859375 
L 17.625 21.921875 
L 20.703125 10.796875 
Q 20.90625 11.625 23.390625 21.484375 
L 31.640625 51.859375 
L 40.671875 51.859375 
L 48.4375 21.78125 
L 51.03125 11.859375 
L 54 21.875 
L 62.890625 51.859375 
L 71.4375 51.859375 
L 55.21875 0 
L 46.09375 0 
L 37.84375 31.0625 
L 35.84375 39.890625 
L 25.34375 0 
z
" id="ArialMT-77"/>
      <path id="ArialMT-20"/>
      <path d="M 40.234375 0 
L 40.234375 6.546875 
Q 35.296875 -1.171875 25.734375 -1.171875 
Q 19.53125 -1.171875 14.328125 2.25 
Q 9.125 5.671875 6.265625 11.796875 
Q 3.421875 17.921875 3.421875 25.875 
Q 3.421875 33.640625 6 39.96875 
Q 8.59375 46.296875 13.765625 49.65625 
Q 18.953125 53.03125 25.34375 53.03125 
Q 30.03125 53.03125 33.6875 51.046875 
Q 37.359375 49.078125 39.65625 45.90625 
L 39.65625 71.578125 
L 48.390625 71.578125 
L 48.390625 0 
z
M 12.453125 25.875 
Q 12.453125 15.921875 16.640625 10.984375 
Q 20.84375 6.0625 26.5625 6.0625 
Q 32.328125 6.0625 36.34375 10.765625 
Q 40.375 15.484375 40.375 25.140625 
Q 40.375 35.796875 36.265625 40.765625 
Q 32.171875 45.75 26.171875 45.75 
Q 20.3125 45.75 16.375 40.96875 
Q 12.453125 36.1875 12.453125 25.875 
" id="ArialMT-64"/>
      <path d="M 6.59375 0 
L 6.59375 51.859375 
L 14.453125 51.859375 
L 14.453125 44.578125 
Q 16.890625 48.390625 20.9375 50.703125 
Q 25 53.03125 30.171875 53.03125 
Q 35.9375 53.03125 39.625 50.640625 
Q 43.3125 48.25 44.828125 43.953125 
Q 50.984375 53.03125 60.84375 53.03125 
Q 68.5625 53.03125 72.703125 48.75 
Q 76.859375 44.484375 76.859375 35.59375 
L 76.859375 0 
L 68.109375 0 
L 68.109375 32.671875 
Q 68.109375 37.9375 67.25 40.25 
Q 66.40625 42.578125 64.15625 43.984375 
Q 61.921875 45.40625 58.890625 45.40625 
Q 53.421875 45.40625 49.796875 41.765625 
Q 46.1875 38.140625 46.1875 30.125 
L 46.1875 0 
L 37.40625 0 
L 37.40625 33.6875 
Q 37.40625 39.546875 35.25 42.46875 
Q 33.109375 45.40625 28.21875 45.40625 
Q 24.515625 45.40625 21.359375 43.453125 
Q 18.21875 41.5 16.796875 37.734375 
Q 15.375 33.984375 15.375 26.90625 
L 15.375 0 
z
" id="ArialMT-6d"/>
      <path d="M 4.984375 -4.296875 
L 13.53125 -5.5625 
Q 14.0625 -9.515625 16.5 -11.328125 
Q 19.78125 -13.765625 25.4375 -13.765625 
Q 31.546875 -13.765625 34.859375 -11.328125 
Q 38.1875 -8.890625 39.359375 -4.5 
Q 40.046875 -1.8125 39.984375 6.78125 
Q 34.234375 0 25.640625 0 
Q 14.9375 0 9.078125 7.71875 
Q 3.21875 15.4375 3.21875 26.21875 
Q 3.21875 33.640625 5.90625 39.90625 
Q 8.59375 46.1875 13.6875 49.609375 
Q 18.796875 53.03125 25.6875 53.03125 
Q 34.859375 53.03125 40.828125 45.609375 
L 40.828125 51.859375 
L 48.921875 51.859375 
L 48.921875 7.03125 
Q 48.921875 -5.078125 46.453125 -10.125 
Q 44 -15.1875 38.640625 -18.109375 
Q 33.296875 -21.046875 25.484375 -21.046875 
Q 16.21875 -21.046875 10.5 -16.875 
Q 4.78125 -12.703125 4.984375 -4.296875 
M 12.25 26.859375 
Q 12.25 16.65625 16.296875 11.96875 
Q 20.359375 7.28125 26.46875 7.28125 
Q 32.515625 7.28125 36.609375 11.9375 
Q 40.71875 16.609375 40.71875 26.5625 
Q 40.71875 36.078125 36.5 40.90625 
Q 32.28125 45.75 26.3125 45.75 
Q 20.453125 45.75 16.34375 40.984375 
Q 12.25 36.234375 12.25 26.859375 
" id="ArialMT-67"/>
      <path d="M 42.09375 16.703125 
L 51.171875 15.578125 
Q 49.03125 7.625 43.21875 3.21875 
Q 37.40625 -1.171875 28.375 -1.171875 
Q 17 -1.171875 10.328125 5.828125 
Q 3.65625 12.84375 3.65625 25.484375 
Q 3.65625 38.578125 10.390625 45.796875 
Q 17.140625 53.03125 27.875 53.03125 
Q 38.28125 53.03125 44.875 45.953125 
Q 51.46875 38.875 51.46875 26.03125 
Q 51.46875 25.25 51.421875 23.6875 
L 12.75 23.6875 
Q 13.234375 15.140625 17.578125 10.59375 
Q 21.921875 6.0625 28.421875 6.0625 
Q 33.25 6.0625 36.671875 8.59375 
Q 40.09375 11.140625 42.09375 16.703125 
M 13.234375 30.90625 
L 42.1875 30.90625 
Q 41.609375 37.453125 38.875 40.71875 
Q 34.671875 45.796875 27.984375 45.796875 
Q 21.921875 45.796875 17.796875 41.75 
Q 13.671875 37.703125 13.234375 30.90625 
" id="ArialMT-65"/>
      <path d="M 40.4375 19 
L 49.078125 17.875 
Q 47.65625 8.9375 41.8125 3.875 
Q 35.984375 -1.171875 27.484375 -1.171875 
Q 16.84375 -1.171875 10.375 5.78125 
Q 3.90625 12.75 3.90625 25.734375 
Q 3.90625 34.125 6.6875 40.421875 
Q 9.46875 46.734375 15.15625 49.875 
Q 20.84375 53.03125 27.546875 53.03125 
Q 35.984375 53.03125 41.359375 48.75 
Q 46.734375 44.484375 48.25 36.625 
L 39.703125 35.296875 
Q 38.484375 40.53125 35.375 43.15625 
Q 32.28125 45.796875 27.875 45.796875 
Q 21.234375 45.796875 17.078125 41.03125 
Q 12.9375 36.28125 12.9375 25.984375 
Q 12.9375 15.53125 16.9375 10.796875 
Q 20.953125 6.0625 27.390625 6.0625 
Q 32.5625 6.0625 36.03125 9.234375 
Q 39.5 12.40625 40.4375 19 
" id="ArialMT-63"/>
     </defs>
     <g style="fill:#262626;" transform="translate(71.240443 214.87514)scale(0.165 -0.165)">
      <use xlink:href="#ArialMT-44"/>
      <use x="72.216797" xlink:href="#ArialMT-72"/>
      <use x="105.517578" xlink:href="#ArialMT-61"/>
      <use x="161.132812" xlink:href="#ArialMT-77"/>
      <use x="233.349609" xlink:href="#ArialMT-20"/>
      <use x="261.132812" xlink:href="#ArialMT-31"/>
      <use x="316.748047" xlink:href="#ArialMT-20"/>
      <use x="344.53125" xlink:href="#ArialMT-64"/>
      <use x="400.146484" xlink:href="#ArialMT-61"/>
      <use x="455.761719" xlink:href="#ArialMT-6d"/>
      <use x="539.0625" xlink:href="#ArialMT-61"/>
      <use x="594.677734" xlink:href="#ArialMT-67"/>
      <use x="650.292969" xlink:href="#ArialMT-65"/>
      <use x="705.908203" xlink:href="#ArialMT-20"/>
      <use x="733.691406" xlink:href="#ArialMT-63"/>
      <use x="783.691406" xlink:href="#ArialMT-61"/>
      <use x="839.306641" xlink:href="#ArialMT-72"/>
      <use x="872.607422" xlink:href="#ArialMT-64"/>
     </g>
    </g>
   </g>
   <g id="matplotlib.axis_2">
    <g id="ytick_1">
     <g id="line2d_4"/>
     <g id="text_5">
      <!-- 2 -->
      <g style="fill:#262626;" transform="translate(49.45875 181.779518)rotate(-90)scale(0.15 -0.15)">
       <use xlink:href="#ArialMT-32"/>
      </g>
     </g>
    </g>
    <g id="ytick_2">
     <g id="line2d_5"/>
     <g id="text_6">
      <!-- 1 -->
      <g style="fill:#262626;" transform="translate(49.45875 141.360929)rotate(-90)scale(0.15 -0.15)">
       <use xlink:href="#ArialMT-31"/>
      </g>
     </g>
    </g>
    <g id="ytick_3">
     <g id="line2d_6"/>
     <g id="text_7">
      <!-- 0 -->
      <g style="fill:#262626;" transform="translate(49.45875 100.942341)rotate(-90)scale(0.15 -0.15)">
       <use xlink:href="#ArialMT-30"/>
      </g>
     </g>
    </g>
   </g>
   <g id="QuadMesh_1">
    <path clip-path="url(#p6e95d22c06)" d="M 59.44 199.015765 
L 118.355556 199.015765 
L 118.355556 158.597177 
L 59.44 158.597177 
L 59.44 199.015765 
" style="fill:#85c286;stroke:#ffffff;stroke-width:2;"/>
    <path clip-path="url(#p6e95d22c06)" d="M 118.355556 199.015765 
L 177.271111 199.015765 
L 177.271111 158.597177 
L 118.355556 158.597177 
L 118.355556 199.015765 
" style="fill:#84bf7f;stroke:#ffffff;stroke-width:2;"/>
    <path clip-path="url(#p6e95d22c06)" d="M 177.271111 199.015765 
L 236.186667 199.015765 
L 236.186667 158.597177 
L 177.271111 158.597177 
L 177.271111 199.015765 
" style="fill:#964953;stroke:#ffffff;stroke-width:2;"/>
    <path clip-path="url(#p6e95d22c06)" d="M 59.44 158.597177 
L 118.355556 158.597177 
L 118.355556 118.178588 
L 59.44 118.178588 
L 59.44 158.597177 
" style="fill:#ebf1fd;stroke:#ffffff;stroke-width:2;"/>
    <path clip-path="url(#p6e95d22c06)" d="M 118.355556 158.597177 
L 177.271111 158.597177 
L 177.271111 118.178588 
L 118.355556 118.178588 
L 118.355556 158.597177 
" style="fill:#ebf1fd;stroke:#ffffff;stroke-width:2;"/>
    <path clip-path="url(#p6e95d22c06)" d="M 177.271111 158.597177 
L 236.186667 158.597177 
L 236.186667 118.178588 
L 177.271111 118.178588 
L 177.271111 158.597177 
" style="fill:#84bf7f;stroke:#ffffff;stroke-width:2;"/>
    <path clip-path="url(#p6e95d22c06)" d="M 59.44 118.178588 
L 118.355556 118.178588 
L 118.355556 77.76 
L 59.44 77.76 
L 59.44 118.178588 
" style="fill:#ebf1fd;stroke:#ffffff;stroke-width:2;"/>
    <path clip-path="url(#p6e95d22c06)" d="M 118.355556 118.178588 
L 177.271111 118.178588 
L 177.271111 77.76 
L 118.355556 77.76 
L 118.355556 118.178588 
" style="fill:#ebf1fd;stroke:#ffffff;stroke-width:2;"/>
    <path clip-path="url(#p6e95d22c06)" d="M 177.271111 118.178588 
L 236.186667 118.178588 
L 236.186667 77.76 
L 177.271111 77.76 
L 177.271111 118.178588 
" style="fill:#85c286;stroke:#ffffff;stroke-width:2;"/>
   </g>
   <g id="text_8">
    <!-- 46.4% -->
    <defs>
     <path d="M 38.28125 13.375 
L 2.046875 13.375 
L 2.046875 29.734375 
L 38.28125 72.796875 
L 55.609375 72.796875 
L 55.609375 28.8125 
L 64.59375 28.8125 
L 64.59375 13.375 
L 55.609375 13.375 
L 55.609375 0 
L 38.28125 0 
z
M 38.28125 28.8125 
L 38.28125 51.3125 
L 19.140625 28.8125 
z
" id="Arial-Black-34"/>
     <path d="M 61.671875 55.46875 
L 41.890625 53.03125 
Q 41.109375 57.171875 39.28125 58.875 
Q 37.453125 60.59375 34.765625 60.59375 
Q 29.9375 60.59375 27.25 55.71875 
Q 25.296875 52.203125 24.359375 40.671875 
Q 27.9375 44.28125 31.6875 46.015625 
Q 35.453125 47.75 40.375 47.75 
Q 49.953125 47.75 56.5625 40.90625 
Q 63.1875 34.078125 63.1875 23.578125 
Q 63.1875 16.5 59.84375 10.640625 
Q 56.5 4.78125 50.5625 1.78125 
Q 44.625 -1.21875 35.6875 -1.21875 
Q 24.953125 -1.21875 18.453125 2.4375 
Q 11.96875 6.109375 8.078125 14.140625 
Q 4.203125 22.171875 4.203125 35.40625 
Q 4.203125 54.78125 12.359375 63.78125 
Q 20.515625 72.796875 34.96875 72.796875 
Q 43.5 72.796875 48.453125 70.8125 
Q 53.421875 68.84375 56.6875 65.03125 
Q 59.96875 61.234375 61.671875 55.46875 
M 25.046875 23.578125 
Q 25.046875 17.78125 27.96875 14.484375 
Q 30.90625 11.1875 35.15625 11.1875 
Q 39.0625 11.1875 41.703125 14.15625 
Q 44.34375 17.140625 44.34375 23.046875 
Q 44.34375 29.109375 41.609375 32.28125 
Q 38.875 35.453125 34.8125 35.453125 
Q 30.671875 35.453125 27.859375 32.375 
Q 25.046875 29.296875 25.046875 23.578125 
" id="Arial-Black-36"/>
     <path d="M 6.0625 19.921875 
L 27.296875 19.921875 
L 27.296875 0 
L 6.0625 0 
z
" id="Arial-Black-2e"/>
     <path d="M 65.625 72.796875 
L 75.921875 72.796875 
L 34.578125 -3.65625 
L 24.359375 -3.65625 
z
M 4.828125 54 
Q 4.828125 58.984375 7 63.46875 
Q 9.1875 67.96875 13.640625 70.375 
Q 18.109375 72.796875 24.21875 72.796875 
Q 33.203125 72.796875 38.375 67.671875 
Q 43.5625 62.546875 43.5625 54 
Q 43.5625 45.40625 38.375 40.28125 
Q 33.203125 35.15625 24.21875 35.15625 
Q 18.109375 35.15625 13.640625 37.5625 
Q 9.1875 39.984375 7 44.46875 
Q 4.828125 48.96875 4.828125 54 
M 18.5625 53.90625 
Q 18.5625 47.859375 20.515625 45.125 
Q 21.78125 43.3125 24.21875 43.3125 
Q 26.65625 43.3125 27.875 45.125 
Q 29.828125 47.859375 29.828125 53.90625 
Q 29.828125 59.90625 27.875 62.703125 
Q 26.65625 64.453125 24.21875 64.453125 
Q 21.78125 64.453125 20.515625 62.703125 
Q 18.5625 59.96875 18.5625 53.90625 
M 56.453125 15.28125 
Q 56.453125 20.3125 58.59375 24.78125 
Q 60.75 29.25 65.234375 31.6875 
Q 69.734375 34.125 75.78125 34.125 
Q 84.8125 34.125 89.984375 28.96875 
Q 95.171875 23.828125 95.171875 15.28125 
Q 95.171875 6.734375 89.984375 1.578125 
Q 84.8125 -3.5625 75.78125 -3.5625 
Q 69.734375 -3.5625 65.234375 -1.125 
Q 60.75 1.3125 58.59375 5.78125 
Q 56.453125 10.25 56.453125 15.28125 
M 70.171875 15.1875 
Q 70.171875 9.125 72.125 6.390625 
Q 73.34375 4.640625 75.78125 4.640625 
Q 78.21875 4.640625 79.5 6.390625 
Q 81.453125 9.125 81.453125 15.1875 
Q 81.453125 21.234375 79.5 24.03125 
Q 78.21875 25.78125 75.78125 25.78125 
Q 73.34375 25.78125 72.125 23.96875 
Q 70.171875 21.234375 70.171875 15.1875 
" id="Arial-Black-25"/>
    </defs>
    <g style="fill:#262626;" transform="translate(68.893403 181.917096)scale(0.12 -0.12)">
     <use xlink:href="#Arial-Black-34"/>
     <use x="66.699219" xlink:href="#Arial-Black-36"/>
     <use x="133.398438" xlink:href="#Arial-Black-2e"/>
     <use x="166.699219" xlink:href="#Arial-Black-34"/>
     <use x="233.398438" xlink:href="#Arial-Black-25"/>
    </g>
   </g>
   <g id="text_9">
    <!-- 48.1% -->
    <defs>
     <path d="M 16.0625 38.484375 
Q 11.375 40.96875 9.234375 44.046875 
Q 6.296875 48.25 6.296875 53.71875 
Q 6.296875 62.703125 14.75 68.40625 
Q 21.34375 72.796875 32.171875 72.796875 
Q 46.53125 72.796875 53.390625 67.328125 
Q 60.25 61.859375 60.25 53.5625 
Q 60.25 48.734375 57.515625 44.53125 
Q 55.46875 41.40625 51.078125 38.484375 
Q 56.890625 35.6875 59.734375 31.09375 
Q 62.59375 26.515625 62.59375 20.953125 
Q 62.59375 15.578125 60.125 10.90625 
Q 57.671875 6.25 54.078125 3.703125 
Q 50.484375 1.171875 45.140625 -0.015625 
Q 39.796875 -1.21875 33.734375 -1.21875 
Q 22.359375 -1.21875 16.359375 1.46875 
Q 10.359375 4.15625 7.234375 9.375 
Q 4.109375 14.59375 4.109375 21.046875 
Q 4.109375 27.34375 7.03125 31.703125 
Q 9.96875 36.078125 16.0625 38.484375 
M 25 52.546875 
Q 25 48.828125 27.3125 46.546875 
Q 29.640625 44.28125 33.5 44.28125 
Q 36.921875 44.28125 39.109375 46.53125 
Q 41.3125 48.78125 41.3125 52.34375 
Q 41.3125 56.0625 39.015625 58.375 
Q 36.71875 60.6875 33.15625 60.6875 
Q 29.546875 60.6875 27.265625 58.421875 
Q 25 56.15625 25 52.546875 
M 23.921875 21.734375 
Q 23.921875 17 26.796875 13.984375 
Q 29.6875 10.984375 33.40625 10.984375 
Q 36.96875 10.984375 39.796875 14.03125 
Q 42.625 17.09375 42.625 21.78125 
Q 42.625 26.515625 39.765625 29.53125 
Q 36.921875 32.5625 33.15625 32.5625 
Q 29.4375 32.5625 26.671875 29.625 
Q 23.921875 26.703125 23.921875 21.734375 
" id="Arial-Black-38"/>
     <path d="M 49.171875 72.796875 
L 49.171875 0 
L 29.046875 0 
L 29.046875 47.703125 
Q 24.171875 44 19.609375 41.703125 
Q 15.046875 39.40625 8.15625 37.3125 
L 8.15625 53.609375 
Q 18.3125 56.890625 23.921875 61.46875 
Q 29.546875 66.0625 32.71875 72.796875 
z
" id="Arial-Black-31"/>
    </defs>
    <g style="fill:#262626;" transform="translate(127.808958 181.917096)scale(0.12 -0.12)">
     <use xlink:href="#Arial-Black-34"/>
     <use x="66.699219" xlink:href="#Arial-Black-38"/>
     <use x="133.398438" xlink:href="#Arial-Black-2e"/>
     <use x="166.699219" xlink:href="#Arial-Black-31"/>
     <use x="233.398438" xlink:href="#Arial-Black-25"/>
    </g>
   </g>
   <g id="text_10">
    <!-- 100.0% -->
    <defs>
     <path d="M 4.109375 36.078125 
Q 4.109375 56.5 11.453125 64.640625 
Q 18.796875 72.796875 33.84375 72.796875 
Q 41.0625 72.796875 45.703125 71.015625 
Q 50.34375 69.234375 53.265625 66.375 
Q 56.203125 63.53125 57.890625 60.375 
Q 59.578125 57.234375 60.59375 53.03125 
Q 62.59375 45.015625 62.59375 36.328125 
Q 62.59375 16.84375 56 7.8125 
Q 49.421875 -1.21875 33.296875 -1.21875 
Q 24.265625 -1.21875 18.703125 1.65625 
Q 13.140625 4.546875 9.578125 10.109375 
Q 6.984375 14.0625 5.546875 20.921875 
Q 4.109375 27.78125 4.109375 36.078125 
M 23.828125 36.03125 
Q 23.828125 22.359375 26.234375 17.359375 
Q 28.65625 12.359375 33.25 12.359375 
Q 36.28125 12.359375 38.5 14.484375 
Q 40.71875 16.609375 41.765625 21.1875 
Q 42.828125 25.78125 42.828125 35.5 
Q 42.828125 49.75 40.40625 54.65625 
Q 37.984375 59.578125 33.15625 59.578125 
Q 28.21875 59.578125 26.015625 54.5625 
Q 23.828125 49.5625 23.828125 36.03125 
" id="Arial-Black-30"/>
    </defs>
    <g style="fill:#ffffff;" transform="translate(182.722326 181.917096)scale(0.12 -0.12)">
     <use xlink:href="#Arial-Black-31"/>
     <use x="66.699219" xlink:href="#Arial-Black-30"/>
     <use x="133.398438" xlink:href="#Arial-Black-30"/>
     <use x="200.097656" xlink:href="#Arial-Black-2e"/>
     <use x="233.398438" xlink:href="#Arial-Black-30"/>
     <use x="300.097656" xlink:href="#Arial-Black-25"/>
    </g>
   </g>
   <g id="text_11">
    <!-- 0.0% -->
    <g style="fill:#262626;" transform="translate(72.89559 141.498508)scale(0.12 -0.12)">
     <use xlink:href="#Arial-Black-30"/>
     <use x="66.699219" xlink:href="#Arial-Black-2e"/>
     <use x="100" xlink:href="#Arial-Black-30"/>
     <use x="166.699219" xlink:href="#Arial-Black-25"/>
    </g>
   </g>
   <g id="text_12">
    <!-- 0.0% -->
    <g style="fill:#262626;" transform="translate(131.811146 141.498508)scale(0.12 -0.12)">
     <use xlink:href="#Arial-Black-30"/>
     <use x="66.699219" xlink:href="#Arial-Black-2e"/>
     <use x="100" xlink:href="#Arial-Black-30"/>
     <use x="166.699219" xlink:href="#Arial-Black-25"/>
    </g>
   </g>
   <g id="text_13">
    <!-- 48.1% -->
    <g style="fill:#262626;" transform="translate(186.724514 141.498508)scale(0.12 -0.12)">
     <use xlink:href="#Arial-Black-34"/>
     <use x="66.699219" xlink:href="#Arial-Black-38"/>
     <use x="133.398438" xlink:href="#Arial-Black-2e"/>
     <use x="166.699219" xlink:href="#Arial-Black-31"/>
     <use x="233.398438" xlink:href="#Arial-Black-25"/>
    </g>
   </g>
   <g id="text_14">
    <!-- 0.0% -->
    <g style="fill:#262626;" transform="translate(72.89559 101.079919)scale(0.12 -0.12)">
     <use xlink:href="#Arial-Black-30"/>
     <use x="66.699219" xlink:href="#Arial-Black-2e"/>
     <use x="100" xlink:href="#Arial-Black-30"/>
     <use x="166.699219" xlink:href="#Arial-Black-25"/>
    </g>
   </g>
   <g id="text_15">
    <!-- 0.0% -->
    <g style="fill:#262626;" transform="translate(131.811146 101.079919)scale(0.12 -0.12)">
     <use xlink:href="#Arial-Black-30"/>
     <use x="66.699219" xlink:href="#Arial-Black-2e"/>
     <use x="100" xlink:href="#Arial-Black-30"/>
     <use x="166.699219" xlink:href="#Arial-Black-25"/>
    </g>
   </g>
   <g id="text_16">
    <!-- 46.4% -->
    <g style="fill:#262626;" transform="translate(186.724514 101.079919)scale(0.12 -0.12)">
     <use xlink:href="#Arial-Black-34"/>
     <use x="66.699219" xlink:href="#Arial-Black-36"/>
     <use x="133.398438" xlink:href="#Arial-Black-2e"/>
     <use x="166.699219" xlink:href="#Arial-Black-34"/>
     <use x="233.398438" xlink:href="#Arial-Black-25"/>
    </g>
   </g>
  </g>
  <g id="axes_2">
   <g id="patch_3">
    <path d="M 255.626667 199.015765 
L 432.373333 199.015765 
L 432.373333 77.76 
L 255.626667 77.76 
z
" style="fill:#eaeaf2;"/>
   </g>
   <g id="matplotlib.axis_3">
    <g id="xtick_4">
     <g id="line2d_7"/>
     <g id="text_17">
      <!-- 0 -->
      <g style="fill:#262626;" transform="translate(280.913741 67.77875)scale(0.15 -0.15)">
       <use xlink:href="#ArialMT-30"/>
      </g>
     </g>
    </g>
    <g id="xtick_5">
     <g id="line2d_8"/>
     <g id="text_18">
      <!-- 1 -->
      <g style="fill:#262626;" transform="translate(339.829297 67.77875)scale(0.15 -0.15)">
       <use xlink:href="#ArialMT-31"/>
      </g>
     </g>
    </g>
    <g id="xtick_6">
     <g id="line2d_9"/>
     <g id="text_19">
      <!-- 2 -->
      <g style="fill:#262626;" transform="translate(398.744852 67.77875)scale(0.15 -0.15)">
       <use xlink:href="#ArialMT-32"/>
      </g>
     </g>
    </g>
    <g id="text_20">
     <!-- Draw 2 damage cards -->
     <defs>
      <path d="M 3.078125 15.484375 
L 11.765625 16.84375 
Q 12.5 11.625 15.84375 8.84375 
Q 19.1875 6.0625 25.203125 6.0625 
Q 31.25 6.0625 34.171875 8.515625 
Q 37.109375 10.984375 37.109375 14.3125 
Q 37.109375 17.28125 34.515625 19 
Q 32.71875 20.171875 25.53125 21.96875 
Q 15.875 24.421875 12.140625 26.203125 
Q 8.40625 27.984375 6.46875 31.125 
Q 4.546875 34.28125 4.546875 38.09375 
Q 4.546875 41.546875 6.125 44.5 
Q 7.71875 47.46875 10.453125 49.421875 
Q 12.5 50.921875 16.03125 51.96875 
Q 19.578125 53.03125 23.640625 53.03125 
Q 29.734375 53.03125 34.34375 51.265625 
Q 38.96875 49.515625 41.15625 46.5 
Q 43.359375 43.5 44.1875 38.484375 
L 35.59375 37.3125 
Q 35.015625 41.3125 32.203125 43.546875 
Q 29.390625 45.796875 24.265625 45.796875 
Q 18.21875 45.796875 15.625 43.796875 
Q 13.03125 41.796875 13.03125 39.109375 
Q 13.03125 37.40625 14.109375 36.03125 
Q 15.1875 34.625 17.484375 33.6875 
Q 18.796875 33.203125 25.25 31.453125 
Q 34.578125 28.953125 38.25 27.359375 
Q 41.9375 25.78125 44.03125 22.75 
Q 46.140625 19.734375 46.140625 15.234375 
Q 46.140625 10.84375 43.578125 6.953125 
Q 41.015625 3.078125 36.171875 0.953125 
Q 31.34375 -1.171875 25.25 -1.171875 
Q 15.140625 -1.171875 9.84375 3.03125 
Q 4.546875 7.234375 3.078125 15.484375 
" id="ArialMT-73"/>
     </defs>
     <g style="fill:#262626;" transform="translate(263.302109 214.87514)scale(0.165 -0.165)">
      <use xlink:href="#ArialMT-44"/>
      <use x="72.216797" xlink:href="#ArialMT-72"/>
      <use x="105.517578" xlink:href="#ArialMT-61"/>
      <use x="161.132812" xlink:href="#ArialMT-77"/>
      <use x="233.349609" xlink:href="#ArialMT-20"/>
      <use x="261.132812" xlink:href="#ArialMT-32"/>
      <use x="316.748047" xlink:href="#ArialMT-20"/>
      <use x="344.53125" xlink:href="#ArialMT-64"/>
      <use x="400.146484" xlink:href="#ArialMT-61"/>
      <use x="455.761719" xlink:href="#ArialMT-6d"/>
      <use x="539.0625" xlink:href="#ArialMT-61"/>
      <use x="594.677734" xlink:href="#ArialMT-67"/>
      <use x="650.292969" xlink:href="#ArialMT-65"/>
      <use x="705.908203" xlink:href="#ArialMT-20"/>
      <use x="733.691406" xlink:href="#ArialMT-63"/>
      <use x="783.691406" xlink:href="#ArialMT-61"/>
      <use x="839.306641" xlink:href="#ArialMT-72"/>
      <use x="872.607422" xlink:href="#ArialMT-64"/>
      <use x="928.222656" xlink:href="#ArialMT-73"/>
     </g>
    </g>
   </g>
   <g id="matplotlib.axis_4">
    <g id="ytick_4">
     <g id="line2d_10"/>
    </g>
    <g id="ytick_5">
     <g id="line2d_11"/>
    </g>
    <g id="ytick_6">
     <g id="line2d_12"/>
    </g>
   </g>
   <g id="QuadMesh_2">
    <path clip-path="url(#pdccd28f984)" d="M 255.626667 199.015765 
L 314.542222 199.015765 
L 314.542222 158.597177 
L 255.626667 158.597177 
L 255.626667 199.015765 
" style="fill:#948947;stroke:#ffffff;stroke-width:2;"/>
    <path clip-path="url(#pdccd28f984)" d="M 314.542222 199.015765 
L 373.457778 199.015765 
L 373.457778 158.597177 
L 314.542222 158.597177 
L 314.542222 199.015765 
" style="fill:#964953;stroke:#ffffff;stroke-width:2;"/>
    <path clip-path="url(#pdccd28f984)" d="M 373.457778 199.015765 
L 432.373333 199.015765 
L 432.373333 158.597177 
L 373.457778 158.597177 
L 373.457778 199.015765 
" style="fill:#964953;stroke:#ffffff;stroke-width:2;"/>
    <path clip-path="url(#pdccd28f984)" d="M 255.626667 158.597177 
L 314.542222 158.597177 
L 314.542222 118.178588 
L 255.626667 118.178588 
L 255.626667 158.597177 
" style="fill:#a9dcd7;stroke:#ffffff;stroke-width:2;"/>
    <path clip-path="url(#pdccd28f984)" d="M 314.542222 158.597177 
L 373.457778 158.597177 
L 373.457778 118.178588 
L 314.542222 118.178588 
L 314.542222 158.597177 
" style="fill:#84bf7f;stroke:#ffffff;stroke-width:2;"/>
    <path clip-path="url(#pdccd28f984)" d="M 373.457778 158.597177 
L 432.373333 158.597177 
L 432.373333 118.178588 
L 373.457778 118.178588 
L 373.457778 158.597177 
" style="fill:#964953;stroke:#ffffff;stroke-width:2;"/>
    <path clip-path="url(#pdccd28f984)" d="M 255.626667 118.178588 
L 314.542222 118.178588 
L 314.542222 77.76 
L 255.626667 77.76 
L 255.626667 118.178588 
" style="fill:#ebf1fd;stroke:#ffffff;stroke-width:2;"/>
    <path clip-path="url(#pdccd28f984)" d="M 314.542222 118.178588 
L 373.457778 118.178588 
L 373.457778 77.76 
L 314.542222 77.76 
L 314.542222 118.178588 
" style="fill:#a9dcd7;stroke:#ffffff;stroke-width:2;"/>
    <path clip-path="url(#pdccd28f984)" d="M 373.457778 118.178588 
L 432.373333 118.178588 
L 432.373333 77.76 
L 373.457778 77.76 
L 373.457778 118.178588 
" style="fill:#948947;stroke:#ffffff;stroke-width:2;"/>
   </g>
   <g id="text_21">
    <!-- 72.2% -->
    <defs>
     <path d="M 4.4375 71.578125 
L 62.5 71.578125 
L 62.5 58.15625 
Q 54.9375 51.3125 49.859375 43.359375 
Q 43.703125 33.6875 40.140625 21.828125 
Q 37.3125 12.59375 36.328125 0 
L 16.5 0 
Q 18.84375 17.53125 23.875 29.390625 
Q 28.90625 41.265625 39.796875 54.78125 
L 4.4375 54.78125 
z
" id="Arial-Black-37"/>
     <path d="M 62.3125 0 
L 2.640625 0 
Q 3.65625 8.84375 8.859375 16.625 
Q 14.0625 24.421875 28.375 35.015625 
Q 37.109375 41.5 39.546875 44.875 
Q 42 48.25 42 51.265625 
Q 42 54.546875 39.578125 56.859375 
Q 37.15625 59.1875 33.5 59.1875 
Q 29.6875 59.1875 27.265625 56.78125 
Q 24.859375 54.390625 24.03125 48.34375 
L 4.109375 49.953125 
Q 5.28125 58.34375 8.40625 63.0625 
Q 11.53125 67.78125 17.21875 70.28125 
Q 22.90625 72.796875 32.953125 72.796875 
Q 43.453125 72.796875 49.28125 70.40625 
Q 55.125 68.015625 58.46875 63.0625 
Q 61.8125 58.109375 61.8125 51.953125 
Q 61.8125 45.40625 57.984375 39.453125 
Q 54.15625 33.5 44.046875 26.375 
Q 38.03125 22.21875 36 20.546875 
Q 33.984375 18.890625 31.25 16.21875 
L 62.3125 16.21875 
z
" id="Arial-Black-32"/>
    </defs>
    <g style="fill:#ffffff;" transform="translate(265.080069 181.917096)scale(0.12 -0.12)">
     <use xlink:href="#Arial-Black-37"/>
     <use x="66.699219" xlink:href="#Arial-Black-32"/>
     <use x="133.398438" xlink:href="#Arial-Black-2e"/>
     <use x="166.699219" xlink:href="#Arial-Black-32"/>
     <use x="233.398438" xlink:href="#Arial-Black-25"/>
    </g>
   </g>
   <g id="text_22">
    <!-- 100.0% -->
    <g style="fill:#ffffff;" transform="translate(319.993438 181.917096)scale(0.12 -0.12)">
     <use xlink:href="#Arial-Black-31"/>
     <use x="66.699219" xlink:href="#Arial-Black-30"/>
     <use x="133.398438" xlink:href="#Arial-Black-30"/>
     <use x="200.097656" xlink:href="#Arial-Black-2e"/>
     <use x="233.398438" xlink:href="#Arial-Black-30"/>
     <use x="300.097656" xlink:href="#Arial-Black-25"/>
    </g>
   </g>
   <g id="text_23">
    <!-- 100.0% -->
    <g style="fill:#ffffff;" transform="translate(378.908993 181.917096)scale(0.12 -0.12)">
     <use xlink:href="#Arial-Black-31"/>
     <use x="66.699219" xlink:href="#Arial-Black-30"/>
     <use x="133.398438" xlink:href="#Arial-Black-30"/>
     <use x="200.097656" xlink:href="#Arial-Black-2e"/>
     <use x="233.398438" xlink:href="#Arial-Black-30"/>
     <use x="300.097656" xlink:href="#Arial-Black-25"/>
    </g>
   </g>
   <g id="text_24">
    <!-- 22.4% -->
    <g style="fill:#262626;" transform="translate(265.080069 141.498508)scale(0.12 -0.12)">
     <use xlink:href="#Arial-Black-32"/>
     <use x="66.699219" xlink:href="#Arial-Black-32"/>
     <use x="133.398438" xlink:href="#Arial-Black-2e"/>
     <use x="166.699219" xlink:href="#Arial-Black-34"/>
     <use x="233.398438" xlink:href="#Arial-Black-25"/>
    </g>
   </g>
   <g id="text_25">
    <!-- 48.1% -->
    <g style="fill:#262626;" transform="translate(323.995625 141.498508)scale(0.12 -0.12)">
     <use xlink:href="#Arial-Black-34"/>
     <use x="66.699219" xlink:href="#Arial-Black-38"/>
     <use x="133.398438" xlink:href="#Arial-Black-2e"/>
     <use x="166.699219" xlink:href="#Arial-Black-31"/>
     <use x="233.398438" xlink:href="#Arial-Black-25"/>
    </g>
   </g>
   <g id="text_26">
    <!-- 100.0% -->
    <g style="fill:#ffffff;" transform="translate(378.908993 141.498508)scale(0.12 -0.12)">
     <use xlink:href="#Arial-Black-31"/>
     <use x="66.699219" xlink:href="#Arial-Black-30"/>
     <use x="133.398438" xlink:href="#Arial-Black-30"/>
     <use x="200.097656" xlink:href="#Arial-Black-2e"/>
     <use x="233.398438" xlink:href="#Arial-Black-30"/>
     <use x="300.097656" xlink:href="#Arial-Black-25"/>
    </g>
   </g>
   <g id="text_27">
    <!-- 0.0% -->
    <g style="fill:#262626;" transform="translate(269.082257 101.079919)scale(0.12 -0.12)">
     <use xlink:href="#Arial-Black-30"/>
     <use x="66.699219" xlink:href="#Arial-Black-2e"/>
     <use x="100" xlink:href="#Arial-Black-30"/>
     <use x="166.699219" xlink:href="#Arial-Black-25"/>
    </g>
   </g>
   <g id="text_28">
    <!-- 22.4% -->
    <g style="fill:#262626;" transform="translate(323.995625 101.079919)scale(0.12 -0.12)">
     <use xlink:href="#Arial-Black-32"/>
     <use x="66.699219" xlink:href="#Arial-Black-32"/>
     <use x="133.398438" xlink:href="#Arial-Black-2e"/>
     <use x="166.699219" xlink:href="#Arial-Black-34"/>
     <use x="233.398438" xlink:href="#Arial-Black-25"/>
    </g>
   </g>
   <g id="text_29">
    <!-- 72.2% -->
    <g style="fill:#ffffff;" transform="translate(382.911181 101.079919)scale(0.12 -0.12)">
     <use xlink:href="#Arial-Black-37"/>
     <use x="66.699219" xlink:href="#Arial-Black-32"/>
     <use x="133.398438" xlink:href="#Arial-Black-2e"/>
     <use x="166.699219" xlink:href="#Arial-Black-32"/>
     <use x="233.398438" xlink:href="#Arial-Black-25"/>
    </g>
   </g>
  </g>
  <g id="axes_3">
   <g id="patch_4">
    <path d="M 451.813333 199.015765 
L 628.56 199.015765 
L 628.56 77.76 
L 451.813333 77.76 
z
" style="fill:#eaeaf2;"/>
   </g>
   <g id="matplotlib.axis_5">
    <g id="xtick_7">
     <g id="line2d_13"/>
     <g id="text_30">
      <!-- 0 -->
      <g style="fill:#262626;" transform="translate(477.100408 67.77875)scale(0.15 -0.15)">
       <use xlink:href="#ArialMT-30"/>
      </g>
     </g>
    </g>
    <g id="xtick_8">
     <g id="line2d_14"/>
     <g id="text_31">
      <!-- 1 -->
      <g style="fill:#262626;" transform="translate(536.015964 67.77875)scale(0.15 -0.15)">
       <use xlink:href="#ArialMT-31"/>
      </g>
     </g>
    </g>
    <g id="xtick_9">
     <g id="line2d_15"/>
     <g id="text_32">
      <!-- 2 -->
      <g style="fill:#262626;" transform="translate(594.931519 67.77875)scale(0.15 -0.15)">
       <use xlink:href="#ArialMT-32"/>
      </g>
     </g>
    </g>
    <g id="text_33">
     <!-- Draw 3 damage cards -->
     <defs>
      <path d="M 4.203125 18.890625 
L 12.984375 20.0625 
Q 14.5 12.59375 18.140625 9.296875 
Q 21.78125 6 27 6 
Q 33.203125 6 37.46875 10.296875 
Q 41.75 14.59375 41.75 20.953125 
Q 41.75 27 37.796875 30.921875 
Q 33.84375 34.859375 27.734375 34.859375 
Q 25.25 34.859375 21.53125 33.890625 
L 22.515625 41.609375 
Q 23.390625 41.5 23.921875 41.5 
Q 29.546875 41.5 34.03125 44.421875 
Q 38.53125 47.359375 38.53125 53.46875 
Q 38.53125 58.296875 35.25 61.46875 
Q 31.984375 64.65625 26.8125 64.65625 
Q 21.6875 64.65625 18.265625 61.421875 
Q 14.84375 58.203125 13.875 51.765625 
L 5.078125 53.328125 
Q 6.6875 62.15625 12.390625 67.015625 
Q 18.109375 71.875 26.609375 71.875 
Q 32.46875 71.875 37.390625 69.359375 
Q 42.328125 66.84375 44.9375 62.5 
Q 47.5625 58.15625 47.5625 53.265625 
Q 47.5625 48.640625 45.0625 44.828125 
Q 42.578125 41.015625 37.703125 38.765625 
Q 44.046875 37.3125 47.5625 32.6875 
Q 51.078125 28.078125 51.078125 21.140625 
Q 51.078125 11.765625 44.234375 5.25 
Q 37.40625 -1.265625 26.953125 -1.265625 
Q 17.53125 -1.265625 11.296875 4.34375 
Q 5.078125 9.96875 4.203125 18.890625 
" id="ArialMT-33"/>
     </defs>
     <g style="fill:#262626;" transform="translate(459.488776 214.87514)scale(0.165 -0.165)">
      <use xlink:href="#ArialMT-44"/>
      <use x="72.216797" xlink:href="#ArialMT-72"/>
      <use x="105.517578" xlink:href="#ArialMT-61"/>
      <use x="161.132812" xlink:href="#ArialMT-77"/>
      <use x="233.349609" xlink:href="#ArialMT-20"/>
      <use x="261.132812" xlink:href="#ArialMT-33"/>
      <use x="316.748047" xlink:href="#ArialMT-20"/>
      <use x="344.53125" xlink:href="#ArialMT-64"/>
      <use x="400.146484" xlink:href="#ArialMT-61"/>
      <use x="455.761719" xlink:href="#ArialMT-6d"/>
      <use x="539.0625" xlink:href="#ArialMT-61"/>
      <use x="594.677734" xlink:href="#ArialMT-67"/>
      <use x="650.292969" xlink:href="#ArialMT-65"/>
      <use x="705.908203" xlink:href="#ArialMT-20"/>
      <use x="733.691406" xlink:href="#ArialMT-63"/>
      <use x="783.691406" xlink:href="#ArialMT-61"/>
      <use x="839.306641" xlink:href="#ArialMT-72"/>
      <use x="872.607422" xlink:href="#ArialMT-64"/>
      <use x="928.222656" xlink:href="#ArialMT-73"/>
     </g>
    </g>
   </g>
   <g id="matplotlib.axis_6">
    <g id="ytick_7">
     <g id="line2d_16"/>
    </g>
    <g id="ytick_8">
     <g id="line2d_17"/>
    </g>
    <g id="ytick_9">
     <g id="line2d_18"/>
    </g>
   </g>
   <g id="QuadMesh_3">
    <path clip-path="url(#pf2bef154dd)" d="M 451.813333 199.015765 
L 510.728889 199.015765 
L 510.728889 158.597177 
L 451.813333 158.597177 
L 451.813333 199.015765 
" style="fill:#964953;stroke:#ffffff;stroke-width:2;"/>
    <path clip-path="url(#pf2bef154dd)" d="M 510.728889 199.015765 
L 569.644444 199.015765 
L 569.644444 158.597177 
L 510.728889 158.597177 
L 510.728889 199.015765 
" style="fill:#964953;stroke:#ffffff;stroke-width:2;"/>
    <path clip-path="url(#pf2bef154dd)" d="M 569.644444 199.015765 
L 628.56 199.015765 
L 628.56 158.597177 
L 569.644444 158.597177 
L 569.644444 199.015765 
" style="fill:#964953;stroke:#ffffff;stroke-width:2;"/>
    <path clip-path="url(#pf2bef154dd)" d="M 451.813333 158.597177 
L 510.728889 158.597177 
L 510.728889 118.178588 
L 451.813333 118.178588 
L 451.813333 158.597177 
" style="fill:#89a65a;stroke:#ffffff;stroke-width:2;"/>
    <path clip-path="url(#pf2bef154dd)" d="M 510.728889 158.597177 
L 569.644444 158.597177 
L 569.644444 118.178588 
L 510.728889 118.178588 
L 510.728889 158.597177 
" style="fill:#964953;stroke:#ffffff;stroke-width:2;"/>
    <path clip-path="url(#pf2bef154dd)" d="M 569.644444 158.597177 
L 628.56 158.597177 
L 628.56 118.178588 
L 569.644444 118.178588 
L 569.644444 158.597177 
" style="fill:#964953;stroke:#ffffff;stroke-width:2;"/>
    <path clip-path="url(#pf2bef154dd)" d="M 451.813333 118.178588 
L 510.728889 118.178588 
L 510.728889 77.76 
L 451.813333 77.76 
L 451.813333 118.178588 
" style="fill:#a9dcd7;stroke:#ffffff;stroke-width:2;"/>
    <path clip-path="url(#pf2bef154dd)" d="M 510.728889 118.178588 
L 569.644444 118.178588 
L 569.644444 77.76 
L 510.728889 77.76 
L 510.728889 118.178588 
" style="fill:#89a65a;stroke:#ffffff;stroke-width:2;"/>
    <path clip-path="url(#pf2bef154dd)" d="M 569.644444 118.178588 
L 628.56 118.178588 
L 628.56 77.76 
L 569.644444 77.76 
L 569.644444 118.178588 
" style="fill:#964953;stroke:#ffffff;stroke-width:2;"/>
   </g>
   <g id="text_34">
    <!-- 100.0% -->
    <g style="fill:#ffffff;" transform="translate(457.264549 181.917096)scale(0.12 -0.12)">
     <use xlink:href="#Arial-Black-31"/>
     <use x="66.699219" xlink:href="#Arial-Black-30"/>
     <use x="133.398438" xlink:href="#Arial-Black-30"/>
     <use x="200.097656" xlink:href="#Arial-Black-2e"/>
     <use x="233.398438" xlink:href="#Arial-Black-30"/>
     <use x="300.097656" xlink:href="#Arial-Black-25"/>
    </g>
   </g>
   <g id="text_35">
    <!-- 100.0% -->
    <g style="fill:#ffffff;" transform="translate(516.180104 181.917096)scale(0.12 -0.12)">
     <use xlink:href="#Arial-Black-31"/>
     <use x="66.699219" xlink:href="#Arial-Black-30"/>
     <use x="133.398438" xlink:href="#Arial-Black-30"/>
     <use x="200.097656" xlink:href="#Arial-Black-2e"/>
     <use x="233.398438" xlink:href="#Arial-Black-30"/>
     <use x="300.097656" xlink:href="#Arial-Black-25"/>
    </g>
   </g>
   <g id="text_36">
    <!-- 100.0% -->
    <g style="fill:#ffffff;" transform="translate(575.09566 181.917096)scale(0.12 -0.12)">
     <use xlink:href="#Arial-Black-31"/>
     <use x="66.699219" xlink:href="#Arial-Black-30"/>
     <use x="133.398438" xlink:href="#Arial-Black-30"/>
     <use x="200.097656" xlink:href="#Arial-Black-2e"/>
     <use x="233.398438" xlink:href="#Arial-Black-30"/>
     <use x="300.097656" xlink:href="#Arial-Black-25"/>
    </g>
   </g>
   <g id="text_37">
    <!-- 59.8% -->
    <defs>
     <path d="M 12.15625 71.578125 
L 59.375 71.578125 
L 59.375 55.71875 
L 27.390625 55.71875 
L 25.6875 44.96875 
Q 29 46.53125 32.25 47.3125 
Q 35.5 48.09375 38.671875 48.09375 
Q 49.421875 48.09375 56.109375 41.59375 
Q 62.796875 35.109375 62.796875 25.25 
Q 62.796875 18.3125 59.34375 11.90625 
Q 55.90625 5.515625 49.578125 2.140625 
Q 43.265625 -1.21875 33.40625 -1.21875 
Q 26.3125 -1.21875 21.265625 0.125 
Q 16.21875 1.46875 12.671875 4.125 
Q 9.125 6.78125 6.921875 10.15625 
Q 4.734375 13.53125 3.265625 18.5625 
L 23.390625 20.75 
Q 24.125 15.921875 26.8125 13.40625 
Q 29.5 10.890625 33.203125 10.890625 
Q 37.359375 10.890625 40.0625 14.03125 
Q 42.78125 17.1875 42.78125 23.4375 
Q 42.78125 29.828125 40.046875 32.8125 
Q 37.3125 35.796875 32.765625 35.796875 
Q 29.890625 35.796875 27.203125 34.375 
Q 25.203125 33.34375 22.796875 30.671875 
L 5.859375 33.109375 
z
" id="Arial-Black-35"/>
     <path d="M 4.984375 16.0625 
L 24.75 18.5625 
Q 25.53125 14.40625 27.390625 12.6875 
Q 29.25 10.984375 31.9375 10.984375 
Q 36.71875 10.984375 39.40625 15.828125 
Q 41.359375 19.390625 42.328125 30.90625 
Q 38.765625 27.25 35 25.53125 
Q 31.25 23.828125 26.3125 23.828125 
Q 16.703125 23.828125 10.078125 30.65625 
Q 3.46875 37.5 3.46875 47.953125 
Q 3.46875 55.078125 6.828125 60.9375 
Q 10.203125 66.796875 16.109375 69.796875 
Q 22.015625 72.796875 30.953125 72.796875 
Q 41.703125 72.796875 48.1875 69.109375 
Q 54.6875 65.4375 58.5625 57.390625 
Q 62.453125 49.359375 62.453125 36.1875 
Q 62.453125 16.796875 54.296875 7.78125 
Q 46.140625 -1.21875 31.6875 -1.21875 
Q 23.140625 -1.21875 18.203125 0.75 
Q 13.28125 2.734375 10 6.546875 
Q 6.734375 10.359375 4.984375 16.0625 
M 41.609375 48 
Q 41.609375 53.8125 38.671875 57.109375 
Q 35.75 60.40625 31.546875 60.40625 
Q 27.59375 60.40625 24.96875 57.421875 
Q 22.359375 54.4375 22.359375 48.484375 
Q 22.359375 42.484375 25.0625 39.3125 
Q 27.78125 36.140625 31.84375 36.140625 
Q 36.03125 36.140625 38.8125 39.203125 
Q 41.609375 42.28125 41.609375 48 
" id="Arial-Black-39"/>
    </defs>
    <g style="fill:#ffffff;" transform="translate(461.266736 141.498508)scale(0.12 -0.12)">
     <use xlink:href="#Arial-Black-35"/>
     <use x="66.699219" xlink:href="#Arial-Black-39"/>
     <use x="133.398438" xlink:href="#Arial-Black-2e"/>
     <use x="166.699219" xlink:href="#Arial-Black-38"/>
     <use x="233.398438" xlink:href="#Arial-Black-25"/>
    </g>
   </g>
   <g id="text_38">
    <!-- 100.0% -->
    <g style="fill:#ffffff;" transform="translate(516.180104 141.498508)scale(0.12 -0.12)">
     <use xlink:href="#Arial-Black-31"/>
     <use x="66.699219" xlink:href="#Arial-Black-30"/>
     <use x="133.398438" xlink:href="#Arial-Black-30"/>
     <use x="200.097656" xlink:href="#Arial-Black-2e"/>
     <use x="233.398438" xlink:href="#Arial-Black-30"/>
     <use x="300.097656" xlink:href="#Arial-Black-25"/>
    </g>
   </g>
   <g id="text_39">
    <!-- 100.0% -->
    <g style="fill:#ffffff;" transform="translate(575.09566 141.498508)scale(0.12 -0.12)">
     <use xlink:href="#Arial-Black-31"/>
     <use x="66.699219" xlink:href="#Arial-Black-30"/>
     <use x="133.398438" xlink:href="#Arial-Black-30"/>
     <use x="200.097656" xlink:href="#Arial-Black-2e"/>
     <use x="233.398438" xlink:href="#Arial-Black-30"/>
     <use x="300.097656" xlink:href="#Arial-Black-25"/>
    </g>
   </g>
   <g id="text_40">
    <!-- 22.4% -->
    <g style="fill:#262626;" transform="translate(461.266736 101.079919)scale(0.12 -0.12)">
     <use xlink:href="#Arial-Black-32"/>
     <use x="66.699219" xlink:href="#Arial-Black-32"/>
     <use x="133.398438" xlink:href="#Arial-Black-2e"/>
     <use x="166.699219" xlink:href="#Arial-Black-34"/>
     <use x="233.398438" xlink:href="#Arial-Black-25"/>
    </g>
   </g>
   <g id="text_41">
    <!-- 59.8% -->
    <g style="fill:#ffffff;" transform="translate(520.182292 101.079919)scale(0.12 -0.12)">
     <use xlink:href="#Arial-Black-35"/>
     <use x="66.699219" xlink:href="#Arial-Black-39"/>
     <use x="133.398438" xlink:href="#Arial-Black-2e"/>
     <use x="166.699219" xlink:href="#Arial-Black-38"/>
     <use x="233.398438" xlink:href="#Arial-Black-25"/>
    </g>
   </g>
   <g id="text_42">
    <!-- 100.0% -->
    <g style="fill:#ffffff;" transform="translate(575.09566 101.079919)scale(0.12 -0.12)">
     <use xlink:href="#Arial-Black-31"/>
     <use x="66.699219" xlink:href="#Arial-Black-30"/>
     <use x="133.398438" xlink:href="#Arial-Black-30"/>
     <use x="200.097656" xlink:href="#Arial-Black-2e"/>
     <use x="233.398438" xlink:href="#Arial-Black-30"/>
     <use x="300.097656" xlink:href="#Arial-Black-25"/>
    </g>
   </g>
  </g>
  <g id="axes_4">
   <g id="patch_5">
    <path d="M 59.44 372.56 
L 236.186667 372.56 
L 236.186667 251.304235 
L 59.44 251.304235 
z
" style="fill:#eaeaf2;"/>
   </g>
   <g id="matplotlib.axis_7">
    <g id="xtick_10">
     <g id="line2d_19"/>
     <g id="text_43">
      <!-- 0 -->
      <g style="fill:#262626;" transform="translate(84.727075 241.322985)scale(0.15 -0.15)">
       <use xlink:href="#ArialMT-30"/>
      </g>
     </g>
    </g>
    <g id="xtick_11">
     <g id="line2d_20"/>
     <g id="text_44">
      <!-- 1 -->
      <g style="fill:#262626;" transform="translate(143.64263 241.322985)scale(0.15 -0.15)">
       <use xlink:href="#ArialMT-31"/>
      </g>
     </g>
    </g>
    <g id="xtick_12">
     <g id="line2d_21"/>
     <g id="text_45">
      <!-- 2 -->
      <g style="fill:#262626;" transform="translate(202.558186 241.322985)scale(0.15 -0.15)">
       <use xlink:href="#ArialMT-32"/>
      </g>
     </g>
    </g>
    <g id="text_46">
     <!-- Draw 4 damage cards -->
     <defs>
      <path d="M 32.328125 0 
L 32.328125 17.140625 
L 1.265625 17.140625 
L 1.265625 25.203125 
L 33.9375 71.578125 
L 41.109375 71.578125 
L 41.109375 25.203125 
L 50.78125 25.203125 
L 50.78125 17.140625 
L 41.109375 17.140625 
L 41.109375 0 
z
M 32.328125 25.203125 
L 32.328125 57.46875 
L 9.90625 25.203125 
z
" id="ArialMT-34"/>
     </defs>
     <g style="fill:#262626;" transform="translate(67.115443 388.370391)scale(0.165 -0.165)">
      <use xlink:href="#ArialMT-44"/>
      <use x="72.216797" xlink:href="#ArialMT-72"/>
      <use x="105.517578" xlink:href="#ArialMT-61"/>
      <use x="161.132812" xlink:href="#ArialMT-77"/>
      <use x="233.349609" xlink:href="#ArialMT-20"/>
      <use x="261.132812" xlink:href="#ArialMT-34"/>
      <use x="316.748047" xlink:href="#ArialMT-20"/>
      <use x="344.53125" xlink:href="#ArialMT-64"/>
      <use x="400.146484" xlink:href="#ArialMT-61"/>
      <use x="455.761719" xlink:href="#ArialMT-6d"/>
      <use x="539.0625" xlink:href="#ArialMT-61"/>
      <use x="594.677734" xlink:href="#ArialMT-67"/>
      <use x="650.292969" xlink:href="#ArialMT-65"/>
      <use x="705.908203" xlink:href="#ArialMT-20"/>
      <use x="733.691406" xlink:href="#ArialMT-63"/>
      <use x="783.691406" xlink:href="#ArialMT-61"/>
      <use x="839.306641" xlink:href="#ArialMT-72"/>
      <use x="872.607422" xlink:href="#ArialMT-64"/>
      <use x="928.222656" xlink:href="#ArialMT-73"/>
     </g>
    </g>
   </g>
   <g id="matplotlib.axis_8">
    <g id="ytick_10">
     <g id="line2d_22"/>
     <g id="text_47">
      <!-- 2 -->
      <g style="fill:#262626;" transform="translate(49.45875 355.323753)rotate(-90)scale(0.15 -0.15)">
       <use xlink:href="#ArialMT-32"/>
      </g>
     </g>
    </g>
    <g id="ytick_11">
     <g id="line2d_23"/>
     <g id="text_48">
      <!-- 1 -->
      <g style="fill:#262626;" transform="translate(49.45875 314.905164)rotate(-90)scale(0.15 -0.15)">
       <use xlink:href="#ArialMT-31"/>
      </g>
     </g>
    </g>
    <g id="ytick_12">
     <g id="line2d_24"/>
     <g id="text_49">
      <!-- 0 -->
      <g style="fill:#262626;" transform="translate(49.45875 274.486576)rotate(-90)scale(0.15 -0.15)">
       <use xlink:href="#ArialMT-30"/>
      </g>
     </g>
    </g>
   </g>
   <g id="QuadMesh_4">
    <path clip-path="url(#p57a2921d47)" d="M 59.44 372.56 
L 118.355556 372.56 
L 118.355556 332.141412 
L 59.44 332.141412 
L 59.44 372.56 
" style="fill:#964953;stroke:#ffffff;stroke-width:2;"/>
    <path clip-path="url(#p57a2921d47)" d="M 118.355556 372.56 
L 177.271111 372.56 
L 177.271111 332.141412 
L 118.355556 332.141412 
L 118.355556 372.56 
" style="fill:#964953;stroke:#ffffff;stroke-width:2;"/>
    <path clip-path="url(#p57a2921d47)" d="M 177.271111 372.56 
L 236.186667 372.56 
L 236.186667 332.141412 
L 177.271111 332.141412 
L 177.271111 372.56 
" style="fill:#964953;stroke:#ffffff;stroke-width:2;"/>
    <path clip-path="url(#p57a2921d47)" d="M 59.44 332.141412 
L 118.355556 332.141412 
L 118.355556 291.722823 
L 59.44 291.722823 
L 59.44 332.141412 
" style="fill:#964953;stroke:#ffffff;stroke-width:2;"/>
    <path clip-path="url(#p57a2921d47)" d="M 118.355556 332.141412 
L 177.271111 332.141412 
L 177.271111 291.722823 
L 118.355556 291.722823 
L 118.355556 332.141412 
" style="fill:#964953;stroke:#ffffff;stroke-width:2;"/>
    <path clip-path="url(#p57a2921d47)" d="M 177.271111 332.141412 
L 236.186667 332.141412 
L 236.186667 291.722823 
L 177.271111 291.722823 
L 177.271111 332.141412 
" style="fill:#964953;stroke:#ffffff;stroke-width:2;"/>
    <path clip-path="url(#p57a2921d47)" d="M 59.44 291.722823 
L 118.355556 291.722823 
L 118.355556 251.304235 
L 59.44 251.304235 
L 59.44 291.722823 
" style="fill:#89a65a;stroke:#ffffff;stroke-width:2;"/>
    <path clip-path="url(#p57a2921d47)" d="M 118.355556 291.722823 
L 177.271111 291.722823 
L 177.271111 251.304235 
L 118.355556 251.304235 
L 118.355556 291.722823 
" style="fill:#964953;stroke:#ffffff;stroke-width:2;"/>
    <path clip-path="url(#p57a2921d47)" d="M 177.271111 291.722823 
L 236.186667 291.722823 
L 236.186667 251.304235 
L 177.271111 251.304235 
L 177.271111 291.722823 
" style="fill:#964953;stroke:#ffffff;stroke-width:2;"/>
   </g>
   <g id="text_50">
    <!-- 100.0% -->
    <g style="fill:#ffffff;" transform="translate(64.891215 355.461331)scale(0.12 -0.12)">
     <use xlink:href="#Arial-Black-31"/>
     <use x="66.699219" xlink:href="#Arial-Black-30"/>
     <use x="133.398438" xlink:href="#Arial-Black-30"/>
     <use x="200.097656" xlink:href="#Arial-Black-2e"/>
     <use x="233.398438" xlink:href="#Arial-Black-30"/>
     <use x="300.097656" xlink:href="#Arial-Black-25"/>
    </g>
   </g>
   <g id="text_51">
    <!-- 100.0% -->
    <g style="fill:#ffffff;" transform="translate(123.806771 355.461331)scale(0.12 -0.12)">
     <use xlink:href="#Arial-Black-31"/>
     <use x="66.699219" xlink:href="#Arial-Black-30"/>
     <use x="133.398438" xlink:href="#Arial-Black-30"/>
     <use x="200.097656" xlink:href="#Arial-Black-2e"/>
     <use x="233.398438" xlink:href="#Arial-Black-30"/>
     <use x="300.097656" xlink:href="#Arial-Black-25"/>
    </g>
   </g>
   <g id="text_52">
    <!-- 100.0% -->
    <g style="fill:#ffffff;" transform="translate(182.722326 355.461331)scale(0.12 -0.12)">
     <use xlink:href="#Arial-Black-31"/>
     <use x="66.699219" xlink:href="#Arial-Black-30"/>
     <use x="133.398438" xlink:href="#Arial-Black-30"/>
     <use x="200.097656" xlink:href="#Arial-Black-2e"/>
     <use x="233.398438" xlink:href="#Arial-Black-30"/>
     <use x="300.097656" xlink:href="#Arial-Black-25"/>
    </g>
   </g>
   <g id="text_53">
    <!-- 100.0% -->
    <g style="fill:#ffffff;" transform="translate(64.891215 315.042742)scale(0.12 -0.12)">
     <use xlink:href="#Arial-Black-31"/>
     <use x="66.699219" xlink:href="#Arial-Black-30"/>
     <use x="133.398438" xlink:href="#Arial-Black-30"/>
     <use x="200.097656" xlink:href="#Arial-Black-2e"/>
     <use x="233.398438" xlink:href="#Arial-Black-30"/>
     <use x="300.097656" xlink:href="#Arial-Black-25"/>
    </g>
   </g>
   <g id="text_54">
    <!-- 100.0% -->
    <g style="fill:#ffffff;" transform="translate(123.806771 315.042742)scale(0.12 -0.12)">
     <use xlink:href="#Arial-Black-31"/>
     <use x="66.699219" xlink:href="#Arial-Black-30"/>
     <use x="133.398438" xlink:href="#Arial-Black-30"/>
     <use x="200.097656" xlink:href="#Arial-Black-2e"/>
     <use x="233.398438" xlink:href="#Arial-Black-30"/>
     <use x="300.097656" xlink:href="#Arial-Black-25"/>
    </g>
   </g>
   <g id="text_55">
    <!-- 100.0% -->
    <g style="fill:#ffffff;" transform="translate(182.722326 315.042742)scale(0.12 -0.12)">
     <use xlink:href="#Arial-Black-31"/>
     <use x="66.699219" xlink:href="#Arial-Black-30"/>
     <use x="133.398438" xlink:href="#Arial-Black-30"/>
     <use x="200.097656" xlink:href="#Arial-Black-2e"/>
     <use x="233.398438" xlink:href="#Arial-Black-30"/>
     <use x="300.097656" xlink:href="#Arial-Black-25"/>
    </g>
   </g>
   <g id="text_56">
    <!-- 59.8% -->
    <g style="fill:#ffffff;" transform="translate(68.893403 274.624154)scale(0.12 -0.12)">
     <use xlink:href="#Arial-Black-35"/>
     <use x="66.699219" xlink:href="#Arial-Black-39"/>
     <use x="133.398438" xlink:href="#Arial-Black-2e"/>
     <use x="166.699219" xlink:href="#Arial-Black-38"/>
     <use x="233.398438" xlink:href="#Arial-Black-25"/>
    </g>
   </g>
   <g id="text_57">
    <!-- 100.0% -->
    <g style="fill:#ffffff;" transform="translate(123.806771 274.624154)scale(0.12 -0.12)">
     <use xlink:href="#Arial-Black-31"/>
     <use x="66.699219" xlink:href="#Arial-Black-30"/>
     <use x="133.398438" xlink:href="#Arial-Black-30"/>
     <use x="200.097656" xlink:href="#Arial-Black-2e"/>
     <use x="233.398438" xlink:href="#Arial-Black-30"/>
     <use x="300.097656" xlink:href="#Arial-Black-25"/>
    </g>
   </g>
   <g id="text_58">
    <!-- 100.0% -->
    <g style="fill:#ffffff;" transform="translate(182.722326 274.624154)scale(0.12 -0.12)">
     <use xlink:href="#Arial-Black-31"/>
     <use x="66.699219" xlink:href="#Arial-Black-30"/>
     <use x="133.398438" xlink:href="#Arial-Black-30"/>
     <use x="200.097656" xlink:href="#Arial-Black-2e"/>
     <use x="233.398438" xlink:href="#Arial-Black-30"/>
     <use x="300.097656" xlink:href="#Arial-Black-25"/>
    </g>
   </g>
  </g>
  <g id="axes_5">
   <g id="patch_6">
    <path d="M 255.626667 372.56 
L 432.373333 372.56 
L 432.373333 251.304235 
L 255.626667 251.304235 
z
" style="fill:#eaeaf2;"/>
   </g>
   <g id="matplotlib.axis_9">
    <g id="xtick_13">
     <g id="line2d_25"/>
     <g id="text_59">
      <!-- 0 -->
      <g style="fill:#262626;" transform="translate(280.913741 241.322985)scale(0.15 -0.15)">
       <use xlink:href="#ArialMT-30"/>
      </g>
     </g>
    </g>
    <g id="xtick_14">
     <g id="line2d_26"/>
     <g id="text_60">
      <!-- 1 -->
      <g style="fill:#262626;" transform="translate(339.829297 241.322985)scale(0.15 -0.15)">
       <use xlink:href="#ArialMT-31"/>
      </g>
     </g>
    </g>
    <g id="xtick_15">
     <g id="line2d_27"/>
     <g id="text_61">
      <!-- 2 -->
      <g style="fill:#262626;" transform="translate(398.744852 241.322985)scale(0.15 -0.15)">
       <use xlink:href="#ArialMT-32"/>
      </g>
     </g>
    </g>
    <g id="text_62">
     <!-- Draw 5 damage cards -->
     <defs>
      <path d="M 4.15625 18.75 
L 13.375 19.53125 
Q 14.40625 12.796875 18.140625 9.390625 
Q 21.875 6 27.15625 6 
Q 33.5 6 37.890625 10.78125 
Q 42.28125 15.578125 42.28125 23.484375 
Q 42.28125 31 38.0625 35.34375 
Q 33.84375 39.703125 27 39.703125 
Q 22.75 39.703125 19.328125 37.765625 
Q 15.921875 35.84375 13.96875 32.765625 
L 5.71875 33.84375 
L 12.640625 70.609375 
L 48.25 70.609375 
L 48.25 62.203125 
L 19.671875 62.203125 
L 15.828125 42.96875 
Q 22.265625 47.46875 29.34375 47.46875 
Q 38.71875 47.46875 45.15625 40.96875 
Q 51.609375 34.46875 51.609375 24.265625 
Q 51.609375 14.546875 45.953125 7.46875 
Q 39.0625 -1.21875 27.15625 -1.21875 
Q 17.390625 -1.21875 11.203125 4.25 
Q 5.03125 9.71875 4.15625 18.75 
" id="ArialMT-35"/>
     </defs>
     <g style="fill:#262626;" transform="translate(263.302109 388.370391)scale(0.165 -0.165)">
      <use xlink:href="#ArialMT-44"/>
      <use x="72.216797" xlink:href="#ArialMT-72"/>
      <use x="105.517578" xlink:href="#ArialMT-61"/>
      <use x="161.132812" xlink:href="#ArialMT-77"/>
      <use x="233.349609" xlink:href="#ArialMT-20"/>
      <use x="261.132812" xlink:href="#ArialMT-35"/>
      <use x="316.748047" xlink:href="#ArialMT-20"/>
      <use x="344.53125" xlink:href="#ArialMT-64"/>
      <use x="400.146484" xlink:href="#ArialMT-61"/>
      <use x="455.761719" xlink:href="#ArialMT-6d"/>
      <use x="539.0625" xlink:href="#ArialMT-61"/>
      <use x="594.677734" xlink:href="#ArialMT-67"/>
      <use x="650.292969" xlink:href="#ArialMT-65"/>
      <use x="705.908203" xlink:href="#ArialMT-20"/>
      <use x="733.691406" xlink:href="#ArialMT-63"/>
      <use x="783.691406" xlink:href="#ArialMT-61"/>
      <use x="839.306641" xlink:href="#ArialMT-72"/>
      <use x="872.607422" xlink:href="#ArialMT-64"/>
      <use x="928.222656" xlink:href="#ArialMT-73"/>
     </g>
    </g>
   </g>
   <g id="matplotlib.axis_10">
    <g id="ytick_13">
     <g id="line2d_28"/>
    </g>
    <g id="ytick_14">
     <g id="line2d_29"/>
    </g>
    <g id="ytick_15">
     <g id="line2d_30"/>
    </g>
   </g>
   <g id="QuadMesh_5">
    <path clip-path="url(#pdd285d587d)" d="M 255.626667 372.56 
L 314.542222 372.56 
L 314.542222 332.141412 
L 255.626667 332.141412 
L 255.626667 372.56 
" style="fill:#964953;stroke:#ffffff;stroke-width:2;"/>
    <path clip-path="url(#pdd285d587d)" d="M 314.542222 372.56 
L 373.457778 372.56 
L 373.457778 332.141412 
L 314.542222 332.141412 
L 314.542222 372.56 
" style="fill:#964953;stroke:#ffffff;stroke-width:2;"/>
    <path clip-path="url(#pdd285d587d)" d="M 373.457778 372.56 
L 432.373333 372.56 
L 432.373333 332.141412 
L 373.457778 332.141412 
L 373.457778 372.56 
" style="fill:#964953;stroke:#ffffff;stroke-width:2;"/>
    <path clip-path="url(#pdd285d587d)" d="M 255.626667 332.141412 
L 314.542222 332.141412 
L 314.542222 291.722823 
L 255.626667 291.722823 
L 255.626667 332.141412 
" style="fill:#964953;stroke:#ffffff;stroke-width:2;"/>
    <path clip-path="url(#pdd285d587d)" d="M 314.542222 332.141412 
L 373.457778 332.141412 
L 373.457778 291.722823 
L 314.542222 291.722823 
L 314.542222 332.141412 
" style="fill:#964953;stroke:#ffffff;stroke-width:2;"/>
    <path clip-path="url(#pdd285d587d)" d="M 373.457778 332.141412 
L 432.373333 332.141412 
L 432.373333 291.722823 
L 373.457778 291.722823 
L 373.457778 332.141412 
" style="fill:#964953;stroke:#ffffff;stroke-width:2;"/>
    <path clip-path="url(#pdd285d587d)" d="M 255.626667 291.722823 
L 314.542222 291.722823 
L 314.542222 251.304235 
L 255.626667 251.304235 
L 255.626667 291.722823 
" style="fill:#964953;stroke:#ffffff;stroke-width:2;"/>
    <path clip-path="url(#pdd285d587d)" d="M 314.542222 291.722823 
L 373.457778 291.722823 
L 373.457778 251.304235 
L 314.542222 251.304235 
L 314.542222 291.722823 
" style="fill:#964953;stroke:#ffffff;stroke-width:2;"/>
    <path clip-path="url(#pdd285d587d)" d="M 373.457778 291.722823 
L 432.373333 291.722823 
L 432.373333 251.304235 
L 373.457778 251.304235 
L 373.457778 291.722823 
" style="fill:#964953;stroke:#ffffff;stroke-width:2;"/>
   </g>
   <g id="text_63">
    <!-- 100.0% -->
    <g style="fill:#ffffff;" transform="translate(261.077882 355.461331)scale(0.12 -0.12)">
     <use xlink:href="#Arial-Black-31"/>
     <use x="66.699219" xlink:href="#Arial-Black-30"/>
     <use x="133.398438" xlink:href="#Arial-Black-30"/>
     <use x="200.097656" xlink:href="#Arial-Black-2e"/>
     <use x="233.398438" xlink:href="#Arial-Black-30"/>
     <use x="300.097656" xlink:href="#Arial-Black-25"/>
    </g>
   </g>
   <g id="text_64">
    <!-- 100.0% -->
    <g style="fill:#ffffff;" transform="translate(319.993438 355.461331)scale(0.12 -0.12)">
     <use xlink:href="#Arial-Black-31"/>
     <use x="66.699219" xlink:href="#Arial-Black-30"/>
     <use x="133.398438" xlink:href="#Arial-Black-30"/>
     <use x="200.097656" xlink:href="#Arial-Black-2e"/>
     <use x="233.398438" xlink:href="#Arial-Black-30"/>
     <use x="300.097656" xlink:href="#Arial-Black-25"/>
    </g>
   </g>
   <g id="text_65">
    <!-- 100.0% -->
    <g style="fill:#ffffff;" transform="translate(378.908993 355.461331)scale(0.12 -0.12)">
     <use xlink:href="#Arial-Black-31"/>
     <use x="66.699219" xlink:href="#Arial-Black-30"/>
     <use x="133.398438" xlink:href="#Arial-Black-30"/>
     <use x="200.097656" xlink:href="#Arial-Black-2e"/>
     <use x="233.398438" xlink:href="#Arial-Black-30"/>
     <use x="300.097656" xlink:href="#Arial-Black-25"/>
    </g>
   </g>
   <g id="text_66">
    <!-- 100.0% -->
    <g style="fill:#ffffff;" transform="translate(261.077882 315.042742)scale(0.12 -0.12)">
     <use xlink:href="#Arial-Black-31"/>
     <use x="66.699219" xlink:href="#Arial-Black-30"/>
     <use x="133.398438" xlink:href="#Arial-Black-30"/>
     <use x="200.097656" xlink:href="#Arial-Black-2e"/>
     <use x="233.398438" xlink:href="#Arial-Black-30"/>
     <use x="300.097656" xlink:href="#Arial-Black-25"/>
    </g>
   </g>
   <g id="text_67">
    <!-- 100.0% -->
    <g style="fill:#ffffff;" transform="translate(319.993438 315.042742)scale(0.12 -0.12)">
     <use xlink:href="#Arial-Black-31"/>
     <use x="66.699219" xlink:href="#Arial-Black-30"/>
     <use x="133.398438" xlink:href="#Arial-Black-30"/>
     <use x="200.097656" xlink:href="#Arial-Black-2e"/>
     <use x="233.398438" xlink:href="#Arial-Black-30"/>
     <use x="300.097656" xlink:href="#Arial-Black-25"/>
    </g>
   </g>
   <g id="text_68">
    <!-- 100.0% -->
    <g style="fill:#ffffff;" transform="translate(378.908993 315.042742)scale(0.12 -0.12)">
     <use xlink:href="#Arial-Black-31"/>
     <use x="66.699219" xlink:href="#Arial-Black-30"/>
     <use x="133.398438" xlink:href="#Arial-Black-30"/>
     <use x="200.097656" xlink:href="#Arial-Black-2e"/>
     <use x="233.398438" xlink:href="#Arial-Black-30"/>
     <use x="300.097656" xlink:href="#Arial-Black-25"/>
    </g>
   </g>
   <g id="text_69">
    <!-- 100.0% -->
    <g style="fill:#ffffff;" transform="translate(261.077882 274.624154)scale(0.12 -0.12)">
     <use xlink:href="#Arial-Black-31"/>
     <use x="66.699219" xlink:href="#Arial-Black-30"/>
     <use x="133.398438" xlink:href="#Arial-Black-30"/>
     <use x="200.097656" xlink:href="#Arial-Black-2e"/>
     <use x="233.398438" xlink:href="#Arial-Black-30"/>
     <use x="300.097656" xlink:href="#Arial-Black-25"/>
    </g>
   </g>
   <g id="text_70">
    <!-- 100.0% -->
    <g style="fill:#ffffff;" transform="translate(319.993438 274.624154)scale(0.12 -0.12)">
     <use xlink:href="#Arial-Black-31"/>
     <use x="66.699219" xlink:href="#Arial-Black-30"/>
     <use x="133.398438" xlink:href="#Arial-Black-30"/>
     <use x="200.097656" xlink:href="#Arial-Black-2e"/>
     <use x="233.398438" xlink:href="#Arial-Black-30"/>
     <use x="300.097656" xlink:href="#Arial-Black-25"/>
    </g>
   </g>
   <g id="text_71">
    <!-- 100.0% -->
    <g style="fill:#ffffff;" transform="translate(378.908993 274.624154)scale(0.12 -0.12)">
     <use xlink:href="#Arial-Black-31"/>
     <use x="66.699219" xlink:href="#Arial-Black-30"/>
     <use x="133.398438" xlink:href="#Arial-Black-30"/>
     <use x="200.097656" xlink:href="#Arial-Black-2e"/>
     <use x="233.398438" xlink:href="#Arial-Black-30"/>
     <use x="300.097656" xlink:href="#Arial-Black-25"/>
    </g>
   </g>
  </g>
  <g id="text_72">
   <!-- Ship Sinking Probabilities (damage = 15, curse = 15) -->
   <defs>
    <path d="M 4.5 23 
L 13.421875 23.78125 
Q 14.0625 18.40625 16.375 14.96875 
Q 18.703125 11.53125 23.578125 9.40625 
Q 28.46875 7.28125 34.578125 7.28125 
Q 39.984375 7.28125 44.140625 8.890625 
Q 48.296875 10.5 50.3125 13.296875 
Q 52.34375 16.109375 52.34375 19.4375 
Q 52.34375 22.796875 50.390625 25.3125 
Q 48.4375 27.828125 43.953125 29.546875 
Q 41.0625 30.671875 31.203125 33.03125 
Q 21.34375 35.40625 17.390625 37.5 
Q 12.25 40.1875 9.734375 44.15625 
Q 7.234375 48.140625 7.234375 53.078125 
Q 7.234375 58.5 10.296875 63.203125 
Q 13.375 67.921875 19.28125 70.359375 
Q 25.203125 72.796875 32.421875 72.796875 
Q 40.375 72.796875 46.453125 70.234375 
Q 52.546875 67.671875 55.8125 62.6875 
Q 59.078125 57.71875 59.328125 51.421875 
L 50.25 50.734375 
Q 49.515625 57.515625 45.28125 60.984375 
Q 41.0625 64.453125 32.8125 64.453125 
Q 24.21875 64.453125 20.28125 61.296875 
Q 16.359375 58.15625 16.359375 53.71875 
Q 16.359375 49.859375 19.140625 47.359375 
Q 21.875 44.875 33.421875 42.265625 
Q 44.96875 39.65625 49.265625 37.703125 
Q 55.515625 34.8125 58.484375 30.390625 
Q 61.46875 25.984375 61.46875 20.21875 
Q 61.46875 14.5 58.203125 9.4375 
Q 54.9375 4.390625 48.796875 1.578125 
Q 42.671875 -1.21875 35.015625 -1.21875 
Q 25.296875 -1.21875 18.71875 1.609375 
Q 12.15625 4.4375 8.421875 10.125 
Q 4.6875 15.828125 4.5 23 
" id="ArialMT-53"/>
    <path d="M 6.59375 0 
L 6.59375 71.578125 
L 15.375 71.578125 
L 15.375 45.90625 
Q 21.53125 53.03125 30.90625 53.03125 
Q 36.671875 53.03125 40.921875 50.75 
Q 45.171875 48.484375 47 44.484375 
Q 48.828125 40.484375 48.828125 32.859375 
L 48.828125 0 
L 40.046875 0 
L 40.046875 32.859375 
Q 40.046875 39.453125 37.1875 42.453125 
Q 34.328125 45.453125 29.109375 45.453125 
Q 25.203125 45.453125 21.75 43.421875 
Q 18.3125 41.40625 16.84375 37.9375 
Q 15.375 34.46875 15.375 28.375 
L 15.375 0 
z
" id="ArialMT-68"/>
    <path d="M 6.640625 61.46875 
L 6.640625 71.578125 
L 15.4375 71.578125 
L 15.4375 61.46875 
z
M 6.640625 0 
L 6.640625 51.859375 
L 15.4375 51.859375 
L 15.4375 0 
z
" id="ArialMT-69"/>
    <path d="M 6.59375 -19.875 
L 6.59375 51.859375 
L 14.59375 51.859375 
L 14.59375 45.125 
Q 17.4375 49.078125 21 51.046875 
Q 24.5625 53.03125 29.640625 53.03125 
Q 36.28125 53.03125 41.359375 49.609375 
Q 46.4375 46.1875 49.015625 39.953125 
Q 51.609375 33.734375 51.609375 26.3125 
Q 51.609375 18.359375 48.75 11.984375 
Q 45.90625 5.609375 40.453125 2.21875 
Q 35.015625 -1.171875 29 -1.171875 
Q 24.609375 -1.171875 21.109375 0.6875 
Q 17.625 2.546875 15.375 5.375 
L 15.375 -19.875 
z
M 14.546875 25.640625 
Q 14.546875 15.625 18.59375 10.84375 
Q 22.65625 6.0625 28.421875 6.0625 
Q 34.28125 6.0625 38.453125 11.015625 
Q 42.625 15.96875 42.625 26.375 
Q 42.625 36.28125 38.546875 41.203125 
Q 34.46875 46.140625 28.8125 46.140625 
Q 23.1875 46.140625 18.859375 40.890625 
Q 14.546875 35.640625 14.546875 25.640625 
" id="ArialMT-70"/>
    <path d="M 6.59375 0 
L 6.59375 51.859375 
L 14.5 51.859375 
L 14.5 44.484375 
Q 20.21875 53.03125 31 53.03125 
Q 35.6875 53.03125 39.625 51.34375 
Q 43.5625 49.65625 45.515625 46.921875 
Q 47.46875 44.1875 48.25 40.4375 
Q 48.734375 37.984375 48.734375 31.890625 
L 48.734375 0 
L 39.9375 0 
L 39.9375 31.546875 
Q 39.9375 36.921875 38.90625 39.578125 
Q 37.890625 42.234375 35.28125 43.8125 
Q 32.671875 45.40625 29.15625 45.40625 
Q 23.53125 45.40625 19.453125 41.84375 
Q 15.375 38.28125 15.375 28.328125 
L 15.375 0 
z
" id="ArialMT-6e"/>
    <path d="M 6.640625 0 
L 6.640625 71.578125 
L 15.4375 71.578125 
L 15.4375 30.765625 
L 36.234375 51.859375 
L 47.609375 51.859375 
L 27.78125 32.625 
L 49.609375 0 
L 38.765625 0 
L 21.625 26.515625 
L 15.4375 20.5625 
L 15.4375 0 
z
" id="ArialMT-6b"/>
    <path d="M 7.71875 0 
L 7.71875 71.578125 
L 34.71875 71.578125 
Q 41.84375 71.578125 45.609375 70.90625 
Q 50.875 70.015625 54.4375 67.546875 
Q 58.015625 65.09375 60.1875 60.640625 
Q 62.359375 56.203125 62.359375 50.875 
Q 62.359375 41.75 56.546875 35.421875 
Q 50.734375 29.109375 35.546875 29.109375 
L 17.1875 29.109375 
L 17.1875 0 
z
M 17.1875 37.546875 
L 35.6875 37.546875 
Q 44.875 37.546875 48.734375 40.96875 
Q 52.59375 44.390625 52.59375 50.59375 
Q 52.59375 55.078125 50.3125 58.265625 
Q 48.046875 61.46875 44.34375 62.5 
Q 41.9375 63.140625 35.5 63.140625 
L 17.1875 63.140625 
z
" id="ArialMT-50"/>
    <path d="M 3.328125 25.921875 
Q 3.328125 40.328125 11.328125 47.265625 
Q 18.015625 53.03125 27.640625 53.03125 
Q 38.328125 53.03125 45.109375 46.015625 
Q 51.90625 39.015625 51.90625 26.65625 
Q 51.90625 16.65625 48.90625 10.90625 
Q 45.90625 5.171875 40.15625 2 
Q 34.421875 -1.171875 27.640625 -1.171875 
Q 16.75 -1.171875 10.03125 5.8125 
Q 3.328125 12.796875 3.328125 25.921875 
M 12.359375 25.921875 
Q 12.359375 15.96875 16.703125 11.015625 
Q 21.046875 6.0625 27.640625 6.0625 
Q 34.1875 6.0625 38.53125 11.03125 
Q 42.875 16.015625 42.875 26.21875 
Q 42.875 35.84375 38.5 40.796875 
Q 34.125 45.75 27.640625 45.75 
Q 21.046875 45.75 16.703125 40.8125 
Q 12.359375 35.890625 12.359375 25.921875 
" id="ArialMT-6f"/>
    <path d="M 14.703125 0 
L 6.546875 0 
L 6.546875 71.578125 
L 15.328125 71.578125 
L 15.328125 46.046875 
Q 20.90625 53.03125 29.546875 53.03125 
Q 34.328125 53.03125 38.59375 51.09375 
Q 42.875 49.171875 45.625 45.671875 
Q 48.390625 42.1875 49.953125 37.25 
Q 51.515625 32.328125 51.515625 26.703125 
Q 51.515625 13.375 44.921875 6.09375 
Q 38.328125 -1.171875 29.109375 -1.171875 
Q 19.921875 -1.171875 14.703125 6.5 
z
M 14.59375 26.3125 
Q 14.59375 17 17.140625 12.84375 
Q 21.296875 6.0625 28.375 6.0625 
Q 34.125 6.0625 38.328125 11.0625 
Q 42.53125 16.0625 42.53125 25.984375 
Q 42.53125 36.140625 38.5 40.96875 
Q 34.46875 45.796875 28.765625 45.796875 
Q 23 45.796875 18.796875 40.796875 
Q 14.59375 35.796875 14.59375 26.3125 
" id="ArialMT-62"/>
    <path d="M 6.390625 0 
L 6.390625 71.578125 
L 15.1875 71.578125 
L 15.1875 0 
z
" id="ArialMT-6c"/>
    <path d="M 25.78125 7.859375 
L 27.046875 0.09375 
Q 23.34375 -0.6875 20.40625 -0.6875 
Q 15.625 -0.6875 12.984375 0.828125 
Q 10.359375 2.34375 9.28125 4.8125 
Q 8.203125 7.28125 8.203125 15.1875 
L 8.203125 45.015625 
L 1.765625 45.015625 
L 1.765625 51.859375 
L 8.203125 51.859375 
L 8.203125 64.703125 
L 16.9375 69.96875 
L 16.9375 51.859375 
L 25.78125 51.859375 
L 25.78125 45.015625 
L 16.9375 45.015625 
L 16.9375 14.703125 
Q 16.9375 10.9375 17.40625 9.859375 
Q 17.875 8.796875 18.921875 8.15625 
Q 19.96875 7.515625 21.921875 7.515625 
Q 23.390625 7.515625 25.78125 7.859375 
" id="ArialMT-74"/>
    <path d="M 23.390625 -21.046875 
Q 16.109375 -11.859375 11.078125 0.4375 
Q 6.0625 12.75 6.0625 25.921875 
Q 6.0625 37.546875 9.8125 48.1875 
Q 14.203125 60.546875 23.390625 72.796875 
L 29.6875 72.796875 
Q 23.78125 62.640625 21.875 58.296875 
Q 18.890625 51.5625 17.1875 44.234375 
Q 15.09375 35.109375 15.09375 25.875 
Q 15.09375 2.390625 29.6875 -21.046875 
z
" id="ArialMT-28"/>
    <path d="M 52.828125 42.09375 
L 5.5625 42.09375 
L 5.5625 50.296875 
L 52.828125 50.296875 
z
M 52.828125 20.359375 
L 5.5625 20.359375 
L 5.5625 28.5625 
L 52.828125 28.5625 
z
" id="ArialMT-3d"/>
    <path d="M 8.890625 0 
L 8.890625 10.015625 
L 18.890625 10.015625 
L 18.890625 0 
Q 18.890625 -5.515625 16.9375 -8.90625 
Q 14.984375 -12.3125 10.75 -14.15625 
L 8.296875 -10.40625 
Q 11.078125 -9.1875 12.390625 -6.8125 
Q 13.71875 -4.4375 13.875 0 
z
" id="ArialMT-2c"/>
    <path d="M 40.578125 0 
L 40.578125 7.625 
Q 34.515625 -1.171875 24.125 -1.171875 
Q 19.53125 -1.171875 15.546875 0.578125 
Q 11.578125 2.34375 9.640625 5 
Q 7.71875 7.671875 6.9375 11.53125 
Q 6.390625 14.109375 6.390625 19.734375 
L 6.390625 51.859375 
L 15.1875 51.859375 
L 15.1875 23.09375 
Q 15.1875 16.21875 15.71875 13.8125 
Q 16.546875 10.359375 19.234375 8.375 
Q 21.921875 6.390625 25.875 6.390625 
Q 29.828125 6.390625 33.296875 8.421875 
Q 36.765625 10.453125 38.203125 13.9375 
Q 39.65625 17.4375 39.65625 24.078125 
L 39.65625 51.859375 
L 48.4375 51.859375 
L 48.4375 0 
z
" id="ArialMT-75"/>
    <path d="M 12.359375 -21.046875 
L 6.0625 -21.046875 
Q 20.65625 2.390625 20.65625 25.875 
Q 20.65625 35.0625 18.5625 44.09375 
Q 16.890625 51.421875 13.921875 58.15625 
Q 12.015625 62.546875 6.0625 72.796875 
L 12.359375 72.796875 
Q 21.53125 60.546875 25.921875 48.1875 
Q 29.6875 37.546875 29.6875 25.921875 
Q 29.6875 12.75 24.625 0.4375 
Q 19.578125 -11.859375 12.359375 -21.046875 
" id="ArialMT-29"/>
   </defs>
   <g style="fill:#262626;" transform="translate(43.854375 26.11125)scale(0.24 -0.24)">
    <use xlink:href="#ArialMT-53"/>
    <use x="66.699219" xlink:href="#ArialMT-68"/>
    <use x="122.314453" xlink:href="#ArialMT-69"/>
    <use x="144.53125" xlink:href="#ArialMT-70"/>
    <use x="200.146484" xlink:href="#ArialMT-20"/>
    <use x="227.929688" xlink:href="#ArialMT-53"/>
    <use x="294.628906" xlink:href="#ArialMT-69"/>
    <use x="316.845703" xlink:href="#ArialMT-6e"/>
    <use x="372.460938" xlink:href="#ArialMT-6b"/>
    <use x="422.460938" xlink:href="#ArialMT-69"/>
    <use x="444.677734" xlink:href="#ArialMT-6e"/>
    <use x="500.292969" xlink:href="#ArialMT-67"/>
    <use x="555.908203" xlink:href="#ArialMT-20"/>
    <use x="583.691406" xlink:href="#ArialMT-50"/>
    <use x="650.390625" xlink:href="#ArialMT-72"/>
    <use x="683.691406" xlink:href="#ArialMT-6f"/>
    <use x="739.306641" xlink:href="#ArialMT-62"/>
    <use x="794.921875" xlink:href="#ArialMT-61"/>
    <use x="850.537109" xlink:href="#ArialMT-62"/>
    <use x="906.152344" xlink:href="#ArialMT-69"/>
    <use x="928.369141" xlink:href="#ArialMT-6c"/>
    <use x="950.585938" xlink:href="#ArialMT-69"/>
    <use x="972.802734" xlink:href="#ArialMT-74"/>
    <use x="1000.585938" xlink:href="#ArialMT-69"/>
    <use x="1022.802734" xlink:href="#ArialMT-65"/>
    <use x="1078.417969" xlink:href="#ArialMT-73"/>
    <use x="1128.417969" xlink:href="#ArialMT-20"/>
    <use x="1156.201172" xlink:href="#ArialMT-28"/>
    <use x="1189.501953" xlink:href="#ArialMT-64"/>
    <use x="1245.117188" xlink:href="#ArialMT-61"/>
    <use x="1300.732422" xlink:href="#ArialMT-6d"/>
    <use x="1384.033203" xlink:href="#ArialMT-61"/>
    <use x="1439.648438" xlink:href="#ArialMT-67"/>
    <use x="1495.263672" xlink:href="#ArialMT-65"/>
    <use x="1550.878906" xlink:href="#ArialMT-20"/>
    <use x="1578.662109" xlink:href="#ArialMT-3d"/>
    <use x="1637.060547" xlink:href="#ArialMT-20"/>
    <use x="1664.84375" xlink:href="#ArialMT-31"/>
    <use x="1720.458984" xlink:href="#ArialMT-35"/>
    <use x="1776.074219" xlink:href="#ArialMT-2c"/>
    <use x="1803.857422" xlink:href="#ArialMT-20"/>
    <use x="1831.640625" xlink:href="#ArialMT-63"/>
    <use x="1881.640625" xlink:href="#ArialMT-75"/>
    <use x="1937.255859" xlink:href="#ArialMT-72"/>
    <use x="1970.556641" xlink:href="#ArialMT-73"/>
    <use x="2020.556641" xlink:href="#ArialMT-65"/>
    <use x="2076.171875" xlink:href="#ArialMT-20"/>
    <use x="2103.955078" xlink:href="#ArialMT-3d"/>
    <use x="2162.353516" xlink:href="#ArialMT-20"/>
    <use x="2190.136719" xlink:href="#ArialMT-31"/>
    <use x="2245.751953" xlink:href="#ArialMT-35"/>
    <use x="2301.367188" xlink:href="#ArialMT-29"/>
   </g>
  </g>
  <g id="text_73">
   <!-- Prior Curses -->
   <defs>
    <path d="M 58.796875 25.09375 
L 68.265625 22.703125 
Q 65.28125 11.03125 57.546875 4.90625 
Q 49.8125 -1.21875 38.625 -1.21875 
Q 27.046875 -1.21875 19.796875 3.484375 
Q 12.546875 8.203125 8.765625 17.140625 
Q 4.984375 26.078125 4.984375 36.328125 
Q 4.984375 47.515625 9.25 55.828125 
Q 13.53125 64.15625 21.40625 68.46875 
Q 29.296875 72.796875 38.765625 72.796875 
Q 49.515625 72.796875 56.828125 67.328125 
Q 64.15625 61.859375 67.046875 51.953125 
L 57.71875 49.75 
Q 55.21875 57.5625 50.484375 61.125 
Q 45.75 64.703125 38.578125 64.703125 
Q 30.328125 64.703125 24.78125 60.734375 
Q 19.234375 56.78125 16.984375 50.109375 
Q 14.75 43.453125 14.75 36.375 
Q 14.75 27.25 17.40625 20.4375 
Q 20.0625 13.625 25.671875 10.25 
Q 31.296875 6.890625 37.84375 6.890625 
Q 45.796875 6.890625 51.3125 11.46875 
Q 56.84375 16.0625 58.796875 25.09375 
" id="ArialMT-43"/>
   </defs>
   <g style="fill:#262626;" transform="translate(273.992344 47.52)scale(0.18 -0.18)">
    <use xlink:href="#ArialMT-50"/>
    <use x="66.699219" xlink:href="#ArialMT-72"/>
    <use x="100" xlink:href="#ArialMT-69"/>
    <use x="122.216797" xlink:href="#ArialMT-6f"/>
    <use x="177.832031" xlink:href="#ArialMT-72"/>
    <use x="211.132812" xlink:href="#ArialMT-20"/>
    <use x="238.916016" xlink:href="#ArialMT-43"/>
    <use x="311.132812" xlink:href="#ArialMT-75"/>
    <use x="366.748047" xlink:href="#ArialMT-72"/>
    <use x="400.048828" xlink:href="#ArialMT-73"/>
    <use x="450.048828" xlink:href="#ArialMT-65"/>
    <use x="505.664062" xlink:href="#ArialMT-73"/>
   </g>
  </g>
  <g id="text_74">
   <!-- Prior Damage -->
   <g style="fill:#262626;" transform="translate(25.844062 271.517344)rotate(-90)scale(0.18 -0.18)">
    <use xlink:href="#ArialMT-50"/>
    <use x="66.699219" xlink:href="#ArialMT-72"/>
    <use x="100" xlink:href="#ArialMT-69"/>
    <use x="122.216797" xlink:href="#ArialMT-6f"/>
    <use x="177.832031" xlink:href="#ArialMT-72"/>
    <use x="211.132812" xlink:href="#ArialMT-20"/>
    <use x="238.916016" xlink:href="#ArialMT-44"/>
    <use x="311.132812" xlink:href="#ArialMT-61"/>
    <use x="366.748047" xlink:href="#ArialMT-6d"/>
    <use x="450.048828" xlink:href="#ArialMT-61"/>
    <use x="505.664062" xlink:href="#ArialMT-67"/>
    <use x="561.279297" xlink:href="#ArialMT-65"/>
   </g>
  </g>
 </g>
 <defs>
  <clipPath id="p6e95d22c06">
   <rect height="121.255765" width="176.746667" x="59.44" y="77.76"/>
  </clipPath>
  <clipPath id="pdccd28f984">
   <rect height="121.255765" width="176.746667" x="255.626667" y="77.76"/>
  </clipPath>
  <clipPath id="pf2bef154dd">
   <rect height="121.255765" width="176.746667" x="451.813333" y="77.76"/>
  </clipPath>
  <clipPath id="p57a2921d47">
   <rect height="121.255765" width="176.746667" x="59.44" y="251.304235"/>
  </clipPath>
  <clipPath id="pdd285d587d">
   <rect height="121.255765" width="176.746667" x="255.626667" y="251.304235"/>
  </clipPath>
 </defs>
</svg>
